# Blender 5.2.0 LTS
# www.blender.org
mtllib apple.mtl
o Esfera
v 0.000000 0.792710 0.042028
v 0.000000 0.371622 -0.275245
v 0.000000 -0.111261 -0.487464
v 0.000000 -0.311745 -0.390915
v 0.000000 -0.450485 -0.216942
v 0.041360 0.781527 0.063127
v 0.238369 0.371622 -0.137623
v 0.422156 0.111260 -0.243732
v 0.422156 -0.111261 -0.243732
v 0.338543 -0.311745 -0.195458
v 0.187878 -0.450485 -0.108471
v 0.041360 0.759160 0.105324
v 0.238369 0.371623 0.137622
v 0.422156 0.111261 0.243732
v 0.422156 -0.111260 0.243732
v 0.338543 -0.311745 0.195458
v 0.187878 -0.450485 0.108471
v 0.000000 0.747976 0.126422
v 0.000000 0.371623 0.275245
v 0.000000 0.111261 0.487464
v 0.000000 -0.111260 0.487464
v 0.000000 -0.311745 0.390916
v 0.000000 -0.450484 0.216942
v 0.000000 -0.412195 0.000000
v 0.000000 0.770296 0.084200
v -0.041360 0.759160 0.105324
v -0.238369 0.371623 0.137622
v -0.422157 0.111261 0.243732
v -0.422157 -0.111260 0.243732
v -0.338543 -0.311745 0.195458
v -0.187878 -0.450485 0.108471
v -0.041360 0.781527 0.063127
v -0.238369 0.371622 -0.137623
v -0.422156 0.111260 -0.243732
v -0.422156 -0.111261 -0.243732
v -0.338543 -0.311745 -0.195458
v -0.187877 -0.450485 -0.108471
v 0.000000 0.111260 -0.487464
v 0.000000 0.315842 -0.024571
v 0.021279 0.315842 -0.012286
v 0.021279 0.315842 0.012285
v 0.000000 0.315842 0.024571
v -0.021279 0.315842 0.012285
v -0.021279 0.315842 -0.012286
v 0.000000 -0.416703 -0.058191
v 0.050395 -0.416703 0.029096
v -0.050395 -0.416703 0.029096
v 0.000000 -0.417787 0.060152
v 0.052093 -0.417787 -0.030076
v -0.052093 -0.417787 -0.030076
v 0.000000 0.558350 -0.008726
v 0.031319 0.550722 0.007669
v 0.031319 0.535465 0.040457
v 0.000000 0.527836 0.056852
v -0.033089 0.602033 0.032576
v -0.033112 0.602466 0.028938
v 0.000000 0.680496 0.004729
v 0.036339 0.668607 0.022016
v 0.036339 0.644830 0.056591
v 0.000000 0.632941 0.073878
v -0.032968 0.605712 0.033363
v -0.032734 0.606648 0.028975
v 0.000000 0.436303 -0.025578
v 0.026299 0.432885 -0.010784
v 0.026299 0.426050 0.018805
v 0.000000 0.422632 0.033599
v -0.026299 0.426050 0.018805
v -0.026299 0.432885 -0.010784
v -0.036339 0.644830 0.056590
v -0.031319 0.535465 0.040457
v -0.036339 0.668607 0.022016
v -0.031319 0.550722 0.007669
v -0.266656 0.595784 0.031900
v -0.266275 0.594185 0.031078
v -0.267570 0.602872 0.022464
v -0.267282 0.601224 0.021669
v -0.075052 0.646441 -0.016570
v -0.116487 0.645580 -0.051806
v -0.190711 0.639489 -0.043313
v -0.231689 0.633412 -0.025520
v -0.222601 0.577537 0.068889
v -0.183096 0.584557 0.100261
v -0.113581 0.591793 0.108506
v -0.073723 0.596393 0.079602
v -0.075190 0.643386 -0.019505
v -0.116129 0.644246 -0.047379
v -0.184219 0.639045 -0.040515
v -0.229902 0.631336 -0.024568
v -0.076682 0.595106 0.078178
v -0.113833 0.594800 0.102396
v -0.182764 0.587460 0.093476
v -0.222423 0.575979 0.063579
v -0.194338 0.647497 -0.009483
v -0.267453 0.601872 0.023752
v -0.120789 0.653149 -0.019584
v -0.079864 0.645224 -0.001725
v -0.230129 0.626436 0.013952
v -0.191750 0.614978 0.074971
v -0.266979 0.598308 0.028580
v -0.120311 0.623487 0.074518
v -0.079757 0.635723 0.045482
v -0.226536 0.603898 0.046747
v -0.267238 0.600239 0.025962
v -0.192823 0.634843 0.036336
v -0.119681 0.641819 0.039650
v -0.079618 0.642187 0.037970
v -0.228755 0.619650 0.030665
v -0.197869 0.631014 0.017040
v -0.266970 0.599045 0.024593
v -0.126850 0.638213 0.010970
v -0.083848 0.638776 0.013534
v -0.228905 0.621809 0.019168
v -0.194797 0.609294 0.047164
v -0.082547 0.622548 0.045592
v -0.125140 0.616811 0.053712
v -0.266673 0.596967 0.027368
v -0.226471 0.602884 0.043219
v -0.199556 0.620448 0.033387
v -0.266896 0.598533 0.025242
v -0.130850 0.629547 0.033777
v -0.087563 0.632271 0.030930
v -0.227726 0.613299 0.031496
v -0.053726 0.609482 0.022469
v -0.053789 0.602543 0.022351
v -0.053881 0.607359 0.040783
v -0.053785 0.603812 0.038249
vn 0.4615 -0.3849 -0.7993
vn 0.4085 0.5767 -0.7075
vn -0.0000 0.8830 0.4693
vn -0.0000 0.8836 0.4683
vn -0.0010 0.8833 0.4688
vn 0.3387 -0.7356 -0.5866
vn 0.5000 -0.0000 -0.8660
vn 0.4904 0.2769 -0.8263
vn -0.1202 -0.9717 0.2035
vn -0.2364 -0.9717 0.0024
vn 0.9229 -0.3849 -0.0000
vn 0.8170 0.5767 -0.0000
vn -0.0010 0.8838 0.4678
vn 0.6774 -0.7356 -0.0000
vn 1.0000 -0.0000 -0.0000
vn 0.9989 -0.0404 -0.0235
vn 0.9991 -0.0357 -0.0214
vn 0.9991 -0.0361 -0.0216
vn 0.4615 -0.3849 0.7993
vn 0.4085 0.5767 0.7075
vn -0.0000 0.8841 0.4673
vn 0.3387 -0.7356 0.5866
vn 0.5000 -0.0000 0.8660
vn 0.4969 -0.3596 0.7898
vn -0.1161 -0.9717 -0.2059
vn 0.0010 0.8838 0.4678
vn -0.3387 -0.7356 0.5866
vn -0.5000 -0.0000 0.8660
vn -0.4970 -0.3596 0.7898
vn 0.1161 -0.9717 -0.2059
vn -0.4615 -0.3849 0.7993
vn -0.4085 0.5767 0.7075
vn -0.6774 -0.7356 -0.0000
vn -1.0000 -0.0000 -0.0000
vn -0.9991 -0.0357 -0.0214
vn 0.2364 -0.9717 0.0024
vn -0.9229 -0.3849 -0.0000
vn -0.8170 0.5767 -0.0000
vn 0.0010 0.8833 0.4688
vn -0.5000 -0.0000 -0.8660
vn -0.4904 0.2769 -0.8263
vn 0.1202 -0.9717 0.2035
vn -0.4615 -0.3849 -0.7993
vn -0.4085 0.5767 -0.7075
vn -0.3387 -0.7356 -0.5866
vn 0.1244 0.9685 0.2155
vn 0.2489 0.9685 -0.0000
vn 0.1244 0.9685 -0.2155
vn -0.1244 0.9685 -0.2155
vn -0.2489 0.9685 -0.0000
vn -0.1244 0.9685 0.2155
vn 0.0623 -0.9951 0.0771
vn 0.0979 -0.9951 0.0154
vn 0.0356 -0.9951 -0.0925
vn -0.0356 -0.9951 -0.0925
vn -0.0979 -0.9951 0.0154
vn -0.0623 -0.9951 0.0771
vn -0.4900 0.1169 -0.8638
vn -0.9990 -0.0416 -0.0144
vn -0.9995 -0.0303 -0.0121
vn -0.9991 -0.0409 -0.0146
vn -0.9990 -0.0438 -0.0060
vn -0.4952 -0.1890 0.8480
vn 0.4952 -0.1890 0.8480
vn 0.9990 -0.0438 -0.0060
vn 0.9990 -0.0415 -0.0155
vn 0.9989 -0.0410 -0.0230
vn 0.9990 -0.0416 -0.0144
vn 0.4900 0.1169 -0.8638
vn -0.4649 0.0923 -0.8805
vn -0.3834 0.5783 0.7201
vn -0.4742 -0.1454 0.8683
vn 0.4742 -0.1454 0.8683
vn 0.4649 0.0923 -0.8805
vn 0.4942 -0.0086 -0.8693
vn 0.9990 -0.0439 -0.0055
vn 0.4973 -0.0734 0.8645
vn -0.4973 -0.0734 0.8645
vn -0.9990 -0.0439 -0.0055
vn -0.4942 -0.0086 -0.8693
vn -0.9964 -0.0314 -0.0790
vn -0.9979 -0.0436 0.0483
vn -0.9995 -0.0288 -0.0118
vn -0.9971 -0.0616 -0.0451
vn -0.9819 -0.1852 -0.0387
vn -0.6049 -0.3670 -0.7066
vn 0.4484 -0.8639 -0.2293
vn -0.5736 -0.7484 0.3330
vn 0.7356 -0.6330 0.2411
vn -0.0709 -0.9786 -0.1932
vn 0.1457 -0.8997 -0.4114
vn 0.2945 -0.9511 -0.0934
vn -0.6159 -0.7324 -0.2903
vn 0.0357 -0.9935 -0.1081
vn 0.0787 -0.9915 -0.1038
vn 0.1800 -0.9727 -0.1461
vn 0.9163 0.1000 -0.3878
vn 0.5914 -0.2329 -0.7720
vn 0.0459 -0.9590 -0.2797
vn -0.0483 -0.8751 -0.4816
vn 0.7133 0.6518 0.2575
vn 0.3267 0.6841 0.6522
vn -0.1154 0.6707 0.7327
vn -0.6292 0.4113 0.6594
vn -0.4925 0.8500 0.1866
vn -0.3441 0.9386 -0.0229
vn 0.1510 0.9831 -0.1034
vn -0.1069 0.9648 -0.2403
vn -0.4408 0.8058 0.3955
vn -0.3732 0.8809 0.2911
vn 0.0637 0.9877 0.1426
vn -0.0733 0.9719 0.2237
vn -0.1036 0.8823 0.4591
vn 0.0577 0.8612 0.5050
vn -0.5007 0.7114 0.4932
vn -0.3939 0.6412 0.6585
vn 0.0874 -0.8991 -0.4289
vn 0.2267 -0.7166 -0.6596
vn 0.3555 -0.6878 -0.6329
vn 0.0126 -0.8369 -0.5472
vn 0.1250 -0.7908 -0.5992
vn 0.3513 -0.5574 -0.7523
vn -0.1352 -0.8589 -0.4940
vn 0.1443 -0.8845 -0.4437
vn 0.4495 -0.6660 -0.5953
vn 0.0346 -0.9372 -0.3470
vn 0.3686 -0.7462 -0.5544
vn 0.2226 -0.8135 -0.5372
vn 0.2999 0.0015 -0.9540
vn 0.2438 -0.4056 0.8809
vt 0.317027 0.088180
vt 0.330948 0.013232
vt 0.538866 0.000000
vt 0.483764 0.077569
vt 0.216586 -0.000000
vt 0.317027 0.093606
vt 0.243203 0.149149
vt 0.085843 0.098368
vt 0.719499 0.761121
vt 0.697199 0.765954
vt 0.708853 0.748405
vt 0.341173 0.180897
vt 0.433705 0.175008
vt 0.558140 0.603589
vt 0.558140 0.495599
vt 0.674882 0.536558
vt 0.674882 0.644548
vt 0.719499 0.793343
vt 0.726155 0.748405
vt 0.737512 0.763908
vt 0.729081 0.807835
vt 0.398689 0.234987
vt 0.423488 0.232813
vt 0.441853 0.255591
vt 0.502091 0.257709
vt 0.692528 0.185826
vt 0.606992 0.226590
vt 0.243203 0.284159
vt 0.085843 0.337473
vt 0.686545 0.753220
vt 0.000000 0.107333
vt 0.000000 0.346437
vt 0.760215 0.768962
vt 0.748237 0.814016
vt 0.638272 0.384884
vt 0.563481 0.386222
vt 0.317027 0.363625
vt 0.216586 0.478209
vt 0.674882 0.770752
vt 0.477945 0.346298
vt 0.130744 0.487173
vt 0.284374 0.807426
vt 0.284374 0.764978
vt 0.303925 0.775747
vt 0.301379 0.817725
vt 0.435755 0.280307
vt 0.685527 0.783468
vt 0.974079 0.681344
vt 0.887380 0.724496
vt 0.887380 0.531107
vt 0.974079 0.574021
vt 0.780598 0.748405
vt 0.674882 0.748336
vt 0.674882 0.507183
vt 0.780598 0.507252
vt 0.295447 0.552296
vt 0.289055 0.490322
vt 0.312468 0.487173
vt 0.315831 0.548373
vt 0.410556 0.280933
vt 0.385413 0.352186
vt 0.000000 0.508634
vt 0.141531 0.487173
vt 0.165661 0.599659
vt 0.042735 0.707849
vt 0.934087 0.434048
vt 1.000000 0.520158
vt 0.000000 0.769292
vt 0.252976 0.823687
vt 0.210241 0.885130
vt 0.700810 0.822019
vt 0.707836 0.778653
vt 0.719499 0.816287
vt 0.317027 0.269486
vt 0.391136 0.259009
vt 0.838841 0.386222
vt 0.284374 0.665067
vt 0.317027 0.602734
vt 0.317027 0.494744
vt 0.899482 0.055054
vt 0.893407 0.002217
vt 0.916779 -0.000000
vt 0.919813 0.052174
vt 0.340149 0.708141
vt 0.533507 0.708827
vt 0.367851 0.386222
vt 0.503995 0.386705
vt 0.381814 0.790090
vt 0.489119 0.790470
vt 0.893407 0.079466
vt 0.804655 0.132298
vt 0.798065 0.125205
vt 0.819583 -0.000000
vt 0.893407 0.214476
vt 0.804655 0.144351
vt 0.819583 0.270019
vt 0.798065 0.149309
vt 0.692528 0.210956
vt 0.790309 0.144221
vt 0.798065 0.149588
vt 0.779405 0.271077
vt 0.692528 0.075417
vt 0.790309 0.132122
vt 0.779405 0.000000
vt 0.798065 0.125389
vt 0.418030 0.256312
vt 0.898015 0.167947
vt 0.898206 0.111614
vt 0.915964 0.110319
vt 0.913016 0.168247
vt 0.702947 0.892323
vt 0.700531 0.856998
vt 0.717706 0.853953
vt 0.717924 0.891847
vt 0.294077 0.657484
vt 0.294036 0.604414
vt 0.311820 0.602487
vt 0.309098 0.657427
vt 0.286332 0.658617
vt 0.284708 0.603905
vt 0.737153 0.895500
vt 0.734113 0.851515
vt 0.751539 0.854648
vt 0.752173 0.895732
vt 0.924161 0.118003
vt 0.919810 0.173312
vt 0.807681 0.833135
vt 0.810837 0.819446
vt 0.829712 0.823984
vt 0.829010 0.825728
vt 0.284374 0.550018
vt 0.929597 0.062467
vt 0.905460 0.226300
vt 0.911041 0.229082
vt 0.748318 0.937855
vt 0.760215 0.935923
vt 0.284374 0.711503
vt 0.290709 0.709235
vt 0.302794 0.710540
vt 0.697905 0.927004
vt 0.709916 0.928470
vt 0.893407 0.224742
vt 0.709263 0.834996
vt 0.709369 0.836293
vt 0.711180 0.836376
vt 0.711481 0.834865
vt 0.314287 0.747949
vt 0.313478 0.747835
vt 0.312648 0.746383
vt 0.312015 0.745257
vt 0.311481 0.744304
vt 0.311153 0.743733
vt 0.311952 0.743897
vt 0.312674 0.745154
vt 0.312847 0.745440
vt 0.313363 0.746350
vt 0.313030 0.711503
vt 0.314287 0.711757
vt 0.692952 0.315438
vt 0.706692 0.332392
vt 0.693206 0.349787
vt 0.692528 0.348397
vt 0.315942 0.739622
vt 0.314287 0.740476
vt 0.314287 0.711503
vt 0.315153 0.711687
vt 0.759516 0.293624
vt 0.761092 0.293784
vt 0.766895 0.315187
vt 0.765296 0.315795
vt 0.764809 0.337419
vt 0.763195 0.334728
vt 0.740710 0.355613
vt 0.739004 0.352545
vt 0.717050 0.357279
vt 0.714920 0.355711
vt 0.310866 0.712110
vt 0.311153 0.713121
vt 0.307429 0.722743
vt 0.309081 0.743567
vt 0.294560 0.734164
vt 0.288920 0.731179
vt 0.286010 0.724317
vt 0.307684 0.718637
vt 0.741099 0.271178
vt 0.749326 0.286084
vt 0.736098 0.297394
vt 0.719847 0.272799
vt 0.716611 0.320986
vt 0.701873 0.295422
vt 0.770314 0.319120
vt 0.768700 0.321243
vt 0.768042 0.290487
vt 0.769775 0.290522
vt 0.742785 0.271515
vt 0.718458 0.271077
vt 0.699136 0.296178
vt 0.692528 0.315170
vt 0.768336 0.327956
vt 0.766895 0.326266
vt 0.776079 0.294839
vt 0.789774 0.308889
vt 0.791065 0.313357
vt 0.793015 0.338080
vt 0.776533 0.325775
vt 0.808765 0.318778
vt 0.812243 0.341203
vt 0.760215 0.817837
vt 0.767123 0.799266
vt 0.788902 0.818321
vt 0.784193 0.833066
vt 0.830758 0.821478
vt 0.818402 0.802942
vt 0.831024 0.787674
vt 0.831024 0.820795
vt 0.811946 0.780902
vt 0.824348 0.770295
vt 0.781409 0.278455
vt 0.766895 0.271077
vt 0.793523 0.758721
vt 0.805084 0.748405
vt 0.830280 0.822626
vt 0.813673 0.810237
vt 0.798349 0.799880
vt 0.775113 0.782145
vt 0.764332 0.772105
vt 0.777501 0.757477
vt 0.800110 0.301695
vt 0.741234 0.308287
vt 0.719752 0.329381
vt 0.709648 0.338150
vt 0.723701 0.335195
vt 0.712028 0.344078
vt 0.693352 0.350100
vt 0.693847 0.351108
vt 0.753076 0.294556
vt 0.757698 0.300304
vt 0.747300 0.316311
vt 0.694704 0.352876
vt 0.291259 0.754061
vt 0.304355 0.764978
vt 0.308946 0.711503
vt 0.304417 0.717873
vt 0.694598 0.365479
vt 0.692803 0.365033
vt 0.692528 0.357279
vt 0.694598 0.357469
s 1
usemtl Material.001
f 4/1/1 3/2/1 9/3/1 10/4/1
f 38/5/2 2/6/2 7/7/2 8/8/2
f 1/9/3 25/10/4 6/11/5
f 5/12/6 4/1/6 10/4/6 11/13/6
f 3/14/7 38/15/7 8/16/7 9/17/7
f 57/18/8 1/19/8 6/20/8 58/21/8
f 45/22/9 5/12/9 11/13/9 49/23/9
f 46/24/10 49/23/10 11/13/10 17/25/10
f 10/4/11 9/3/11 15/26/11 16/27/11
f 8/8/12 7/7/12 13/28/12 14/29/12
f 6/11/5 25/10/4 12/30/13
f 11/13/14 10/4/14 16/27/14 17/25/14
f 9/31/15 8/8/15 14/29/15 15/32/15
f 58/21/16 6/20/17 12/33/17 59/34/18
f 16/27/19 15/26/19 21/35/19 22/36/19
f 14/29/20 13/28/20 19/37/20 20/38/20
f 12/30/13 25/10/4 18/39/21
f 17/25/22 16/27/22 22/36/22 23/40/22
f 15/32/23 14/29/23 20/38/23 21/41/23
f 59/42/24 12/43/24 18/44/24 60/45/24
f 46/24/25 17/25/25 23/40/25 48/46/25
f 18/39/21 25/10/4 26/47/26
f 23/48/27 22/49/27 30/50/27 31/51/27
f 21/52/28 20/53/28 28/54/28 29/55/28
f 60/56/29 18/57/29 26/58/29 69/59/29
f 47/60/30 48/46/30 23/40/30 31/61/30
f 22/49/31 21/52/31 29/55/31 30/50/31
f 20/62/32 19/63/32 27/64/32 28/65/32
f 31/51/33 30/50/33 36/66/33 37/67/33
f 29/68/34 28/65/34 34/69/34 35/70/34
f 69/71/35 26/47/35 32/72/35 71/73/35
f 47/60/36 31/61/36 37/74/36 50/75/36
f 30/50/37 29/55/37 35/76/37 36/66/37
f 28/65/38 27/64/38 33/77/38 34/69/38
f 26/47/26 25/10/4 32/72/39
f 35/78/40 34/79/40 38/15/40 3/14/40
f 71/80/41 32/81/41 1/82/41 57/83/41
f 45/22/42 50/75/42 37/74/42 5/12/42
f 36/84/43 35/78/43 3/14/43 4/85/43
f 34/79/44 33/86/44 2/87/44 38/15/44
f 32/72/39 25/10/4 1/9/3
f 37/88/45 36/84/45 4/85/45 5/89/45
f 33/90/46 44/91/46 39/92/46 2/93/46
f 27/94/47 43/95/47 44/91/47 33/90/47
f 19/96/48 42/97/48 43/95/48 27/94/48
f 13/98/49 41/99/49 42/100/49 19/101/49
f 7/102/50 40/103/50 41/99/50 13/98/50
f 2/104/51 39/105/51 40/103/51 7/102/51
f 24/106/52 50/75/52 45/22/52
f 24/106/53 47/60/53 50/75/53
f 24/106/54 48/46/54 47/60/54
f 24/106/55 46/24/55 48/46/55
f 24/106/56 49/23/56 46/24/56
f 24/106/57 45/22/57 49/23/57
f 68/107/58 72/108/58 51/109/58 63/110/58
f 67/111/59 70/112/60 72/113/61 68/114/62
f 66/115/63 54/116/63 70/117/63 67/118/63
f 65/119/64 53/120/64 54/116/64 66/115/64
f 64/121/65 52/122/66 53/123/67 65/124/68
f 63/110/69 51/109/69 52/125/69 64/126/69
f 72/108/70 71/80/70 57/83/70 51/109/70
f 81/127/71 102/128/71 99/129/71 73/130/71
f 54/116/72 60/56/72 69/59/72 70/117/72
f 53/120/73 59/131/73 60/56/73 54/116/73
f 52/122/66 58/21/16 59/34/18 53/123/67
f 51/109/74 57/83/74 58/132/74 52/125/74
f 39/133/75 63/110/75 64/126/75 40/134/75
f 40/135/76 64/121/65 65/124/68 41/136/76
f 41/137/77 65/119/77 66/115/77 42/138/77
f 42/138/78 66/115/78 67/118/78 43/139/78
f 43/140/79 67/111/59 68/114/62 44/141/79
f 44/142/80 68/107/80 63/110/80 39/133/80
f 61/143/81 55/144/81 70/112/81 69/71/81
f 56/145/82 62/146/82 71/73/82 72/113/82
f 55/144/83 56/145/83 72/113/61 70/112/60
f 62/146/84 61/143/84 69/71/84 71/73/84
f 74/147/85 73/148/85 99/149/85 103/150/85 94/151/85 75/152/85 76/153/85 109/154/85 119/155/85 116/156/85
f 80/157/86 88/158/86 76/153/86 75/152/86
f 88/159/87 112/160/87 109/161/87 76/162/87
f 92/163/88 81/164/88 73/165/88 74/166/88
f 126/167/89 125/168/89 84/169/89 89/170/89
f 89/170/90 84/169/90 83/171/90 90/172/90
f 90/172/91 83/171/91 82/173/91 91/174/91
f 91/174/92 82/173/92 81/175/92 92/176/92
f 56/177/93 55/178/93 126/179/93 89/180/93 114/181/93 121/182/93 111/183/93 85/137/93 124/184/93
f 85/185/94 111/186/94 110/187/94 86/188/94
f 86/188/95 110/187/95 108/189/95 87/190/95
f 87/190/96 108/189/96 112/160/96 88/159/96
f 123/191/97 124/192/97 85/193/97 77/194/97
f 77/195/98 85/185/98 86/188/98 78/196/98
f 78/196/99 86/188/99 87/190/99 79/197/99
f 79/197/100 87/190/100 88/159/100 80/198/100
f 61/199/101 62/200/101 123/191/101 77/194/101 96/201/101 106/202/101 101/203/101 84/204/101 125/205/101
f 84/204/102 101/203/102 100/206/102 83/207/102
f 83/208/103 100/209/103 98/210/103 82/211/103
f 82/211/104 98/210/104 102/128/104 81/127/104
f 94/212/105 97/213/105 80/214/105 75/215/105
f 97/213/106 93/216/106 79/217/106 80/214/106
f 95/218/107 96/201/107 77/194/107 78/219/107
f 93/216/108 95/220/108 78/221/108 79/217/108
f 103/222/109 107/223/109 97/213/109 94/212/109
f 107/223/110 104/224/110 93/216/110 97/213/110
f 105/225/111 106/226/111 96/227/111 95/220/111
f 104/224/112 105/225/112 95/220/112 93/216/112
f 98/210/113 100/209/113 105/225/113 104/224/113
f 100/206/114 101/203/114 106/202/114 105/228/114
f 102/128/115 98/210/115 104/224/115 107/223/115
f 99/129/116 102/128/116 107/223/116 103/222/116
f 108/189/117 110/187/117 120/229/117 118/230/117
f 122/231/118 118/230/118 113/232/118 117/233/118
f 119/234/119 122/231/119 117/233/119 116/235/119
f 120/229/120 121/236/120 114/237/120 115/238/120
f 118/230/121 120/229/121 115/238/121 113/232/121
f 116/235/122 117/233/122 92/176/122 74/239/122
f 115/240/123 114/181/123 89/180/123 90/241/123
f 113/232/124 115/238/124 90/172/124 91/174/124
f 117/233/125 113/232/125 91/174/125 92/176/125
f 110/187/126 111/186/126 121/236/126 120/229/126
f 109/161/127 112/160/127 122/231/127 119/234/127
f 112/160/128 108/189/128 118/230/128 122/231/128
f 62/242/129 56/177/129 124/184/129 123/243/129
f 55/244/130 61/245/130 125/246/130 126/247/130
