# Blender 5.2.0 LTS
# www.blender.org
mtllib cylinder.mtl
o Cylinder
v 0.000000 -1.000000 -1.000000
v 0.000000 1.000000 -1.000000
v 0.195090 -1.000000 -0.980785
v 0.195090 1.000000 -0.980785
v 0.382683 -1.000000 -0.923880
v 0.382683 1.000000 -0.923880
v 0.555570 -1.000000 -0.831470
v 0.555570 1.000000 -0.831470
v 0.707107 -1.000000 -0.707107
v 0.707107 1.000000 -0.707107
v 0.831470 -1.000000 -0.555570
v 0.831470 1.000000 -0.555570
v 0.923880 -1.000000 -0.382683
v 0.923880 1.000000 -0.382683
v 0.980785 -1.000000 -0.195090
v 0.980785 1.000000 -0.195090
v 1.000000 -1.000000 0.000000
v 1.000000 1.000000 0.000000
v 0.980785 -1.000000 0.195090
v 0.980785 1.000000 0.195090
v 0.923880 -1.000000 0.382683
v 0.923880 1.000000 0.382683
v 0.831470 -1.000000 0.555570
v 0.831470 1.000000 0.555570
v 0.707107 -1.000000 0.707107
v 0.707107 1.000000 0.707107
v 0.555570 -1.000000 0.831470
v 0.555570 1.000000 0.831470
v 0.382683 -1.000000 0.923880
v 0.382683 1.000000 0.923880
v 0.195090 -1.000000 0.980785
v 0.195090 1.000000 0.980785
v 0.000000 -1.000000 1.000000
v 0.000000 1.000000 1.000000
v -0.195090 -1.000000 0.980785
v -0.195090 1.000000 0.980785
v -0.382683 -1.000000 0.923880
v -0.382683 1.000000 0.923880
v -0.555570 -1.000000 0.831470
v -0.555570 1.000000 0.831470
v -0.707107 -1.000000 0.707107
v -0.707107 1.000000 0.707107
v -0.831470 -1.000000 0.555570
v -0.831470 1.000000 0.555570
v -0.923880 -1.000000 0.382683
v -0.923880 1.000000 0.382683
v -0.980785 -1.000000 0.195090
v -0.980785 1.000000 0.195090
v -1.000000 -1.000000 0.000000
v -1.000000 1.000000 0.000000
v -0.980785 -1.000000 -0.195090
v -0.980785 1.000000 -0.195090
v -0.923880 -1.000000 -0.382683
v -0.923880 1.000000 -0.382683
v -0.831470 -1.000000 -0.555570
v -0.831470 1.000000 -0.555570
v -0.707107 -1.000000 -0.707107
v -0.707107 1.000000 -0.707107
v -0.555570 -1.000000 -0.831470
v -0.555570 1.000000 -0.831470
v -0.382683 -1.000000 -0.923880
v -0.382683 1.000000 -0.923880
v -0.195090 -1.000000 -0.980785
v -0.195090 1.000000 -0.980785
vn 0.0980 -0.0000 -0.9952
vn 0.2903 -0.0000 -0.9569
vn 0.4714 -0.0000 -0.8819
vn 0.6344 -0.0000 -0.7730
vn 0.7730 -0.0000 -0.6344
vn 0.8819 -0.0000 -0.4714
vn 0.9569 -0.0000 -0.2903
vn 0.9952 -0.0000 -0.0980
vn 0.9952 -0.0000 0.0980
vn 0.9569 -0.0000 0.2903
vn 0.8819 -0.0000 0.4714
vn 0.7730 -0.0000 0.6344
vn 0.6344 -0.0000 0.7730
vn 0.4714 -0.0000 0.8819
vn 0.2903 -0.0000 0.9569
vn 0.0980 -0.0000 0.9952
vn -0.0980 -0.0000 0.9952
vn -0.2903 -0.0000 0.9569
vn -0.4714 -0.0000 0.8819
vn -0.6344 -0.0000 0.7730
vn -0.7730 -0.0000 0.6344
vn -0.8819 -0.0000 0.4714
vn -0.9569 -0.0000 0.2903
vn -0.9952 -0.0000 0.0980
vn -0.9952 -0.0000 -0.0980
vn -0.9569 -0.0000 -0.2903
vn -0.8819 -0.0000 -0.4714
vn -0.7730 -0.0000 -0.6344
vn -0.6344 -0.0000 -0.7730
vn -0.4714 -0.0000 -0.8819
vn -0.0000 1.0000 -0.0000
vn -0.2903 -0.0000 -0.9569
vn -0.0980 -0.0000 -0.9952
vn -0.0000 -1.0000 -0.0000
vt 0.053347 0.949986
vt 0.053347 0.050014
vt 0.081263 0.050014
vt 0.081263 0.949986
vt 0.109179 0.050014
vt 0.109179 0.949986
vt 0.137095 0.050014
vt 0.137095 0.949986
vt 0.165011 0.050014
vt 0.165011 0.949986
vt 0.192926 0.050014
vt 0.192926 0.949986
vt 0.220842 0.050014
vt 0.220842 0.949986
vt 0.248758 0.050014
vt 0.248758 0.949986
vt 0.276674 0.050014
vt 0.276674 0.949986
vt 0.304590 0.050014
vt 0.304590 0.949986
vt 0.332505 0.050014
vt 0.332505 0.949986
vt 0.360421 0.050014
vt 0.360421 0.949986
vt 0.388337 0.050014
vt 0.388337 0.949986
vt 0.416253 0.050014
vt 0.416253 0.949986
vt 0.444168 0.050014
vt 0.444168 0.949986
vt 0.472084 0.050014
vt 0.472084 0.949986
vt 0.500000 0.050014
vt 0.500000 0.949986
vt 0.527916 0.050014
vt 0.527916 0.949986
vt 0.555832 0.050014
vt 0.555832 0.949986
vt 0.583747 0.050014
vt 0.583747 0.949986
vt 0.611663 0.050014
vt 0.611663 0.949986
vt 0.639579 0.050014
vt 0.639579 0.949986
vt 0.667495 0.050014
vt 0.667495 0.949986
vt 0.695411 0.050014
vt 0.695411 0.949986
vt 0.723326 0.050014
vt 0.723326 0.949986
vt 0.751242 0.050014
vt 0.751242 0.949986
vt 0.779158 0.050014
vt 0.779158 0.949986
vt 0.807074 0.050014
vt 0.807074 0.949986
vt 0.834990 0.050014
vt 0.834990 0.949986
vt 0.862905 0.050014
vt 0.862905 0.949986
vt 0.890821 0.050014
vt 0.890821 0.949986
vt 0.421291 0.104302
vt 0.500000 0.096549
vt 0.578709 0.104302
vt 0.654394 0.127260
vt 0.724145 0.164543
vt 0.785283 0.214717
vt 0.835457 0.275855
vt 0.872740 0.345606
vt 0.895699 0.421291
vt 0.903451 0.500000
vt 0.895699 0.578709
vt 0.872740 0.654394
vt 0.835457 0.724145
vt 0.785283 0.785283
vt 0.724145 0.835457
vt 0.654394 0.872740
vt 0.578709 0.895699
vt 0.500000 0.903451
vt 0.421291 0.895699
vt 0.345606 0.872740
vt 0.275855 0.835457
vt 0.214717 0.785283
vt 0.164543 0.724145
vt 0.127260 0.654394
vt 0.104302 0.578709
vt 0.096549 0.500000
vt 0.104302 0.421291
vt 0.127260 0.345606
vt 0.164543 0.275855
vt 0.214717 0.214717
vt 0.275855 0.164543
vt 0.345606 0.127260
vt 0.918737 0.050014
vt 0.918737 0.949986
vt 0.946653 0.050014
vt 0.946653 0.949986
vt 0.500000 0.096549
vt 0.421291 0.104302
vt 0.345606 0.127260
vt 0.275855 0.164543
vt 0.214717 0.214717
vt 0.164543 0.275855
vt 0.127260 0.345606
vt 0.104301 0.421291
vt 0.096549 0.500000
vt 0.104301 0.578709
vt 0.127260 0.654394
vt 0.164543 0.724145
vt 0.214717 0.785283
vt 0.275855 0.835457
vt 0.345606 0.872740
vt 0.500000 0.903451
vt 0.578709 0.895699
vt 0.654394 0.872740
vt 0.724145 0.835457
vt 0.785283 0.785283
vt 0.835457 0.724145
vt 0.872740 0.654394
vt 0.895698 0.578709
vt 0.903451 0.500000
vt 0.895698 0.421291
vt 0.872740 0.345606
vt 0.835457 0.275855
vt 0.785283 0.214717
vt 0.724145 0.164543
vt 0.654394 0.127260
vt 0.578709 0.104302
s 0
usemtl Material.001
f 1/1/1 2/2/1 4/3/1 3/4/1
f 3/4/2 4/3/2 6/5/2 5/6/2
f 5/6/3 6/5/3 8/7/3 7/8/3
f 7/8/4 8/7/4 10/9/4 9/10/4
f 9/10/5 10/9/5 12/11/5 11/12/5
f 11/12/6 12/11/6 14/13/6 13/14/6
f 13/14/7 14/13/7 16/15/7 15/16/7
f 15/16/8 16/15/8 18/17/8 17/18/8
f 17/18/9 18/17/9 20/19/9 19/20/9
f 19/20/10 20/19/10 22/21/10 21/22/10
f 21/22/11 22/21/11 24/23/11 23/24/11
f 23/24/12 24/23/12 26/25/12 25/26/12
f 25/26/13 26/25/13 28/27/13 27/28/13
f 27/28/14 28/27/14 30/29/14 29/30/14
f 29/30/15 30/29/15 32/31/15 31/32/15
f 31/32/16 32/31/16 34/33/16 33/34/16
f 33/34/17 34/33/17 36/35/17 35/36/17
f 35/36/18 36/35/18 38/37/18 37/38/18
f 37/38/19 38/37/19 40/39/19 39/40/19
f 39/40/20 40/39/20 42/41/20 41/42/20
f 41/42/21 42/41/21 44/43/21 43/44/21
f 43/44/22 44/43/22 46/45/22 45/46/22
f 45/46/23 46/45/23 48/47/23 47/48/23
f 47/48/24 48/47/24 50/49/24 49/50/24
f 49/50/25 50/49/25 52/51/25 51/52/25
f 51/52/26 52/51/26 54/53/26 53/54/26
f 53/54/27 54/53/27 56/55/27 55/56/27
f 55/56/28 56/55/28 58/57/28 57/58/28
f 57/58/29 58/57/29 60/59/29 59/60/29
f 59/60/30 60/59/30 62/61/30 61/62/30
f 4/63/31 2/64/31 64/65/31 62/66/31 60/67/31 58/68/31 56/69/31 54/70/31 52/71/31 50/72/31 48/73/31 46/74/31 44/75/31 42/76/31 40/77/31 38/78/31 36/79/31 34/80/31 32/81/31 30/82/31 28/83/31 26/84/31 24/85/31 22/86/31 20/87/31 18/88/31 16/89/31 14/90/31 12/91/31 10/92/31 8/93/31 6/94/31
f 61/62/32 62/61/32 64/95/32 63/96/32
f 63/96/33 64/95/33 2/97/33 1/98/33
f 1/99/34 3/100/34 5/101/34 7/102/34 9/103/34 11/104/34 13/105/34 15/106/34 17/107/34 19/108/34 21/109/34 23/110/34 25/111/34 27/112/34 29/113/34 31/81/34 33/114/34 35/115/34 37/116/34 39/117/34 41/118/34 43/119/34 45/120/34 47/121/34 49/122/34 51/123/34 53/124/34 55/125/34 57/126/34 59/127/34 61/128/34 63/129/34
