# Blender 5.2.0 LTS
# www.blender.org
mtllib gecko.mtl
o Mesh_Gecko
v 0.046801 0.153363 1.084051
v 0.100416 0.167061 1.111769
v 0.043453 0.217484 1.058838
v 0.097069 0.231181 1.086555
v 0.065866 0.217836 1.015309
v 0.119482 0.231534 1.043026
v 0.088755 0.154023 1.002569
v 0.142371 0.167720 1.030286
v -0.046801 0.153363 1.084051
v -0.100416 0.167061 1.111769
v -0.043453 0.217484 1.058838
v -0.097069 0.231181 1.086555
v -0.065866 0.217836 1.015309
v -0.119482 0.231534 1.043026
v -0.088755 0.154023 1.002569
v -0.142371 0.167720 1.030286
v 0.147260 0.085042 0.158075
v 0.000000 0.129544 0.158075
v 0.000000 -0.174334 0.158075
v 0.147260 -0.129832 0.158075
v 0.208257 -0.022395 0.158075
v 0.147690 0.089927 0.322675
v 0.000000 0.133997 0.322675
v 0.000000 -0.166931 0.322675
v 0.147690 -0.122861 0.322675
v 0.208865 -0.016467 0.322675
v 0.183154 -0.025951 -0.004333
v 0.129509 0.069491 -0.004333
v 0.129509 -0.121393 -0.004333
v 0.000000 -0.160926 -0.004333
v 0.000000 0.109024 -0.004333
v 0.174311 -0.029254 -0.018418
v 0.102373 0.054224 -0.079017
v 0.102373 -0.108497 -0.079017
v 0.000000 -0.142197 -0.079017
v 0.000000 0.087924 -0.079017
v 0.113223 -0.041362 -0.177410
v 0.080061 0.022266 -0.177410
v 0.080061 -0.104990 -0.177410
v 0.000000 -0.131345 -0.177410
v 0.000000 0.048621 -0.177410
v 0.109342 -0.061515 -0.244981
v 0.077317 0.005242 -0.244981
v 0.077317 -0.128272 -0.244981
v 0.000000 -0.155923 -0.244981
v 0.000000 0.032894 -0.244981
v 0.109187 -0.061515 -0.385375
v 0.077207 -0.000155 -0.385375
v 0.077207 -0.122875 -0.385375
v 0.000000 -0.148291 -0.385375
v 0.000000 0.025261 -0.385375
v 0.126261 -0.047884 -0.598010
v 0.089280 0.023070 -0.598010
v 0.089280 -0.118839 -0.598010
v 0.000000 -0.148229 -0.598010
v 0.000000 0.052461 -0.598010
v 0.103869 -0.043795 -0.791562
v 0.073446 0.018764 -0.791562
v 0.073446 -0.106354 -0.791562
v 0.000000 -0.132267 -0.791562
v 0.000000 0.044677 -0.791562
v 0.055655 -0.068330 -0.949675
v 0.039354 -0.026160 -0.949675
v 0.039354 -0.110500 -0.949675
v 0.000000 -0.127968 -0.949675
v 0.000000 -0.008692 -0.949675
v 0.030015 -0.096954 -1.103699
v 0.021224 -0.078171 -1.103699
v 0.021224 -0.115737 -1.103699
v 0.000000 -0.123518 -1.103699
v 0.000000 -0.070390 -1.103699
v 0.005680 -0.135119 -1.227737
v 0.004016 -0.131927 -1.227737
v 0.004016 -0.138311 -1.227737
v 0.000000 -0.139633 -1.227737
v 0.000000 -0.130605 -1.227737
v 0.123309 0.043146 0.491692
v 0.000000 0.131665 0.491692
v 0.000000 -0.145517 0.491692
v 0.123309 -0.117399 0.491692
v 0.174385 -0.037127 0.491692
v 0.107595 0.052837 0.602099
v 0.000000 0.142751 0.602099
v 0.000000 -0.129342 0.602099
v 0.107595 -0.104761 0.602099
v 0.152162 -0.025962 0.602099
v 0.109495 0.182288 0.758849
v 0.000000 0.221142 0.758849
v 0.000000 -0.044168 0.758849
v 0.109495 -0.005314 0.758849
v 0.154850 0.088487 0.758849
v 0.140971 0.233329 0.854262
v 0.000000 0.264759 0.854262
v 0.000000 -0.000550 0.854262
v 0.130897 0.038304 0.854262
v 0.185117 0.132105 0.854262
v 0.128210 0.229241 1.004197
v 0.000000 0.254462 1.004197
v 0.000000 0.031556 1.004197
v 0.119048 0.064200 1.004197
v 0.168359 0.143009 1.004197
v 0.066740 0.190416 1.129598
v 0.000000 0.212876 1.129598
v 0.000000 0.059511 1.129598
v 0.066740 0.081971 1.129598
v 0.094384 0.136194 1.129598
v 0.041462 0.161686 1.193660
v 0.000000 0.176197 1.193660
v 0.000000 0.077108 1.193660
v 0.041462 0.091619 1.193660
v 0.058636 0.126652 1.193660
v 0.013145 0.137099 1.227737
v 0.000000 0.141426 1.227737
v 0.000000 0.111878 1.227737
v 0.013145 0.116206 1.227737
v 0.018590 0.126652 1.227737
v 0.278774 -0.056097 0.014874
v 0.289710 -0.020739 -0.005480
v 0.269267 -0.052437 -0.068137
v 0.284866 -0.018874 -0.047782
v 0.265688 -0.083130 -0.005480
v 0.260844 -0.081265 -0.047782
v 0.291480 -0.091934 0.495293
v 0.316813 -0.044982 0.484050
v 0.269759 -0.058286 0.570366
v 0.271077 -0.097703 0.532720
v 0.315494 -0.005564 0.521696
v 0.295091 -0.011333 0.559123
v 0.422662 -0.224859 -0.034117
v 0.452084 -0.224859 -0.050310
v 0.422888 -0.224859 -0.100156
v 0.452200 -0.224859 -0.083963
v 0.398913 -0.224859 -0.050310
v 0.399029 -0.224859 -0.083963
v 0.421731 -0.264759 -0.015331
v 0.460607 -0.264759 -0.036726
v 0.422031 -0.264759 -0.102585
v 0.460759 -0.264759 -0.081190
v 0.390354 -0.264759 -0.036727
v 0.390506 -0.264759 -0.081190
v 0.479634 -0.220081 0.020448
v 0.509057 -0.220081 0.004255
v 0.478704 -0.264759 0.039234
v 0.517580 -0.264759 0.017839
v 0.481460 -0.222948 -0.158323
v 0.510771 -0.222949 -0.142130
v 0.519331 -0.264759 -0.139357
v 0.480602 -0.264759 -0.160752
v 0.532471 -0.215507 -0.050163
v 0.532587 -0.215507 -0.083815
v 0.540994 -0.264759 -0.036579
v 0.541146 -0.264759 -0.081042
v 0.426112 -0.226406 0.582621
v 0.455752 -0.226406 0.574523
v 0.440395 -0.226406 0.628390
v 0.419452 -0.226406 0.605978
v 0.476695 -0.226406 0.596935
v 0.470035 -0.226406 0.620292
v 0.415956 -0.264396 0.578959
v 0.459303 -0.264396 0.567117
v 0.436844 -0.264396 0.645892
v 0.406218 -0.264396 0.613117
v 0.489929 -0.264396 0.599893
v 0.480191 -0.264396 0.634050
v 0.389289 -0.223171 0.634163
v 0.410232 -0.223171 0.656575
v 0.376055 -0.264396 0.641302
v 0.406681 -0.264396 0.674077
v 0.487387 -0.230186 0.544963
v 0.508329 -0.230186 0.567375
v 0.521564 -0.264396 0.570333
v 0.490938 -0.264396 0.537557
v 0.516732 -0.224129 0.608350
v 0.510073 -0.224129 0.631707
v 0.520229 -0.264396 0.645465
v 0.529967 -0.264396 0.611307
v 0.451138 -0.221874 0.667716
v 0.480779 -0.221874 0.659618
v 0.447588 -0.264396 0.685218
v 0.490935 -0.264396 0.673376
v 0.000000 0.126652 1.227737
v 0.000000 -0.135119 -1.227737
v -0.147260 0.085042 0.158075
v -0.147260 -0.129832 0.158075
v -0.208257 -0.022395 0.158075
v -0.147690 0.089927 0.322675
v -0.147690 -0.122861 0.322675
v -0.208865 -0.016467 0.322675
v -0.183154 -0.025951 -0.004333
v -0.129509 0.069491 -0.004333
v -0.129509 -0.121393 -0.004333
v -0.174311 -0.029254 -0.018418
v -0.102373 0.054224 -0.079017
v -0.102373 -0.108497 -0.079017
v -0.113223 -0.041362 -0.177410
v -0.080061 0.022266 -0.177410
v -0.080061 -0.104990 -0.177410
v -0.109342 -0.061515 -0.244981
v -0.077317 0.005242 -0.244981
v -0.077317 -0.128272 -0.244981
v -0.109187 -0.061515 -0.385375
v -0.077207 -0.000155 -0.385375
v -0.077207 -0.122875 -0.385375
v -0.126261 -0.047884 -0.598010
v -0.089280 0.023070 -0.598010
v -0.089280 -0.118839 -0.598010
v -0.103869 -0.043795 -0.791562
v -0.073446 0.018764 -0.791562
v -0.073446 -0.106354 -0.791562
v -0.055655 -0.068330 -0.949675
v -0.039354 -0.026160 -0.949675
v -0.039354 -0.110500 -0.949675
v -0.030015 -0.096954 -1.103699
v -0.021224 -0.078171 -1.103699
v -0.021224 -0.115737 -1.103699
v -0.005680 -0.135119 -1.227737
v -0.004016 -0.131927 -1.227737
v -0.004016 -0.138311 -1.227737
v -0.123309 0.043146 0.491692
v -0.123309 -0.117399 0.491692
v -0.174385 -0.037127 0.491692
v -0.107595 0.052837 0.602099
v -0.107595 -0.104761 0.602099
v -0.152162 -0.025962 0.602099
v -0.109495 0.182288 0.758849
v -0.109495 -0.005314 0.758849
v -0.154850 0.088487 0.758849
v -0.140971 0.233329 0.854262
v -0.130897 0.038304 0.854262
v -0.185117 0.132105 0.854262
v -0.128210 0.229241 1.004197
v -0.119048 0.064200 1.004197
v -0.168359 0.143009 1.004197
v -0.066740 0.190416 1.129598
v -0.066740 0.081971 1.129598
v -0.094384 0.136194 1.129598
v -0.041462 0.161686 1.193660
v -0.041462 0.091619 1.193660
v -0.058636 0.126652 1.193660
v -0.013145 0.137099 1.227737
v -0.013145 0.116206 1.227737
v -0.018590 0.126652 1.227737
v -0.278774 -0.056097 0.014874
v -0.289710 -0.020739 -0.005480
v -0.269267 -0.052437 -0.068137
v -0.284866 -0.018874 -0.047782
v -0.265688 -0.083130 -0.005480
v -0.260844 -0.081265 -0.047782
v -0.291480 -0.091934 0.495293
v -0.316813 -0.044982 0.484050
v -0.269759 -0.058286 0.570366
v -0.271077 -0.097703 0.532720
v -0.315494 -0.005564 0.521696
v -0.295091 -0.011333 0.559123
v -0.422662 -0.224859 -0.034117
v -0.452084 -0.224859 -0.050310
v -0.422888 -0.224859 -0.100156
v -0.452200 -0.224859 -0.083963
v -0.398913 -0.224859 -0.050310
v -0.399029 -0.224859 -0.083963
v -0.421731 -0.264759 -0.015331
v -0.460607 -0.264759 -0.036726
v -0.422031 -0.264759 -0.102585
v -0.460759 -0.264759 -0.081190
v -0.390354 -0.264759 -0.036727
v -0.390506 -0.264759 -0.081190
v -0.479634 -0.220081 0.020448
v -0.509057 -0.220081 0.004255
v -0.478704 -0.264759 0.039234
v -0.517580 -0.264759 0.017839
v -0.481460 -0.222948 -0.158323
v -0.510771 -0.222949 -0.142130
v -0.519331 -0.264759 -0.139357
v -0.480602 -0.264759 -0.160752
v -0.532471 -0.215507 -0.050163
v -0.532587 -0.215507 -0.083815
v -0.540994 -0.264759 -0.036579
v -0.541146 -0.264759 -0.081042
v -0.426112 -0.226406 0.582621
v -0.455752 -0.226406 0.574523
v -0.440395 -0.226406 0.628390
v -0.419452 -0.226406 0.605978
v -0.476695 -0.226406 0.596935
v -0.470035 -0.226406 0.620292
v -0.415956 -0.264396 0.578959
v -0.459303 -0.264396 0.567117
v -0.436844 -0.264396 0.645892
v -0.406218 -0.264396 0.613117
v -0.489929 -0.264396 0.599893
v -0.480191 -0.264396 0.634050
v -0.389289 -0.223171 0.634163
v -0.410232 -0.223171 0.656575
v -0.376055 -0.264396 0.641302
v -0.406681 -0.264396 0.674077
v -0.487387 -0.230186 0.544963
v -0.508329 -0.230186 0.567375
v -0.521564 -0.264396 0.570333
v -0.490938 -0.264396 0.537557
v -0.516732 -0.224129 0.608350
v -0.510073 -0.224129 0.631707
v -0.520229 -0.264396 0.645465
v -0.529967 -0.264396 0.611307
v -0.451138 -0.221874 0.667716
v -0.480779 -0.221874 0.659618
v -0.447588 -0.264396 0.685218
v -0.490935 -0.264396 0.673376
vn -0.4972 0.2949 0.8160
vn -0.2000 0.9752 -0.0951
vn 0.3734 0.3086 -0.8748
vn 0.2000 -0.9752 0.0951
vn 0.8663 0.2213 0.4478
vn -0.8663 -0.2213 -0.4478
vn 0.4972 0.2949 0.8160
vn 0.2000 0.9752 -0.0951
vn -0.3734 0.3086 -0.8748
vn -0.2000 -0.9752 0.0951
vn -0.8663 0.2213 0.4478
vn 0.8663 -0.2213 -0.4478
vn 0.2875 0.9574 -0.0275
vn 0.2874 -0.9569 0.0414
vn 0.8682 -0.4960 0.0167
vn 0.8681 0.4960 -0.0190
vn -0.0000 -0.0000 1.0000
vn 0.8618 0.4870 -0.1423
vn 0.8642 -0.4883 -0.1214
vn 0.2896 -0.9538 -0.0800
vn 0.2884 0.9498 -0.1212
vn 0.8048 0.4243 -0.4150
vn 0.8091 -0.4510 -0.3767
vn 0.2917 -0.9236 -0.2486
vn 0.2895 0.9166 -0.2758
vn -0.0000 -1.0000 -0.0000
vn 0.3110 -0.9447 -0.1042
vn 0.2924 0.8881 -0.3547
vn 0.8822 0.4411 -0.1646
vn 0.8900 -0.4450 0.0994
vn 0.3084 -0.8986 0.3120
vn 0.3159 0.9206 -0.2295
vn 0.8945 0.4469 -0.0094
vn 0.8945 -0.4469 -0.0094
vn 0.3245 -0.9449 -0.0440
vn 0.3245 0.9449 -0.0440
vn 0.8823 0.4599 0.1003
vn 0.8860 -0.4618 0.0415
vn 0.3127 -0.9499 -0.0003
vn 0.3104 0.9429 0.1206
vn 0.8892 0.4489 -0.0881
vn 0.8876 -0.4481 -0.1068
vn 0.3207 -0.9436 -0.0825
vn 0.3215 0.9460 -0.0427
vn 0.8680 0.3872 -0.3110
vn 0.8954 -0.3995 -0.1968
vn 0.3587 -0.9326 -0.0391
vn 0.3410 0.8867 -0.3124
vn 0.9010 0.3709 -0.2251
vn 0.9210 -0.3792 -0.0892
vn 0.3846 -0.9228 -0.0203
vn 0.3616 0.8675 -0.3415
vn 0.8624 0.4103 -0.2965
vn 0.9021 -0.4292 -0.0460
vn 0.3367 -0.9336 0.1223
vn 0.3087 0.8560 -0.4147
vn 0.4338 0.8867 0.1601
vn -0.0000 -0.9952 0.0982
vn 0.2562 -0.9619 0.0950
vn 0.8503 -0.5113 0.1251
vn 0.8310 0.4997 0.2444
vn 0.6112 0.7909 -0.0309
vn -0.0000 -0.9894 0.1452
vn 0.2203 -0.9651 0.1416
vn 0.4426 0.7462 -0.4974
vn -0.0000 -0.8623 0.5063
vn 0.2443 -0.8362 0.4910
vn 0.8489 -0.4423 0.2893
vn 0.8311 0.4330 -0.3490
vn 0.2395 0.8535 -0.4629
vn -0.0000 0.8790 -0.4767
vn 0.2855 -0.8833 0.3718
vn 0.8830 -0.4687 -0.0248
vn 0.8126 0.3729 -0.4479
vn 0.2056 0.9770 0.0556
vn -0.0000 0.9984 0.0568
vn 0.2698 -0.9433 0.1931
vn 0.8487 -0.5090 0.1434
vn 0.9091 0.4088 0.0802
vn 0.2228 0.9111 0.3467
vn -0.0000 0.9346 0.3557
vn 0.2769 -0.9335 0.2279
vn 0.7871 -0.4553 0.4162
vn 0.7839 0.3784 0.4922
vn 0.2837 0.8302 0.4798
vn 0.3125 -0.9147 0.2562
vn 0.8222 -0.4128 0.3919
vn 0.7798 0.3916 0.4884
vn 0.2354 0.6823 0.6921
vn -0.0000 0.7021 0.7121
vn -0.0000 -0.7021 0.7121
vn 0.2354 -0.6823 0.6921
vn 0.6148 -0.3058 0.7270
vn 0.6148 0.3058 0.7270
vn -0.1329 0.5105 0.8495
vn 0.2537 0.3817 0.8888
vn 0.1265 0.4330 0.8924
vn 0.5586 0.2655 -0.7858
vn 0.3973 0.8787 -0.2646
vn 0.6043 0.7815 -0.1551
vn 0.5408 0.8189 -0.1921
vn -0.3448 -0.3785 0.8590
vn -0.3499 -0.4465 0.8236
vn -0.3500 -0.4473 0.8231
vn 0.1828 -0.9805 -0.0727
vn 0.5390 -0.4050 -0.7385
vn -0.0083 -0.0831 -0.9965
vn 0.0267 -0.2558 -0.9664
vn 0.0246 -0.2454 -0.9691
vn 0.2820 -0.3832 0.8796
vn 0.1117 -0.9910 0.0733
vn -0.1902 -0.9761 -0.1053
vn -0.0761 -0.9964 -0.0377
vn 0.1206 0.3455 -0.9306
vn 0.2861 0.9572 0.0445
vn 0.4280 0.8909 0.1517
vn 0.4786 0.8569 0.1915
vn 0.2737 0.1271 0.9534
vn 0.5328 0.2329 0.8136
vn 0.3444 0.4414 -0.8286
vn 0.7758 0.6302 -0.0328
vn -0.3538 -0.5453 0.7599
vn -0.7203 -0.6931 0.0278
vn -0.5514 -0.3453 -0.7594
vn 0.4539 0.3373 0.8247
vn 0.4832 0.0409 -0.8746
vn 0.9852 0.1714 0.0034
vn -0.5227 0.3731 0.7666
vn -0.9780 0.2087 -0.0034
vn -0.5605 0.0623 -0.8258
vn -0.6652 0.0586 -0.7443
vn -0.6664 0.0586 -0.7433
vn -0.0305 0.9980 -0.0555
vn -0.6631 0.3160 0.6785
vn 0.6908 -0.0912 -0.7173
vn -0.0117 0.9997 0.0211
vn 0.6900 0.1919 0.6979
vn -0.7040 0.0569 -0.7079
vn -0.1156 0.9933 -0.0004
vn -0.0185 0.2882 0.9574
vn 0.0054 -0.0610 -0.9981
vn 0.0662 -0.4453 -0.8929
vn -0.6805 -0.4906 0.5443
vn -0.5438 -0.7775 -0.3159
vn 0.7797 0.3753 -0.5011
vn 0.6795 0.6376 0.3630
vn 0.0458 0.3341 0.9414
vn -0.2601 0.1613 -0.9520
vn -0.4592 0.1303 -0.8787
vn -0.5122 0.1203 -0.8504
vn -0.6890 0.3327 0.6439
vn -0.9252 0.2728 -0.2638
vn 0.7130 0.2183 -0.6663
vn 0.9115 0.3187 0.2599
vn 0.2467 0.3512 0.9032
vn 0.0571 0.9969 -0.0533
vn -0.6770 0.0946 -0.7299
vn 0.6682 0.2498 0.7008
vn 0.0636 0.9962 -0.0594
vn 0.6610 0.2987 0.6883
vn -0.6777 0.0832 -0.7306
vn -0.0525 0.9985 -0.0150
vn -0.2718 0.2557 0.9278
vn 0.2736 0.0199 -0.9616
vn -0.0291 0.9939 -0.1066
vn -0.9495 0.1917 0.2483
vn 0.9518 0.1483 -0.2686
vn -0.0000 -0.0000 -1.0000
vn -0.2875 0.9574 -0.0275
vn -0.2874 -0.9569 0.0414
vn -0.8682 -0.4960 0.0167
vn -0.8681 0.4960 -0.0190
vn -0.8618 0.4870 -0.1423
vn -0.8642 -0.4883 -0.1214
vn -0.2896 -0.9538 -0.0800
vn -0.2884 0.9498 -0.1212
vn -0.8048 0.4243 -0.4150
vn -0.8091 -0.4510 -0.3767
vn -0.2917 -0.9236 -0.2486
vn -0.2895 0.9166 -0.2758
vn -0.3110 -0.9447 -0.1042
vn -0.2924 0.8881 -0.3547
vn -0.8822 0.4411 -0.1646
vn -0.8900 -0.4450 0.0994
vn -0.3084 -0.8986 0.3120
vn -0.3159 0.9206 -0.2295
vn -0.8945 0.4469 -0.0094
vn -0.8945 -0.4469 -0.0094
vn -0.3245 -0.9449 -0.0440
vn -0.3245 0.9449 -0.0440
vn -0.8823 0.4599 0.1003
vn -0.8860 -0.4618 0.0415
vn -0.3127 -0.9499 -0.0003
vn -0.3104 0.9429 0.1206
vn -0.8892 0.4489 -0.0881
vn -0.8876 -0.4481 -0.1068
vn -0.3207 -0.9436 -0.0825
vn -0.3215 0.9460 -0.0427
vn -0.8680 0.3872 -0.3110
vn -0.8954 -0.3995 -0.1968
vn -0.3587 -0.9326 -0.0391
vn -0.3410 0.8867 -0.3124
vn -0.9010 0.3709 -0.2251
vn -0.9210 -0.3792 -0.0892
vn -0.3846 -0.9228 -0.0203
vn -0.3616 0.8675 -0.3415
vn -0.8624 0.4103 -0.2965
vn -0.9021 -0.4292 -0.0460
vn -0.3367 -0.9336 0.1223
vn -0.3087 0.8560 -0.4147
vn -0.4338 0.8867 0.1601
vn -0.2562 -0.9619 0.0950
vn -0.8503 -0.5113 0.1251
vn -0.8310 0.4997 0.2444
vn -0.6112 0.7909 -0.0309
vn -0.2203 -0.9651 0.1416
vn -0.4426 0.7462 -0.4974
vn -0.2443 -0.8362 0.4910
vn -0.8489 -0.4423 0.2893
vn -0.8311 0.4330 -0.3490
vn -0.2395 0.8535 -0.4629
vn -0.2855 -0.8833 0.3718
vn -0.8830 -0.4687 -0.0248
vn -0.8126 0.3729 -0.4479
vn -0.2056 0.9770 0.0556
vn -0.2698 -0.9433 0.1931
vn -0.8487 -0.5090 0.1434
vn -0.9091 0.4088 0.0802
vn -0.2228 0.9111 0.3467
vn -0.2769 -0.9335 0.2279
vn -0.7871 -0.4553 0.4162
vn -0.7839 0.3784 0.4922
vn -0.2837 0.8302 0.4798
vn -0.3125 -0.9147 0.2562
vn -0.8222 -0.4128 0.3919
vn -0.7798 0.3916 0.4884
vn -0.2354 0.6823 0.6921
vn -0.2354 -0.6823 0.6921
vn -0.6148 -0.3058 0.7270
vn -0.6148 0.3058 0.7270
vn 0.1329 0.5105 0.8495
vn -0.1265 0.4330 0.8924
vn -0.2537 0.3817 0.8888
vn -0.5586 0.2655 -0.7858
vn -0.3973 0.8787 -0.2646
vn -0.5408 0.8189 -0.1921
vn -0.6043 0.7815 -0.1551
vn 0.3448 -0.3785 0.8590
vn 0.3500 -0.4473 0.8231
vn 0.3499 -0.4465 0.8236
vn -0.1828 -0.9805 -0.0727
vn -0.5390 -0.4050 -0.7385
vn 0.0083 -0.0831 -0.9965
vn -0.0246 -0.2454 -0.9691
vn -0.0267 -0.2558 -0.9664
vn -0.2820 -0.3832 0.8796
vn -0.1117 -0.9910 0.0733
vn 0.0761 -0.9964 -0.0377
vn 0.1902 -0.9761 -0.1053
vn -0.1206 0.3455 -0.9306
vn -0.2861 0.9572 0.0445
vn -0.4786 0.8569 0.1915
vn -0.4280 0.8909 0.1517
vn -0.2737 0.1271 0.9534
vn -0.5328 0.2329 0.8136
vn -0.3444 0.4414 -0.8286
vn -0.7758 0.6302 -0.0328
vn 0.3538 -0.5453 0.7599
vn 0.7203 -0.6931 0.0278
vn 0.5514 -0.3453 -0.7594
vn -0.4539 0.3373 0.8247
vn -0.4832 0.0409 -0.8746
vn -0.9852 0.1714 0.0034
vn 0.5227 0.3731 0.7666
vn 0.9780 0.2087 -0.0034
vn 0.5605 0.0623 -0.8258
vn 0.6664 0.0586 -0.7433
vn 0.6652 0.0586 -0.7443
vn 0.0305 0.9980 -0.0555
vn 0.6631 0.3160 0.6785
vn -0.6908 -0.0912 -0.7173
vn 0.0117 0.9997 0.0211
vn -0.6900 0.1919 0.6979
vn 0.7040 0.0569 -0.7079
vn 0.1156 0.9933 -0.0004
vn 0.0185 0.2882 0.9574
vn -0.0054 -0.0610 -0.9981
vn -0.0662 -0.4453 -0.8929
vn 0.6805 -0.4906 0.5443
vn 0.5438 -0.7775 -0.3159
vn -0.7797 0.3753 -0.5011
vn -0.6795 0.6376 0.3630
vn -0.0458 0.3341 0.9414
vn 0.2601 0.1613 -0.9520
vn 0.5122 0.1203 -0.8504
vn 0.4592 0.1303 -0.8787
vn 0.6890 0.3327 0.6439
vn 0.9252 0.2728 -0.2638
vn -0.7130 0.2183 -0.6663
vn -0.9115 0.3187 0.2599
vn -0.2467 0.3512 0.9032
vn -0.0571 0.9969 -0.0533
vn 0.6770 0.0946 -0.7299
vn -0.6682 0.2498 0.7008
vn -0.0636 0.9962 -0.0594
vn -0.6610 0.2987 0.6883
vn 0.6777 0.0832 -0.7306
vn 0.0525 0.9985 -0.0150
vn 0.2718 0.2557 0.9278
vn -0.2736 0.0199 -0.9616
vn 0.0291 0.9939 -0.1066
vn 0.9495 0.1917 0.2483
vn -0.9518 0.1483 -0.2686
vt 0.091630 0.930841
vt 0.100187 0.933027
vt 0.099653 0.943261
vt 0.091096 0.941075
vt 0.046683 0.956963
vt 0.042259 0.948406
vt 0.049207 0.944829
vt 0.053630 0.953386
vt 0.064823 0.933027
vt 0.073380 0.930841
vt 0.077033 0.941026
vt 0.068476 0.943212
vt 0.127107 0.930841
vt 0.135663 0.935265
vt 0.128968 0.948269
vt 0.120411 0.943846
vt 0.568031 0.249411
vt 0.569568 0.059473
vt 0.718319 0.089171
vt 0.717498 0.190638
vt 0.722728 0.249411
vt 0.721191 0.059473
vt 0.870658 0.118247
vt 0.871479 0.219713
vt 0.088076 0.930841
vt 0.088610 0.941075
vt 0.080053 0.943261
vt 0.079519 0.933027
vt 0.060975 0.944829
vt 0.067922 0.948406
vt 0.063499 0.956963
vt 0.056552 0.953386
vt 0.062338 0.933027
vt 0.058685 0.943212
vt 0.050128 0.941026
vt 0.053781 0.930841
vt 0.111229 0.930841
vt 0.117925 0.943846
vt 0.109368 0.948269
vt 0.102673 0.935265
vt 0.776627 0.250849
vt 0.926094 0.309622
vt 0.926915 0.411089
vt 0.778164 0.440786
vt 0.625665 0.250849
vt 0.774416 0.280546
vt 0.773595 0.382013
vt 0.624128 0.440786
vt 0.116113 0.708054
vt 0.092611 0.708054
vt 0.092611 0.681784
vt 0.116182 0.681784
vt 0.618989 0.785864
vt 0.643578 0.785864
vt 0.643650 0.813348
vt 0.618989 0.813348
vt 0.819454 0.594051
vt 0.837394 0.594051
vt 0.838383 0.621536
vt 0.820618 0.621536
vt 0.293419 0.580617
vt 0.310566 0.580617
vt 0.311345 0.606886
vt 0.294365 0.606886
vt 0.710107 0.738134
vt 0.710107 0.741238
vt 0.707640 0.741238
vt 0.708363 0.739043
vt 0.292851 0.554697
vt 0.308084 0.554697
vt 0.820863 0.566932
vt 0.836800 0.566932
vt 0.618989 0.758745
vt 0.640614 0.758745
vt 0.113280 0.733973
vt 0.092611 0.733973
vt 0.292324 0.552449
vt 0.305647 0.542778
vt 0.823016 0.554462
vt 0.836248 0.564580
vt 0.618989 0.746274
vt 0.636083 0.746274
vt 0.108950 0.745893
vt 0.092611 0.745893
vt 0.088328 0.121038
vt 0.058671 0.137359
vt 0.058900 0.070796
vt 0.088444 0.087118
vt 0.034734 0.121038
vt 0.034851 0.087118
vt 0.618989 0.729844
vt 0.632357 0.729844
vt 0.105389 0.761596
vt 0.092611 0.761596
vt 0.170896 0.710406
vt 0.160742 0.710406
vt 0.157525 0.699622
vt 0.168179 0.699622
vt 0.708872 0.729845
vt 0.698248 0.729845
vt 0.694360 0.718562
vt 0.705507 0.718562
vt 0.618989 0.718562
vt 0.631899 0.718562
vt 0.104951 0.772380
vt 0.092611 0.772380
vt 0.157525 0.677216
vt 0.167318 0.677216
vt 0.695261 0.695119
vt 0.705507 0.695119
vt 0.618989 0.695119
vt 0.631881 0.695119
vt 0.104933 0.794786
vt 0.092611 0.794786
vt 0.159701 0.643280
vt 0.171025 0.643280
vt 0.695935 0.659613
vt 0.707783 0.659613
vt 0.618989 0.659613
vt 0.633897 0.659613
vt 0.106860 0.828722
vt 0.092611 0.828722
vt 0.160353 0.612390
vt 0.170337 0.612390
vt 0.698020 0.627294
vt 0.708466 0.627294
vt 0.618989 0.627294
vt 0.631253 0.627294
vt 0.104333 0.859612
vt 0.092611 0.859612
vt 0.156438 0.587155
vt 0.163168 0.587155
vt 0.697328 0.600892
vt 0.704369 0.600892
vt 0.618989 0.600892
vt 0.625560 0.600892
vt 0.098892 0.884846
vt 0.092611 0.884846
vt 0.151869 0.562574
vt 0.154867 0.562574
vt 0.696453 0.575173
vt 0.699590 0.575173
vt 0.618989 0.575173
vt 0.622533 0.575173
vt 0.095998 0.909428
vt 0.092611 0.909428
vt 0.145778 0.542778
vt 0.146288 0.542778
vt 0.692684 0.554462
vt 0.693217 0.554462
vt 0.618989 0.554462
vt 0.619660 0.554462
vt 0.093252 0.929224
vt 0.092611 0.929224
vt 0.092611 0.654809
vt 0.112291 0.654809
vt 0.639579 0.841571
vt 0.618989 0.841571
vt 0.834934 0.649758
vt 0.821530 0.649758
vt 0.303879 0.633861
vt 0.291068 0.633861
vt 0.092611 0.637189
vt 0.109783 0.637189
vt 0.636955 0.860006
vt 0.618989 0.860006
vt 0.302609 0.113397
vt 0.293575 0.080330
vt 0.353670 0.097463
vt 0.328667 0.120827
vt 0.318579 0.056966
vt 0.344636 0.064395
vt 0.092611 0.612172
vt 0.110086 0.612172
vt 0.637272 0.886180
vt 0.618989 0.886180
vt 0.730245 0.554462
vt 0.743403 0.554462
vt 0.762514 0.580636
vt 0.746851 0.580636
vt 0.202631 0.542778
vt 0.215207 0.542778
vt 0.235867 0.567794
vt 0.220896 0.567794
vt 0.092611 0.596944
vt 0.115110 0.596944
vt 0.640846 0.902112
vt 0.618989 0.902112
vt 0.769797 0.596568
vt 0.754134 0.596568
vt 0.244013 0.583022
vt 0.227858 0.583022
vt 0.092611 0.573015
vt 0.113073 0.573015
vt 0.638868 0.927149
vt 0.618989 0.927149
vt 0.771618 0.621604
vt 0.758458 0.621604
vt 0.243360 0.606951
vt 0.229598 0.606951
vt 0.092611 0.553002
vt 0.103263 0.553002
vt 0.630133 0.948088
vt 0.618989 0.948088
vt 0.770480 0.642543
vt 0.761425 0.642543
vt 0.237164 0.626965
vt 0.228510 0.626965
vt 0.092611 0.542778
vt 0.099228 0.542778
vt 0.625912 0.958785
vt 0.618989 0.958785
vt 0.768886 0.653240
vt 0.763037 0.653240
vt 0.232579 0.637189
vt 0.226987 0.637189
vt 0.143740 0.933582
vt 0.146056 0.940199
vt 0.140507 0.940199
vt 0.139816 0.938102
vt 0.701834 0.741238
vt 0.704257 0.734315
vt 0.710107 0.731447
vt 0.138149 0.930841
vt 0.138149 0.937233
vt 0.351691 0.691291
vt 0.338368 0.679810
vt 0.334084 0.663138
vt 0.339727 0.661392
vt 0.347020 0.596877
vt 0.336866 0.602170
vt 0.343431 0.569484
vt 0.348788 0.571973
vt 0.138848 0.734156
vt 0.138075 0.740908
vt 0.879613 0.692830
vt 0.866381 0.704843
vt 0.870617 0.677572
vt 0.875131 0.675387
vt 0.662545 0.751490
vt 0.663353 0.758553
vt 0.873900 0.611707
vt 0.863276 0.606169
vt 0.865125 0.580113
vt 0.869939 0.581520
vt 0.929550 0.668821
vt 0.916146 0.660292
vt 0.917457 0.636509
vt 0.925297 0.640739
vt 0.772486 0.674699
vt 0.759328 0.682141
vt 0.760507 0.654843
vt 0.767089 0.655063
vt 0.667660 0.842172
vt 0.664253 0.848422
vt 0.177904 0.734754
vt 0.165092 0.742906
vt 0.172866 0.712234
vt 0.179157 0.712023
vt 0.139707 0.644048
vt 0.142963 0.650021
vt 0.445795 0.661631
vt 0.433219 0.654518
vt 0.428060 0.635750
vt 0.435554 0.631708
vt 0.307151 0.640174
vt 0.307151 0.635478
vt 0.376306 0.542778
vt 0.376306 0.547456
vt 0.203405 0.744898
vt 0.196654 0.744600
vt 0.203809 0.712023
vt 0.209180 0.712023
vt 0.846951 0.655326
vt 0.846951 0.651361
vt 0.741244 0.755113
vt 0.734180 0.755424
vt 0.728139 0.731447
vt 0.733758 0.731447
vt 0.893916 0.554462
vt 0.893916 0.558446
vt 0.281450 0.187214
vt 0.281450 0.209660
vt 0.247367 0.210370
vt 0.247367 0.180713
vt 0.318657 0.174455
vt 0.318657 0.152094
vt 0.350553 0.145564
vt 0.350553 0.175109
vt 0.179677 0.426543
vt 0.154005 0.426543
vt 0.143642 0.388970
vt 0.177562 0.388970
vt 0.277806 0.253123
vt 0.277806 0.271240
vt 0.247367 0.277769
vt 0.247367 0.253832
vt 0.319179 0.399863
vt 0.319179 0.425535
vt 0.288740 0.423420
vt 0.288740 0.389500
vt 0.320115 0.237339
vt 0.320115 0.219137
vt 0.350553 0.219791
vt 0.350553 0.243840
vt 0.208588 0.322960
vt 0.196235 0.345405
vt 0.154609 0.301943
vt 0.166962 0.279497
vt 0.131791 0.162664
vt 0.102134 0.178985
vt 0.465855 0.361109
vt 0.435416 0.367610
vt 0.431771 0.324147
vt 0.465855 0.317646
vt 0.047087 0.317309
vt 0.034734 0.294948
vt 0.079108 0.250266
vt 0.091461 0.272627
vt 0.421254 0.315918
vt 0.390815 0.309389
vt 0.390815 0.264706
vt 0.422711 0.271236
vt 0.103582 0.026423
vt 0.133126 0.042744
vt 0.295123 0.340821
vt 0.269450 0.340909
vt 0.269338 0.279585
vt 0.295010 0.279497
vt 0.120381 0.248538
vt 0.089942 0.242037
vt 0.089942 0.180713
vt 0.127515 0.187214
vt 0.149769 0.087230
vt 0.149652 0.121150
vt 0.207973 0.242037
vt 0.177534 0.248567
vt 0.170399 0.187242
vt 0.207973 0.180713
vt 0.947751 0.613309
vt 0.947751 0.618259
vt 0.799674 0.682916
vt 0.793388 0.676334
vt 0.805620 0.654843
vt 0.809362 0.654843
vt 0.690141 0.856754
vt 0.689029 0.860654
vt 0.257639 0.667761
vt 0.251630 0.674052
vt 0.239622 0.638806
vt 0.243199 0.638806
vt 0.245657 0.673131
vt 0.235895 0.638806
vt 0.401229 0.608518
vt 0.401229 0.603787
vt 0.326702 0.314160
vt 0.326702 0.291548
vt 0.355683 0.288840
vt 0.355683 0.321908
vt 0.282468 0.458855
vt 0.265370 0.458855
vt 0.270816 0.427406
vt 0.295820 0.427406
vt 0.105476 0.429902
vt 0.087657 0.429902
vt 0.084864 0.400920
vt 0.110922 0.400920
vt 0.054088 0.457727
vt 0.036990 0.457727
vt 0.034734 0.431629
vt 0.059738 0.431629
vt 0.172861 0.458989
vt 0.155042 0.458989
vt 0.144547 0.428271
vt 0.170604 0.428271
vt 0.366008 0.430514
vt 0.366008 0.453126
vt 0.333569 0.455835
vt 0.333569 0.422767
vt 0.083548 0.319065
vt 0.100645 0.335041
vt 0.079143 0.358052
vt 0.062046 0.342075
vt 0.405237 0.406689
vt 0.434218 0.416785
vt 0.434218 0.439795
vt 0.402768 0.429699
vt 0.375172 0.120473
vt 0.350168 0.143837
vt 0.260006 0.427406
vt 0.262715 0.456387
vt 0.239704 0.458855
vt 0.236996 0.427406
vt 0.162702 0.387242
vt 0.145604 0.371266
vt 0.168155 0.347133
vt 0.185252 0.363109
vt 0.444261 0.403567
vt 0.415279 0.393471
vt 0.415279 0.369338
vt 0.441377 0.379434
vt 0.271025 0.056196
vt 0.296028 0.032833
vt 0.329586 0.267415
vt 0.355683 0.264706
vt 0.382754 0.399259
vt 0.364936 0.404338
vt 0.356228 0.373795
vt 0.374046 0.368715
vt 0.105136 0.399193
vt 0.076155 0.391445
vt 0.076155 0.360902
vt 0.106873 0.368649
vt 0.327287 0.026423
vt 0.353344 0.033852
vt 0.322188 0.373180
vt 0.293207 0.383276
vt 0.291470 0.352733
vt 0.322188 0.342637
vt 0.243865 0.425535
vt 0.221253 0.419357
vt 0.229449 0.389357
vt 0.252060 0.395534
vt 0.388919 0.366988
vt 0.359938 0.353636
vt 0.359938 0.323635
vt 0.392377 0.336987
vt 0.374637 0.056199
vt 0.383671 0.089267
vt 0.223002 0.357629
vt 0.251983 0.347133
vt 0.255440 0.377134
vt 0.223002 0.387629
vt 0.138149 0.940199
vt 0.698617 0.732396
vt 0.698617 0.731447
vt 0.699150 0.731725
vt 0.699371 0.732396
vt 0.070976 0.945094
vt 0.071485 0.944829
vt 0.071485 0.945735
vt 0.070765 0.945735
vt 0.069109 0.708054
vt 0.069040 0.681784
vt 0.594328 0.813348
vt 0.594400 0.785864
vt 0.841365 0.610169
vt 0.842529 0.582684
vt 0.860294 0.582684
vt 0.859305 0.610169
vt 0.316318 0.596022
vt 0.317264 0.569752
vt 0.334244 0.569752
vt 0.333465 0.596022
vt 0.710107 0.744342
vt 0.708363 0.743433
vt 0.330982 0.621942
vt 0.315750 0.621942
vt 0.858711 0.637288
vt 0.842774 0.637288
vt 0.597364 0.758745
vt 0.071942 0.733973
vt 0.328546 0.633861
vt 0.315223 0.624190
vt 0.858159 0.639640
vt 0.844927 0.649758
vt 0.601895 0.746274
vt 0.076273 0.745893
vt 0.214362 0.121038
vt 0.214246 0.087118
vt 0.243791 0.070796
vt 0.244019 0.137359
vt 0.267840 0.087118
vt 0.267956 0.121038
vt 0.605621 0.729844
vt 0.079834 0.761596
vt 0.199323 0.542778
vt 0.196606 0.553562
vt 0.185952 0.553562
vt 0.189168 0.542778
vt 0.727653 0.554462
vt 0.724288 0.565745
vt 0.713141 0.565745
vt 0.717028 0.554462
vt 0.606079 0.718562
vt 0.080272 0.772380
vt 0.195744 0.575968
vt 0.185952 0.575968
vt 0.724288 0.589188
vt 0.714042 0.589188
vt 0.606097 0.695119
vt 0.080289 0.794786
vt 0.199451 0.609904
vt 0.188127 0.609904
vt 0.726564 0.624693
vt 0.714716 0.624693
vt 0.604081 0.659613
vt 0.078362 0.828722
vt 0.198764 0.640794
vt 0.188779 0.640794
vt 0.727247 0.657012
vt 0.716801 0.657012
vt 0.606725 0.627294
vt 0.080889 0.859612
vt 0.191594 0.666028
vt 0.184864 0.666028
vt 0.723150 0.683414
vt 0.716108 0.683414
vt 0.612418 0.600892
vt 0.086330 0.884846
vt 0.183293 0.690610
vt 0.180296 0.690610
vt 0.718370 0.709133
vt 0.715234 0.709133
vt 0.615445 0.575173
vt 0.089224 0.909428
vt 0.174714 0.710406
vt 0.174205 0.710406
vt 0.711997 0.729845
vt 0.711465 0.729845
vt 0.618318 0.554462
vt 0.091970 0.929224
vt 0.072932 0.654809
vt 0.598399 0.841571
vt 0.843441 0.554462
vt 0.856845 0.554462
vt 0.313967 0.542778
vt 0.326778 0.542778
vt 0.075439 0.637189
vt 0.601023 0.860006
vt 0.384793 0.176004
vt 0.410851 0.168575
vt 0.435854 0.191939
vt 0.375759 0.209072
vt 0.426820 0.225007
vt 0.400763 0.232436
vt 0.075136 0.612172
vt 0.600706 0.886180
vt 0.774850 0.653240
vt 0.791455 0.627066
vt 0.807118 0.627066
vt 0.788007 0.653240
vt 0.246849 0.637189
vt 0.265115 0.612172
vt 0.280085 0.612172
vt 0.259425 0.637189
vt 0.070113 0.596944
vt 0.597132 0.902112
vt 0.798738 0.611134
vt 0.814401 0.611134
vt 0.272076 0.596945
vt 0.288231 0.596945
vt 0.072149 0.573015
vt 0.599110 0.927149
vt 0.803062 0.586098
vt 0.816222 0.586098
vt 0.273816 0.573015
vt 0.287579 0.573015
vt 0.081960 0.553002
vt 0.607845 0.948088
vt 0.806030 0.565159
vt 0.815084 0.565159
vt 0.272729 0.553002
vt 0.281382 0.553002
vt 0.085994 0.542778
vt 0.612066 0.958785
vt 0.807641 0.554462
vt 0.813491 0.554462
vt 0.271206 0.542778
vt 0.276797 0.542778
vt 0.143740 0.946817
vt 0.139816 0.942297
vt 0.704257 0.748162
vt 0.710107 0.751029
vt 0.138149 0.949558
vt 0.138149 0.943166
vt 0.304665 0.638806
vt 0.292701 0.668704
vt 0.287058 0.666959
vt 0.291342 0.650287
vt 0.389660 0.548070
vt 0.391427 0.572975
vt 0.386071 0.575464
vt 0.379505 0.542778
vt 0.047148 0.740908
vt 0.046374 0.734156
vt 0.844488 0.666855
vt 0.840006 0.684298
vt 0.835492 0.682113
vt 0.831256 0.654843
vt 0.574625 0.758553
vt 0.575433 0.751490
vt 0.907549 0.554462
vt 0.903587 0.584649
vt 0.898774 0.586055
vt 0.896924 0.559999
vt 0.895480 0.613309
vt 0.891228 0.641391
vt 0.883388 0.645621
vt 0.882077 0.621838
vt 0.756865 0.662285
vt 0.751467 0.681921
vt 0.744886 0.682141
vt 0.743707 0.654843
vt 0.573725 0.848422
vt 0.570318 0.842172
vt 0.161353 0.720175
vt 0.162607 0.742906
vt 0.156316 0.742695
vt 0.148542 0.712023
vt 0.042259 0.650021
vt 0.045516 0.644048
vt 0.398743 0.603787
vt 0.388502 0.633711
vt 0.381008 0.629668
vt 0.386167 0.610900
vt 0.260124 0.694619
vt 0.260124 0.689923
vt 0.418945 0.597492
vt 0.418945 0.602170
vt 0.187417 0.744898
vt 0.181643 0.712023
vt 0.187014 0.712023
vt 0.194168 0.744600
vt 0.811826 0.708325
vt 0.811826 0.704359
vt 0.712570 0.755113
vt 0.720056 0.731447
vt 0.725675 0.731447
vt 0.719634 0.755424
vt 0.927565 0.607723
vt 0.927565 0.611707
vt 0.244711 0.271268
vt 0.210628 0.277769
vt 0.210628 0.248112
vt 0.244711 0.248822
vt 0.284106 0.214950
vt 0.316002 0.214296
vt 0.316002 0.243840
vt 0.284106 0.237311
vt 0.182448 0.426930
vt 0.184563 0.389357
vt 0.218483 0.389357
vt 0.208120 0.426930
vt 0.241067 0.205359
vt 0.210628 0.204650
vt 0.210628 0.180713
vt 0.241067 0.187242
vt 0.352923 0.410676
vt 0.322484 0.421039
vt 0.322484 0.387119
vt 0.352923 0.385004
vt 0.285563 0.152066
vt 0.316002 0.145564
vt 0.316002 0.169614
vt 0.285563 0.170268
vt 0.265952 0.301943
vt 0.224326 0.345405
vt 0.211973 0.322960
vt 0.253599 0.279497
vt 0.200556 0.178985
vt 0.170900 0.162664
vt 0.429116 0.324147
vt 0.429116 0.367610
vt 0.395032 0.361109
vt 0.398677 0.317646
vt 0.107067 0.250294
vt 0.151440 0.294976
vt 0.139087 0.317337
vt 0.094714 0.272655
vt 0.455841 0.264706
vt 0.457298 0.309389
vt 0.425403 0.315918
vt 0.425403 0.271236
vt 0.169564 0.042744
vt 0.199108 0.026423
vt 0.323805 0.245656
vt 0.323692 0.306980
vt 0.298020 0.306893
vt 0.298133 0.245568
vt 0.080152 0.180713
vt 0.087286 0.242037
vt 0.049713 0.248538
vt 0.049713 0.187214
vt 0.153038 0.121150
vt 0.152922 0.087230
vt 0.167744 0.187242
vt 0.167744 0.248567
vt 0.130171 0.242037
vt 0.137305 0.180713
vt 0.913682 0.663871
vt 0.913682 0.668821
vt 0.784638 0.682916
vt 0.774949 0.654843
vt 0.778692 0.654843
vt 0.790924 0.676334
vt 0.548949 0.860654
vt 0.547837 0.856754
vt 0.211665 0.667761
vt 0.226105 0.638806
vt 0.229681 0.638806
vt 0.217673 0.674052
vt 0.233409 0.638806
vt 0.223647 0.673131
vt 0.354177 0.661631
vt 0.354177 0.656901
vt 0.358759 0.272454
vt 0.387740 0.264706
vt 0.387740 0.297774
vt 0.358759 0.295066
vt 0.217243 0.460107
vt 0.203891 0.428658
vt 0.228894 0.428658
vt 0.234340 0.460107
vt 0.061597 0.429902
vt 0.056151 0.400920
vt 0.082208 0.400920
vt 0.079415 0.429902
vt 0.068307 0.457727
vt 0.062657 0.431629
vt 0.087661 0.431629
vt 0.085405 0.457727
vt 0.113577 0.458989
vt 0.115833 0.428271
vt 0.141891 0.428271
vt 0.131396 0.458989
vt 0.330914 0.452583
vt 0.298475 0.460331
vt 0.298475 0.427263
vt 0.330914 0.429971
vt 0.056236 0.398766
vt 0.034734 0.375756
vt 0.051832 0.359779
vt 0.073333 0.382790
vt 0.371132 0.439795
vt 0.368663 0.416785
vt 0.400113 0.406689
vt 0.400113 0.429699
vt 0.432352 0.145565
vt 0.457356 0.168929
vt 0.178225 0.428658
vt 0.201235 0.428658
vt 0.198526 0.460107
vt 0.175516 0.457639
vt 0.120398 0.319065
vt 0.142949 0.343198
vt 0.125851 0.359174
vt 0.103301 0.335041
vt 0.465855 0.405295
vt 0.462971 0.429428
vt 0.436873 0.439525
vt 0.436873 0.415391
vt 0.378212 0.256569
vt 0.353209 0.233205
vt 0.387740 0.321908
vt 0.361642 0.319199
vt 0.412280 0.374418
vt 0.403572 0.404961
vt 0.385754 0.399881
vt 0.394462 0.369338
vt 0.138880 0.360902
vt 0.140617 0.391445
vt 0.109898 0.399193
vt 0.109898 0.368649
vt 0.435528 0.255550
vt 0.409471 0.262979
vt 0.288814 0.357229
vt 0.288814 0.387772
vt 0.258096 0.377676
vt 0.259833 0.347133
vt 0.263192 0.425678
vt 0.254997 0.395677
vt 0.277608 0.389500
vt 0.285804 0.419500
vt 0.353825 0.323635
vt 0.357282 0.353636
vt 0.324844 0.366988
vt 0.324844 0.336987
vt 0.465855 0.200135
vt 0.456821 0.233202
vt 0.187908 0.377134
vt 0.187908 0.347133
vt 0.220346 0.357629
vt 0.216889 0.387629
vt 0.699150 0.733066
vt 0.698617 0.733344
vt 0.070976 0.946376
vt 0.071485 0.946642
s 1
usemtl lambert2SG
f 1/1/1 2/2/1 4/3/1 3/4/1
f 3/5/2 4/6/2 6/7/2 5/8/2
f 5/9/3 6/10/3 8/11/3 7/12/3
f 7/13/4 8/14/4 2/15/4 1/16/4
f 2/17/5 8/18/5 6/19/5 4/20/5
f 7/21/6 1/22/6 3/23/6 5/24/6
f 9/25/7 11/26/7 12/27/7 10/28/7
f 11/29/8 13/30/8 14/31/8 12/32/8
f 13/33/9 15/34/9 16/35/9 14/36/9
f 15/37/10 9/38/10 10/39/10 16/40/10
f 10/41/11 12/42/11 14/43/11 16/44/11
f 15/45/12 13/46/12 11/47/12 9/48/12
f 17/49/13 18/50/13 23/51/13 22/52/13
f 19/53/14 20/54/14 25/55/14 24/56/14
f 20/57/15 21/58/15 26/59/15 25/60/15
f 21/61/16 17/62/16 22/63/16 26/64/16
f 116/65/17 181/66/17 114/67/17 115/68/17
f 17/62/18 21/61/18 27/69/18 28/70/18
f 21/58/19 20/57/19 29/71/19 27/72/19
f 20/54/20 19/53/20 30/73/20 29/74/20
f 18/50/21 17/49/21 28/75/21 31/76/21
f 28/70/22 27/69/22 32/77/22 33/78/22
f 27/72/23 29/71/23 34/79/23 32/80/23
f 29/74/24 30/73/24 35/81/24 34/82/24
f 31/76/25 28/75/25 33/83/25 36/84/25
f 136/85/26 135/86/26 137/87/26 138/88/26
f 135/86/26 139/89/26 140/90/26 137/87/26
f 34/82/27 35/81/27 40/91/27 39/92/27
f 36/84/28 33/83/28 38/93/28 41/94/28
f 38/95/29 37/96/29 42/97/29 43/98/29
f 37/99/30 39/100/30 44/101/30 42/102/30
f 39/92/31 40/91/31 45/103/31 44/104/31
f 41/94/32 38/93/32 43/105/32 46/106/32
f 43/98/33 42/97/33 47/107/33 48/108/33
f 42/102/34 44/101/34 49/109/34 47/110/34
f 44/104/35 45/103/35 50/111/35 49/112/35
f 46/106/36 43/105/36 48/113/36 51/114/36
f 48/108/37 47/107/37 52/115/37 53/116/37
f 47/110/38 49/109/38 54/117/38 52/118/38
f 49/112/39 50/111/39 55/119/39 54/120/39
f 51/114/40 48/113/40 53/121/40 56/122/40
f 53/116/41 52/115/41 57/123/41 58/124/41
f 52/118/42 54/117/42 59/125/42 57/126/42
f 54/120/43 55/119/43 60/127/43 59/128/43
f 56/122/44 53/121/44 58/129/44 61/130/44
f 58/124/45 57/123/45 62/131/45 63/132/45
f 57/126/46 59/125/46 64/133/46 62/134/46
f 59/128/47 60/127/47 65/135/47 64/136/47
f 61/130/48 58/129/48 63/137/48 66/138/48
f 63/132/49 62/131/49 67/139/49 68/140/49
f 62/134/50 64/133/50 69/141/50 67/142/50
f 64/136/51 65/135/51 70/143/51 69/144/51
f 66/138/52 63/137/52 68/145/52 71/146/52
f 68/140/53 67/139/53 72/147/53 73/148/53
f 67/142/54 69/141/54 74/149/54 72/150/54
f 69/144/55 70/143/55 75/151/55 74/152/55
f 71/146/56 68/145/56 73/153/56 76/154/56
f 22/52/57 23/51/57 78/155/57 77/156/57
f 24/56/58 25/55/59 80/157/59 79/158/58
f 25/60/60 26/59/60 81/159/60 80/160/60
f 26/64/61 22/63/61 77/161/61 81/162/61
f 77/156/62 78/155/62 83/163/62 82/164/62
f 79/158/63 80/157/64 85/165/64 84/166/63
f 159/167/26 160/168/26 161/169/26 162/170/26
f 160/168/26 163/171/26 164/172/26 161/169/26
f 82/164/65 83/163/65 88/173/65 87/174/65
f 84/166/66 85/165/67 90/175/67 89/176/66
f 85/177/68 86/178/68 91/179/68 90/180/68
f 86/181/69 82/182/69 87/183/69 91/184/69
f 87/174/70 88/173/71 93/185/71 92/186/70
f 89/176/72 90/175/72 95/187/72 94/188/72
f 90/180/73 91/179/73 96/189/73 95/190/73
f 91/184/74 87/183/74 92/191/74 96/192/74
f 92/186/75 93/185/76 98/193/76 97/194/75
f 94/188/77 95/187/77 100/195/77 99/196/77
f 95/190/78 96/189/78 101/197/78 100/198/78
f 96/192/79 92/191/79 97/199/79 101/200/79
f 97/194/80 98/193/81 103/201/81 102/202/80
f 99/196/82 100/195/82 105/203/82 104/204/82
f 100/198/83 101/197/83 106/205/83 105/206/83
f 101/200/84 97/199/84 102/207/84 106/208/84
f 102/202/85 103/201/85 108/209/85 107/210/85
f 104/204/86 105/203/86 110/211/86 109/212/86
f 105/206/87 106/205/87 111/213/87 110/214/87
f 106/208/88 102/207/88 107/215/88 111/216/88
f 107/217/89 108/218/90 113/219/90 112/220/89
f 109/221/91 110/222/92 115/68/92 114/67/91
f 110/222/93 111/223/93 116/65/93 115/68/93
f 111/224/94 107/217/94 112/220/94 116/225/94
f 33/226/95 32/227/95 117/228/96 118/229/97
f 37/230/98 38/231/98 120/232/98 119/233/98
f 38/93/99 33/83/99 118/234/100 120/235/101
f 32/236/102 34/237/102 121/238/103 117/239/104
f 34/82/105 39/92/105 122/240/105 121/241/105
f 39/242/106 37/243/106 119/244/106 122/245/106
f 80/246/107 81/247/107 124/248/108 123/249/109
f 86/250/110 85/251/110 126/252/110 125/253/110
f 85/165/111 80/157/111 123/254/112 126/255/113
f 81/256/114 77/257/114 127/258/114 124/259/114
f 77/156/115 82/164/115 128/260/116 127/261/117
f 82/262/118 86/263/118 125/264/118 128/265/118
f 118/229/97 117/228/96 129/266/119 130/267/119
f 119/233/120 120/232/120 132/268/120 131/269/120
f 120/270/101 118/271/100 130/272/121 132/273/121
f 117/239/104 121/238/103 133/274/122 129/275/122
f 121/276/123 122/277/123 134/278/123 133/279/123
f 122/245/124 119/244/124 131/280/124 134/281/124
f 142/282/125 141/283/125 143/284/125 144/285/125
f 145/286/126 146/287/126 147/288/126 148/289/126
f 150/290/127 149/291/127 151/292/127 152/293/127
f 129/294/128 133/295/128 139/296/128 135/297/128
f 133/298/129 134/299/129 140/300/129 139/301/129
f 134/302/130 131/303/131 137/304/132 140/305/130
f 130/306/133 129/307/133 141/308/133 142/309/133
f 129/294/134 135/297/134 143/284/134 141/283/134
f 135/86/26 136/85/26 144/310/26 143/311/26
f 136/312/135 130/313/135 142/314/135 144/315/135
f 131/316/136 132/317/136 146/318/136 145/319/136
f 132/320/137 138/321/137 147/322/137 146/323/137
f 138/88/26 137/87/26 148/324/26 147/325/26
f 137/304/132 131/303/131 145/286/138 148/289/138
f 132/326/139 130/327/139 149/328/139 150/329/139
f 130/330/140 136/331/140 151/332/140 149/333/140
f 136/85/26 138/88/26 152/334/26 151/335/26
f 138/336/141 132/337/141 150/338/141 152/339/141
f 123/249/109 124/248/108 154/340/142 153/341/142
f 125/342/143 126/343/143 156/344/143 155/345/143
f 126/255/113 123/254/112 153/346/144 156/347/144
f 124/348/145 127/349/145 157/350/145 154/351/145
f 127/349/117 128/352/116 158/353/146 157/350/146
f 128/265/147 125/264/147 155/354/147 158/355/147
f 153/356/148 154/357/149 160/358/150 159/359/148
f 166/360/151 165/361/151 167/362/151 168/363/151
f 156/364/152 153/365/152 159/366/152 162/367/152
f 169/368/153 170/369/153 171/370/153 172/371/153
f 173/372/154 174/373/154 175/374/154 176/375/154
f 178/376/155 177/377/155 179/378/155 180/379/155
f 155/380/156 156/381/156 165/382/156 166/383/156
f 156/384/157 162/385/157 167/386/157 165/387/157
f 162/170/26 161/169/26 168/388/26 167/389/26
f 161/390/158 155/391/158 166/392/158 168/393/158
f 154/394/159 157/395/159 170/396/159 169/397/159
f 157/398/160 163/399/160 171/400/160 170/401/160
f 163/171/26 160/168/26 172/402/26 171/403/26
f 160/358/150 154/357/149 169/404/161 172/405/161
f 157/406/162 158/407/162 174/408/162 173/409/162
f 158/410/163 164/411/163 175/412/163 174/413/163
f 164/172/26 163/171/26 176/414/26 175/415/26
f 163/416/164 157/417/164 173/418/164 176/419/164
f 158/420/165 155/421/165 177/422/165 178/423/165
f 155/424/166 161/425/166 179/426/166 177/427/166
f 161/169/26 164/172/26 180/428/26 179/429/26
f 164/430/167 158/431/167 178/432/167 180/433/167
f 112/220/17 113/219/17 181/434/17 116/225/17
f 182/435/168 72/436/168 74/437/168 75/438/168
f 73/439/168 72/440/168 182/441/168 76/442/168
f 183/443/169 186/444/169 23/51/169 18/50/169
f 19/53/170 24/56/170 187/445/170 184/446/170
f 184/447/171 187/448/171 188/449/171 185/450/171
f 185/451/172 188/452/172 186/453/172 183/454/172
f 242/455/17 241/456/17 114/67/17 181/66/17
f 183/454/173 190/457/173 189/458/173 185/451/173
f 185/450/174 189/459/174 191/460/174 184/447/174
f 184/446/175 191/461/175 30/73/175 19/53/175
f 18/50/176 31/76/176 190/462/176 183/443/176
f 190/457/177 193/463/177 192/464/177 189/458/177
f 189/459/178 192/465/178 194/466/178 191/460/178
f 191/461/179 194/467/179 35/81/179 30/73/179
f 31/76/180 36/84/180 193/468/180 190/462/180
f 262/469/26 264/470/26 263/471/26 261/472/26
f 261/472/26 263/471/26 266/473/26 265/474/26
f 194/467/181 197/475/181 40/91/181 35/81/181
f 36/84/182 41/94/182 196/476/182 193/468/182
f 196/477/183 199/478/183 198/479/183 195/480/183
f 195/481/184 198/482/184 200/483/184 197/484/184
f 197/475/185 200/485/185 45/103/185 40/91/185
f 41/94/186 46/106/186 199/486/186 196/476/186
f 199/478/187 202/487/187 201/488/187 198/479/187
f 198/482/188 201/489/188 203/490/188 200/483/188
f 200/485/189 203/491/189 50/111/189 45/103/189
f 46/106/190 51/114/190 202/492/190 199/486/190
f 202/487/191 205/493/191 204/494/191 201/488/191
f 201/489/192 204/495/192 206/496/192 203/490/192
f 203/491/193 206/497/193 55/119/193 50/111/193
f 51/114/194 56/122/194 205/498/194 202/492/194
f 205/493/195 208/499/195 207/500/195 204/494/195
f 204/495/196 207/501/196 209/502/196 206/496/196
f 206/497/197 209/503/197 60/127/197 55/119/197
f 56/122/198 61/130/198 208/504/198 205/498/198
f 208/499/199 211/505/199 210/506/199 207/500/199
f 207/501/200 210/507/200 212/508/200 209/502/200
f 209/503/201 212/509/201 65/135/201 60/127/201
f 61/130/202 66/138/202 211/510/202 208/504/202
f 211/505/203 214/511/203 213/512/203 210/506/203
f 210/507/204 213/513/204 215/514/204 212/508/204
f 212/509/205 215/515/205 70/143/205 65/135/205
f 66/138/206 71/146/206 214/516/206 211/510/206
f 214/511/207 217/517/207 216/518/207 213/512/207
f 213/513/208 216/519/208 218/520/208 215/514/208
f 215/515/209 218/521/209 75/151/209 70/143/209
f 71/146/210 76/154/210 217/522/210 214/516/210
f 186/444/211 219/523/211 78/155/211 23/51/211
f 24/56/58 79/158/58 220/524/212 187/445/212
f 187/448/213 220/525/213 221/526/213 188/449/213
f 188/452/214 221/527/214 219/528/214 186/453/214
f 219/523/215 222/529/215 83/163/215 78/155/215
f 79/158/63 84/166/63 223/530/216 220/524/216
f 285/531/26 288/532/26 287/533/26 286/534/26
f 286/534/26 287/533/26 290/535/26 289/536/26
f 222/529/217 225/537/217 88/173/217 83/163/217
f 84/166/66 89/176/66 226/538/218 223/530/218
f 223/539/219 226/540/219 227/541/219 224/542/219
f 224/543/220 227/544/220 225/545/220 222/546/220
f 225/537/221 228/547/221 93/185/71 88/173/71
f 89/176/222 94/188/222 229/548/222 226/538/222
f 226/540/223 229/549/223 230/550/223 227/541/223
f 227/544/224 230/551/224 228/552/224 225/545/224
f 228/547/225 231/553/225 98/193/76 93/185/76
f 94/188/226 99/196/226 232/554/226 229/548/226
f 229/549/227 232/555/227 233/556/227 230/550/227
f 230/551/228 233/557/228 231/558/228 228/552/228
f 231/553/229 234/559/229 103/201/81 98/193/81
f 99/196/230 104/204/230 235/560/230 232/554/230
f 232/555/231 235/561/231 236/562/231 233/556/231
f 233/557/232 236/563/232 234/564/232 231/558/232
f 234/559/233 237/565/233 108/209/233 103/201/233
f 104/204/234 109/212/234 238/566/234 235/560/234
f 235/561/235 238/567/235 239/568/235 236/562/235
f 236/563/236 239/569/236 237/570/236 234/564/236
f 237/571/237 240/572/237 113/219/90 108/218/90
f 109/221/91 114/67/91 241/456/238 238/573/238
f 238/573/239 241/456/239 242/455/239 239/574/239
f 239/575/240 242/576/240 240/572/240 237/571/240
f 193/577/241 244/578/242 243/579/243 192/580/241
f 195/581/244 245/582/244 246/583/244 196/584/244
f 196/476/245 246/585/246 244/586/247 193/468/245
f 192/587/248 243/588/249 247/589/250 194/590/248
f 194/467/251 247/591/251 248/592/251 197/475/251
f 197/593/252 248/594/252 245/595/252 195/596/252
f 220/597/253 249/598/254 250/599/255 221/600/253
f 224/601/256 251/602/256 252/603/256 223/604/256
f 223/530/257 252/605/258 249/606/259 220/524/257
f 221/607/260 250/608/260 253/609/260 219/610/260
f 219/523/261 253/611/262 254/612/263 222/529/261
f 222/613/264 254/614/264 251/615/264 224/616/264
f 244/578/242 256/617/265 255/618/265 243/579/243
f 245/582/266 257/619/266 258/620/266 246/583/266
f 246/621/246 258/622/267 256/623/267 244/624/247
f 243/588/249 255/625/268 259/626/268 247/589/250
f 247/627/269 259/628/269 260/629/269 248/630/269
f 248/594/270 260/631/270 257/632/270 245/595/270
f 268/633/271 270/634/271 269/635/271 267/636/271
f 271/637/272 274/638/272 273/639/272 272/640/272
f 276/641/273 278/642/273 277/643/273 275/644/273
f 255/645/274 261/646/274 265/647/274 259/648/274
f 259/649/275 265/650/275 266/651/275 260/652/275
f 260/653/276 266/654/276 263/655/277 257/656/278
f 256/657/279 268/658/279 267/659/279 255/660/279
f 255/645/280 267/636/280 269/635/280 261/646/280
f 261/472/26 269/661/26 270/662/26 262/469/26
f 262/663/281 270/664/281 268/665/281 256/666/281
f 257/667/282 271/668/282 272/669/282 258/670/282
f 258/671/283 272/672/283 273/673/283 264/674/283
f 264/470/26 273/675/26 274/676/26 263/471/26
f 263/655/277 274/638/284 271/637/284 257/656/278
f 258/677/285 276/678/285 275/679/285 256/680/285
f 256/681/286 275/682/286 277/683/286 262/684/286
f 262/469/26 277/685/26 278/686/26 264/470/26
f 264/687/287 278/688/287 276/689/287 258/690/287
f 249/598/254 279/691/288 280/692/288 250/599/255
f 251/693/289 281/694/289 282/695/289 252/696/289
f 252/605/258 282/697/290 279/698/290 249/606/259
f 250/699/291 280/700/291 283/701/291 253/702/291
f 253/702/262 283/701/292 284/703/292 254/704/263
f 254/614/293 284/705/293 281/706/293 251/615/293
f 279/707/294 285/708/294 286/709/295 280/710/296
f 292/711/297 294/712/297 293/713/297 291/714/297
f 282/715/298 288/716/298 285/717/298 279/718/298
f 295/719/299 298/720/299 297/721/299 296/722/299
f 299/723/300 302/724/300 301/725/300 300/726/300
f 304/727/301 306/728/301 305/729/301 303/730/301
f 281/731/302 292/732/302 291/733/302 282/734/302
f 282/735/303 291/736/303 293/737/303 288/738/303
f 288/532/26 293/739/26 294/740/26 287/533/26
f 287/741/304 294/742/304 292/743/304 281/744/304
f 280/745/305 295/746/305 296/747/305 283/748/305
f 283/749/306 296/750/306 297/751/306 289/752/306
f 289/536/26 297/753/26 298/754/26 286/534/26
f 286/709/295 298/755/307 295/756/307 280/710/296
f 283/757/308 299/758/308 300/759/308 284/760/308
f 284/761/309 300/762/309 301/763/309 290/764/309
f 290/535/26 301/765/26 302/766/26 289/536/26
f 289/767/310 302/768/310 299/769/310 283/770/310
f 284/771/311 304/772/311 303/773/311 281/774/311
f 281/775/312 303/776/312 305/777/312 287/778/312
f 287/533/26 305/779/26 306/780/26 290/535/26
f 290/781/313 306/782/313 304/783/313 284/784/313
f 240/572/17 242/576/17 181/434/17 113/219/17
f 182/435/168 75/438/168 218/785/168 216/786/168
f 217/787/168 76/442/168 182/441/168 216/788/168
