# Blender 5.2.0 LTS
# www.blender.org
mtllib hedgehog.mtl
o obj1.001
v -0.606258 0.417834 -0.000000
v -0.833493 0.300858 -0.000000
v -0.825148 0.245264 0.136626
v -0.583046 0.639915 0.238502
v -0.754197 0.225342 0.276022
v -0.457878 0.319090 0.336625
v -0.772248 0.082159 0.238214
v -0.497531 0.096287 0.527914
v -0.797294 -0.091358 0.265096
v -0.497531 -0.091358 0.471491
v -0.497531 -0.091358 0.471491
v -0.797294 -0.091358 0.265096
v -0.647442 -0.198446 0.225586
v -0.503763 -0.204383 0.306317
v -0.021722 0.810909 -0.000000
v -0.186111 0.541815 -0.000000
v -0.186111 0.613390 0.139164
v -0.021722 0.500313 0.265827
v -0.133458 0.376585 0.443012
v 0.067588 0.392219 0.479004
v 0.067588 0.392219 0.479004
v -0.133458 0.376585 0.443012
v -0.186111 0.163026 0.437690
v -0.021722 0.242446 0.478422
v -0.217363 0.028505 0.660536
v -0.021722 -0.050520 0.542995
v -0.081598 -0.211343 0.396589
v 0.099381 -0.168903 0.422082
v 0.296296 0.460522 -0.000000
v 0.140897 0.491749 -0.000000
v 0.140897 0.418024 0.265827
v 0.426676 0.695437 0.335669
v 0.426676 0.695437 0.335669
v 0.140897 0.418024 0.265827
v 0.190698 0.314408 0.366360
v 0.427120 0.368806 0.409372
v 0.140897 0.163026 0.464739
v 0.379349 0.233668 0.592614
v 0.140897 -0.032236 0.548061
v 0.296296 -0.091358 0.529312
v 0.200074 -0.183777 0.419677
v 0.296296 -0.197991 0.410638
v 0.614314 0.376234 -0.000000
v 0.296296 0.460522 -0.000000
v 0.426676 0.695437 0.335669
v 0.665121 0.276189 0.161680
v 0.427120 0.368806 0.409372
v 0.614314 0.268751 0.315623
v 0.379349 0.233668 0.592614
v 0.618364 0.070016 0.356924
v 0.618364 0.070016 0.356924
v 0.581046 -0.105836 0.449501
v 0.524181 -0.174021 0.429332
v -0.901918 0.010731 0.075257
v -0.927891 0.024846 -0.002688
v -0.784506 -0.203418 0.000000
v -0.908573 0.042451 0.152448
v -0.879838 0.009238 0.196705
v -0.880918 -0.086596 0.146414
v -0.718237 -0.220429 0.160395
v 0.614314 0.035834 -0.000000
v 0.581046 -0.105836 0.449501
v 0.524181 -0.174021 0.429332
v -0.339739 0.558064 -0.000000
v -0.412895 0.550825 0.265827
v -0.411429 0.535519 0.552415
v -0.411429 0.535519 0.552415
v -0.339739 0.163026 0.488229
v -0.339739 -0.091358 0.471991
v -0.339739 -0.251005 0.328060
v 0.190698 0.314408 0.366360
v -0.497531 0.096287 0.527914
v -0.339739 0.163026 0.488229
v -0.411429 0.535519 0.552415
v -0.412895 0.550825 0.265827
v -0.606258 0.417834 -0.000000
v -0.583046 0.639915 0.238502
v -0.698177 0.263560 -0.133075
v -0.583046 0.633316 -0.148408
v -0.793774 0.225341 -0.276022
v -0.457878 0.319090 -0.336625
v -0.705458 0.028517 -0.342263
v -0.793774 0.225341 -0.276022
v -0.457878 0.319090 -0.336625
v -0.497531 0.096287 -0.527914
v -0.734643 -0.091359 -0.343734
v -0.705458 0.028517 -0.342263
v -0.497531 0.096287 -0.527914
v -0.497531 -0.091359 -0.471491
v -0.667925 -0.157040 -0.234206
v -0.734643 -0.091359 -0.343734
v -0.497531 -0.091359 -0.471491
v -0.497531 -0.204383 -0.302693
v -0.186111 0.474947 -0.304546
v -0.021722 0.500313 -0.265827
v -0.195333 0.545566 -0.628757
v 0.067588 0.392219 -0.479004
v -0.186111 0.163026 -0.437690
v -0.195333 0.545566 -0.628757
v 0.067588 0.392219 -0.479004
v -0.021722 0.242445 -0.533081
v -0.186111 -0.091359 -0.520192
v -0.021722 -0.050520 -0.597308
v -0.127609 -0.211343 -0.402237
v -0.186111 -0.091359 -0.520192
v -0.021722 -0.050520 -0.597308
v 0.099381 -0.168903 -0.427228
v 0.140897 0.550825 -0.265827
v 0.351913 0.626125 -0.356163
v 0.273292 0.235593 -0.575239
v 0.427120 0.244610 -0.479004
v 0.140897 0.163026 -0.640275
v 0.273292 0.235593 -0.575239
v 0.427120 0.244610 -0.479004
v 0.296296 0.093710 -0.517052
v 0.140897 -0.022454 -0.601591
v 0.140897 0.163026 -0.640275
v 0.296296 0.093710 -0.517052
v 0.296296 -0.091359 -0.597308
v 0.200074 -0.183777 -0.423348
v 0.140897 -0.022454 -0.601591
v 0.296296 -0.091359 -0.597308
v 0.296296 -0.197991 -0.414555
v 0.351913 0.626125 -0.356163
v 0.557670 0.325166 -0.211951
v 0.614314 0.243088 -0.319736
v 0.646779 0.070015 -0.353231
v 0.646779 0.070015 -0.353231
v 0.621823 -0.191062 -0.439049
v 0.621823 -0.191062 -0.439049
v 0.490629 -0.225161 -0.358208
v -0.930192 0.031131 -0.075459
v -0.934094 0.072959 -0.151178
v -0.902230 -0.020388 -0.221900
v -0.853586 -0.086596 -0.189846
v -0.740630 -0.204293 -0.163821
v 0.621823 -0.191062 -0.439049
v 0.614314 0.035834 -0.000000
v -0.339739 0.550825 -0.265827
v -0.334365 0.346574 -0.445607
v -0.339739 0.163026 -0.488229
v -0.334365 0.346574 -0.445607
v -0.339739 -0.091359 -0.616097
v -0.342394 -0.222695 -0.329151
v -0.339739 -0.091359 -0.616097
v -0.021722 0.242445 -0.533081
v 0.140897 0.163026 -0.640275
v -0.497531 -0.091359 -0.471491
v -0.583046 0.633316 -0.148408
v -0.339739 0.550825 -0.265827
v -0.583046 0.633316 -0.148408
v -0.647442 -0.198446 0.225586
v -0.740630 -0.204293 -0.163821
v -0.853586 -0.086596 -0.189846
v 0.620599 0.164173 0.213464
v 0.620652 0.135911 0.200853
v 0.648503 0.135805 0.201210
v 0.648449 0.164067 0.213822
v 0.659052 0.096935 0.200900
v 0.664884 0.146569 0.197368
v 0.667392 0.278806 0.208056
v 0.680917 0.275091 0.210716
v 0.680917 0.275091 0.210716
v 0.648449 0.164067 0.213822
v 0.664884 0.146569 0.197368
v 0.690277 0.258865 0.198272
v 0.682995 0.299789 0.158042
v 0.667392 0.278806 0.208056
v 0.680917 0.275091 0.210716
v 0.696520 0.296075 0.160703
v 0.696520 0.296075 0.160703
v 0.701687 0.274210 0.161698
v 0.622621 0.226249 0.074366
v 0.650471 0.226142 0.074723
v 0.650471 0.226142 0.074723
v 0.666362 0.192715 0.095649
v 0.622674 0.197987 0.061754
v 0.622621 0.226249 0.074366
v 0.650471 0.226142 0.074723
v 0.650525 0.197880 0.062111
v 0.650525 0.197880 0.062111
v 0.661074 0.159010 0.061802
v 0.620652 0.135911 0.200853
v 0.622674 0.197987 0.061754
v 0.650525 0.197880 0.062111
v 0.648503 0.135805 0.201210
v 0.648503 0.135805 0.201210
v 0.650525 0.197880 0.062111
v 0.661074 0.159010 0.061802
v 0.659052 0.096935 0.200900
v 0.659052 0.096935 0.200900
v 0.670211 0.262619 0.197303
v 0.656196 0.178340 0.197888
v 0.657674 0.223735 0.096169
v 0.670759 0.279436 0.159617
v 0.622621 0.226249 0.074366
v 0.622674 0.197987 0.061754
v 0.620652 0.135911 0.200853
v 0.620599 0.164173 0.213464
v 0.682995 0.299789 0.158042
v 0.667392 0.278806 0.208056
v 0.664884 0.146569 0.197368
v 0.666362 0.192715 0.095649
v 0.657674 0.223735 0.096169
v 0.666362 0.192715 0.095649
v 0.701687 0.274210 0.161698
v 0.670759 0.279436 0.159617
v 0.690277 0.258865 0.198272
v 0.670211 0.262619 0.197303
v 0.670211 0.262619 0.197303
v 0.690277 0.258865 0.198272
v 0.664884 0.146569 0.197368
v 0.656196 0.178340 0.197888
v 0.620599 0.233202 -0.074058
v 0.620652 0.204300 -0.062991
v 0.648503 0.204478 -0.062663
v 0.648449 0.233380 -0.073730
v 0.659052 0.176773 -0.035397
v 0.664884 0.209372 -0.072991
v 0.667392 0.310435 -0.158939
v 0.680917 0.309690 -0.154431
v 0.680917 0.309690 -0.154431
v 0.648449 0.233380 -0.073730
v 0.664884 0.209372 -0.072991
v 0.690277 0.289417 -0.151757
v 0.682995 0.289908 -0.209142
v 0.667392 0.310435 -0.158939
v 0.680917 0.309690 -0.154431
v 0.696520 0.289163 -0.204634
v 0.696520 0.289163 -0.204634
v 0.701687 0.274405 -0.188470
v 0.622621 0.178739 -0.216309
v 0.650471 0.178916 -0.215981
v 0.650471 0.178916 -0.215981
v 0.666362 0.170076 -0.177548
v 0.622674 0.149837 -0.205243
v 0.622621 0.178739 -0.216309
v 0.650471 0.178916 -0.215981
v 0.650525 0.150014 -0.204915
v 0.666362 0.170076 -0.177548
v 0.661074 0.122310 -0.177649
v 0.620652 0.204300 -0.062991
v 0.622674 0.149837 -0.205243
v 0.650525 0.150014 -0.204915
v 0.648503 0.204478 -0.062663
v 0.661074 0.122310 -0.177649
v 0.659052 0.176773 -0.035397
v 0.664884 0.209372 -0.072991
v 0.659052 0.176773 -0.035397
v 0.661074 0.122310 -0.177649
v 0.666362 0.170076 -0.177548
v 0.670211 0.291386 -0.155097
v 0.656196 0.232206 -0.095089
v 0.657674 0.192378 -0.199114
v 0.670759 0.276630 -0.193637
v 0.622621 0.178739 -0.216309
v 0.622674 0.149837 -0.205243
v 0.620652 0.204300 -0.062991
v 0.620599 0.233202 -0.074058
v 0.682995 0.289908 -0.209142
v 0.667392 0.310435 -0.158939
v 0.656196 0.232206 -0.095089
v 0.664884 0.209372 -0.072991
v 0.666362 0.170076 -0.177548
v 0.657674 0.192378 -0.199114
v 0.657674 0.192378 -0.199114
v 0.666362 0.170076 -0.177548
v 0.701687 0.274405 -0.188470
v 0.670759 0.276630 -0.193637
v 0.690277 0.289417 -0.151757
v 0.670211 0.291386 -0.155097
v 0.670211 0.291386 -0.155097
v 0.690277 0.289417 -0.151757
v 0.664884 0.209372 -0.072991
v 0.656196 0.232206 -0.095089
v -0.481686 0.416196 -0.000000
v -0.760467 0.114713 -0.000000
v -0.760467 0.092265 0.155920
v -0.481686 0.265212 0.261129
v -0.481686 0.265212 0.261129
v -0.760467 0.092265 0.155920
v -0.760467 -0.112725 0.211148
v -0.481686 -0.115437 0.363468
v -0.760467 -0.206526 0.155920
v -0.481686 -0.331746 0.261129
v -0.481686 -0.331746 0.261129
v -0.760467 -0.206526 0.155920
v -0.760467 -0.245380 0.000000
v -0.481686 -0.376667 0.000000
v -0.199754 0.490517 -0.000000
v -0.481686 0.416196 -0.000000
v -0.481686 0.265212 0.261129
v -0.199754 0.335117 0.336871
v -0.199754 0.335117 0.336871
v -0.199754 -0.106405 0.470583
v -0.199754 -0.324915 0.336871
v -0.199754 -0.324915 0.336871
v -0.199754 -0.342877 0.000000
v 0.169991 0.442426 -0.000000
v 0.169991 0.293546 0.370930
v 0.169991 0.293546 0.370930
v 0.169991 -0.041151 0.524575
v 0.169991 -0.041151 0.524575
v -0.199754 -0.106405 0.470583
v 0.169991 -0.263368 0.370931
v 0.169991 -0.375105 0.000000
v 0.554962 0.370249 -0.000000
v 0.554962 0.241408 0.310692
v 0.554962 0.241408 0.310692
v 0.554962 -0.174350 0.440102
v 0.554962 -0.174350 0.440102
v 0.554962 -0.333115 0.192995
v 0.554962 -0.361073 0.000000
v 0.777310 0.079758 -0.000000
v 0.554962 0.370249 -0.000000
v 0.554962 0.241408 0.310692
v 0.777310 -0.015701 0.155192
v 0.554962 -0.174350 0.440102
v 0.777310 -0.111569 0.219942
v 0.554962 -0.333115 0.192995
v 0.777310 -0.232729 0.155192
v 0.777310 -0.232729 0.155192
v 0.777310 -0.300165 0.000000
v 0.941034 -0.016868 0.000000
v 0.777310 0.079758 -0.000000
v 0.777310 -0.015701 0.155192
v 0.938618 -0.090253 0.083471
v 0.938618 -0.090253 0.083471
v 0.938618 -0.172488 0.118513
v 0.938618 -0.172488 0.118513
v 0.777310 -0.111569 0.219942
v 0.777310 -0.232729 0.155192
v 0.938618 -0.218953 0.083471
v 0.938618 -0.218953 0.083471
v 0.938618 -0.255449 0.000000
v -0.874819 -0.041750 0.000000
v -0.760467 -0.112725 0.211148
v -0.760467 -0.206526 0.155920
v -0.760467 -0.245380 0.000000
v 1.029682 -0.091650 0.000000
v 0.941034 -0.016868 0.000000
v 1.029682 -0.118663 0.035617
v 1.029682 -0.158285 0.051907
v 0.938618 -0.218953 0.083471
v 1.029682 -0.196951 0.019089
v 1.029682 -0.196951 0.019089
v 1.029682 -0.198257 0.000000
v -0.760467 0.092265 -0.155920
v -0.481686 0.265212 -0.261129
v -0.760467 -0.112725 -0.211148
v -0.760467 0.092265 -0.155920
v -0.481686 0.265212 -0.261129
v -0.481686 -0.115437 -0.363468
v -0.760467 -0.206526 -0.155920
v -0.481686 -0.331746 -0.261129
v -0.760467 -0.206526 -0.155920
v -0.481686 -0.331746 -0.261129
v -0.481686 0.265212 -0.261129
v -0.199754 0.335117 -0.336871
v -0.199754 0.335117 -0.336871
v -0.199754 -0.106405 -0.470583
v -0.199754 -0.324915 -0.336871
v -0.199754 -0.324915 -0.336871
v 0.169991 0.293546 -0.370931
v 0.169991 0.293546 -0.370931
v 0.169991 -0.041151 -0.524575
v -0.199754 -0.106405 -0.470583
v 0.169991 -0.041151 -0.524575
v 0.169991 -0.263368 -0.370930
v 0.554962 0.241408 -0.310693
v 0.554962 0.241408 -0.310693
v 0.554962 -0.174350 -0.440102
v 0.554962 -0.174350 -0.440102
v 0.554962 -0.333115 -0.192995
v 0.554962 0.241408 -0.310693
v 0.777310 -0.015701 -0.155191
v 0.554962 -0.174350 -0.440102
v 0.777310 -0.111569 -0.219942
v 0.554962 -0.333115 -0.192995
v 0.777310 -0.232729 -0.155192
v 0.777310 -0.232729 -0.155192
v 0.777310 -0.015701 -0.155191
v 0.938618 -0.090253 -0.083471
v 0.938618 -0.090253 -0.083471
v 0.938618 -0.172489 -0.118513
v 0.777310 -0.232729 -0.155192
v 0.777310 -0.111569 -0.219942
v 0.938618 -0.172489 -0.118513
v 0.938618 -0.218953 -0.083471
v 0.938618 -0.218953 -0.083471
v -0.760467 -0.112725 -0.211148
v -0.760467 -0.206526 -0.155920
v 1.029682 -0.118663 -0.035617
v 1.029682 -0.158285 -0.051907
v 0.938618 -0.218953 -0.083471
v 1.029682 -0.196951 -0.019089
v 1.029682 -0.196951 -0.019089
v 1.031280 -0.105983 0.000000
v 1.031079 -0.119441 0.029744
v 1.030130 -0.156648 0.038555
v 1.031588 -0.181999 0.026468
v 1.029682 -0.198257 0.000000
v 1.033796 -0.193792 0.000000
v 1.031079 -0.119441 -0.029744
v 1.030130 -0.156648 -0.038555
v 1.031588 -0.181999 -0.026468
v 1.051827 -0.125144 0.000000
v 1.051132 -0.133629 0.019360
v 1.064251 -0.155154 0.000000
v 1.049961 -0.154794 0.026400
v 1.050454 -0.170978 0.018943
v 1.051422 -0.178500 0.000000
v 1.051132 -0.133629 -0.019360
v 1.049961 -0.154794 -0.026400
v 1.050454 -0.170978 -0.018943
v 1.031280 -0.105983 0.000000
v 1.031079 -0.119441 0.029744
v 1.030130 -0.156648 0.038555
v 1.031588 -0.181999 0.026468
v 1.033796 -0.193792 0.000000
v 1.031079 -0.119441 -0.029744
v 1.030130 -0.156648 -0.038555
v 1.031588 -0.181999 -0.026468
v -0.474845 -0.298792 0.274525
v -0.478862 -0.318696 0.252240
v -0.382362 -0.391131 0.265078
v -0.359968 -0.370166 0.277390
v -0.260479 -0.409862 0.239313
v -0.252470 -0.405074 0.247667
v -0.457722 -0.261939 0.261158
v -0.361882 -0.334801 0.265462
v -0.241257 -0.385413 0.234106
v -0.456699 -0.249577 0.218786
v -0.361788 -0.332940 0.215838
v -0.241219 -0.384664 0.214126
v -0.457374 -0.256737 0.184933
v -0.361695 -0.331079 0.166215
v -0.241182 -0.383914 0.194146
v -0.476436 -0.292138 0.169391
v -0.359731 -0.365451 0.151679
v -0.252341 -0.402503 0.179108
v -0.478718 -0.317581 0.190729
v -0.382167 -0.387234 0.161146
v -0.260372 -0.407743 0.182832
v -0.480257 -0.334671 0.215550
v -0.478718 -0.317581 0.190729
v -0.382167 -0.387234 0.161146
v -0.382266 -0.389204 0.213690
v -0.260372 -0.407743 0.182832
v -0.262388 -0.408552 0.213190
v -0.243854 -0.394522 0.213751
v -0.262388 -0.408552 0.213190
v -0.260372 -0.407743 0.182832
v -0.252341 -0.402503 0.179108
v -0.252470 -0.405074 0.247667
v -0.260479 -0.409862 0.239313
v -0.241219 -0.384664 0.214126
v -0.241182 -0.383914 0.194146
v -0.241257 -0.385413 0.234106
v -0.476436 -0.292138 0.169391
v -0.478718 -0.317581 0.190729
v -0.480257 -0.334671 0.215550
v -0.475658 -0.307313 0.216585
v -0.478862 -0.318696 0.252240
v -0.474845 -0.298792 0.274525
v -0.457374 -0.256737 0.184933
v -0.456699 -0.249577 0.218786
v -0.457722 -0.261939 0.261158
v -0.474845 -0.298792 -0.154112
v -0.478862 -0.318696 -0.176397
v -0.382362 -0.391131 -0.163559
v -0.359968 -0.370166 -0.151247
v -0.359968 -0.370166 -0.151247
v -0.382362 -0.391131 -0.163559
v -0.260479 -0.409862 -0.189324
v -0.252470 -0.405074 -0.180970
v -0.457722 -0.261940 -0.167479
v -0.361882 -0.334801 -0.163176
v -0.252470 -0.405074 -0.180970
v -0.241257 -0.385413 -0.194532
v -0.456699 -0.249577 -0.209851
v -0.457722 -0.261940 -0.167479
v -0.361882 -0.334801 -0.163176
v -0.361788 -0.332940 -0.212799
v -0.241257 -0.385413 -0.194532
v -0.241219 -0.384664 -0.214512
v -0.457374 -0.256737 -0.243704
v -0.361695 -0.331079 -0.262422
v -0.241182 -0.383915 -0.234491
v -0.476436 -0.292138 -0.259246
v -0.457374 -0.256737 -0.243704
v -0.361695 -0.331079 -0.262422
v -0.359731 -0.365451 -0.276958
v -0.241182 -0.383915 -0.234491
v -0.252341 -0.402503 -0.249529
v -0.478718 -0.317581 -0.237908
v -0.382167 -0.387234 -0.267491
v -0.260372 -0.407743 -0.245805
v -0.480257 -0.334671 -0.213087
v -0.478718 -0.317581 -0.237908
v -0.382167 -0.387234 -0.267491
v -0.382266 -0.389204 -0.214948
v -0.382266 -0.389204 -0.214948
v -0.382167 -0.387234 -0.267491
v -0.260372 -0.407743 -0.245805
v -0.262388 -0.408552 -0.215447
v -0.478862 -0.318696 -0.176397
v -0.382362 -0.391131 -0.163559
v -0.243854 -0.394522 -0.214886
v -0.262388 -0.408552 -0.215447
v -0.260372 -0.407743 -0.245805
v -0.252341 -0.402503 -0.249529
v -0.252470 -0.405074 -0.180970
v -0.260479 -0.409862 -0.189324
v -0.241219 -0.384664 -0.214512
v -0.241182 -0.383915 -0.234491
v -0.241257 -0.385413 -0.194532
v -0.476436 -0.292138 -0.259246
v -0.475658 -0.307313 -0.212052
v -0.474845 -0.298792 -0.154112
v -0.457374 -0.256737 -0.243704
v -0.456699 -0.249577 -0.209851
v -0.457722 -0.261940 -0.167479
v 0.449016 -0.268880 -0.172050
v 0.446824 -0.289058 -0.194342
v 0.549233 -0.352798 -0.181167
v 0.569672 -0.329958 -0.168788
v 0.569672 -0.329958 -0.168788
v 0.549233 -0.352798 -0.181167
v 0.672369 -0.360824 -0.206528
v 0.679903 -0.355356 -0.198149
v 0.462902 -0.230674 -0.185373
v 0.564719 -0.294896 -0.180733
v 0.679903 -0.355356 -0.198149
v 0.689402 -0.334792 -0.211680
v 0.462982 -0.218270 -0.227745
v 0.462902 -0.230674 -0.185373
v 0.564719 -0.294896 -0.180733
v 0.564813 -0.293035 -0.230357
v 0.689402 -0.334792 -0.211680
v 0.689440 -0.334042 -0.231660
v 0.463046 -0.225462 -0.261598
v 0.564906 -0.291174 -0.279980
v 0.689477 -0.333293 -0.251640
v 0.447196 -0.262392 -0.277191
v 0.463046 -0.225462 -0.261598
v 0.564906 -0.291174 -0.279980
v 0.569909 -0.325244 -0.294499
v 0.689477 -0.333293 -0.251640
v 0.680032 -0.352784 -0.266708
v 0.447072 -0.287936 -0.255853
v 0.549428 -0.348901 -0.285099
v 0.672476 -0.358706 -0.263009
v 0.446948 -0.305095 -0.231031
v 0.447072 -0.287936 -0.255853
v 0.549428 -0.348901 -0.285099
v 0.549329 -0.350871 -0.232555
v 0.672476 -0.358706 -0.263009
v 0.670438 -0.359687 -0.232658
v 0.446824 -0.289058 -0.194342
v 0.687676 -0.344093 -0.232040
v 0.670438 -0.359687 -0.232658
v 0.672476 -0.358706 -0.263009
v 0.680032 -0.352784 -0.266708
v 0.679903 -0.355356 -0.198149
v 0.672369 -0.360824 -0.206528
v 0.689440 -0.334042 -0.231660
v 0.689477 -0.333293 -0.251640
v 0.689402 -0.334792 -0.211680
v 0.447196 -0.262392 -0.277191
v 0.447072 -0.287936 -0.255853
v 0.446948 -0.305095 -0.231031
v 0.449140 -0.277440 -0.229990
v 0.446824 -0.289058 -0.194342
v 0.449016 -0.268880 -0.172050
v 0.463046 -0.225462 -0.261598
v 0.462982 -0.218270 -0.227745
v 0.462902 -0.230674 -0.185373
v 0.449016 -0.268880 0.291802
v 0.446824 -0.289058 0.269511
v 0.549233 -0.352798 0.282686
v 0.569672 -0.329958 0.295064
v 0.569672 -0.329958 0.295064
v 0.549233 -0.352798 0.282686
v 0.672369 -0.360824 0.257325
v 0.679903 -0.355356 0.265703
v 0.462902 -0.230674 0.278480
v 0.564719 -0.294896 0.283119
v 0.679903 -0.355356 0.265703
v 0.689402 -0.334792 0.252172
v 0.462982 -0.218270 0.236108
v 0.462902 -0.230674 0.278480
v 0.564719 -0.294896 0.283119
v 0.564813 -0.293034 0.233496
v 0.689402 -0.334792 0.252172
v 0.689440 -0.334042 0.232192
v 0.463046 -0.225462 0.202255
v 0.564906 -0.291174 0.183872
v 0.689477 -0.333293 0.212213
v 0.447196 -0.262392 0.186661
v 0.463046 -0.225462 0.202255
v 0.564906 -0.291174 0.183872
v 0.569909 -0.325244 0.169353
v 0.689477 -0.333293 0.212213
v 0.680032 -0.352784 0.197144
v 0.447072 -0.287936 0.208000
v 0.549428 -0.348901 0.178753
v 0.672476 -0.358706 0.200844
v 0.446948 -0.305095 0.232821
v 0.447072 -0.287936 0.208000
v 0.549428 -0.348901 0.178753
v 0.549329 -0.350871 0.231298
v 0.672476 -0.358706 0.200844
v 0.670438 -0.359687 0.231195
v 0.446824 -0.289058 0.269511
v 0.687676 -0.344093 0.231812
v 0.670438 -0.359687 0.231195
v 0.672476 -0.358706 0.200844
v 0.680032 -0.352784 0.197144
v 0.679903 -0.355356 0.265703
v 0.672369 -0.360824 0.257325
v 0.689440 -0.334042 0.232192
v 0.689477 -0.333293 0.212213
v 0.689402 -0.334792 0.252172
v 0.447196 -0.262392 0.186661
v 0.447072 -0.287936 0.208000
v 0.446948 -0.305095 0.232821
v 0.449140 -0.277440 0.233862
v 0.446824 -0.289058 0.269511
v 0.449016 -0.268880 0.291802
v 0.463046 -0.225462 0.202255
v 0.462982 -0.218270 0.236108
v 0.462902 -0.230674 0.278480
v 0.728317 0.105570 -0.135469
v 0.727084 0.089292 -0.122825
v 0.708622 0.081745 -0.122825
v 0.696340 0.092498 -0.135469
v 0.699391 0.077971 -0.105552
v 0.680351 0.085962 -0.105552
v 0.708622 0.081745 -0.088278
v 0.696340 0.092498 -0.075634
v 0.727084 0.089292 -0.088278
v 0.728317 0.105570 -0.075634
v 0.728317 0.105570 -0.075634
v 0.727084 0.089292 -0.088278
v 0.736315 0.093066 -0.105552
v 0.744306 0.112106 -0.105552
v 0.727084 0.089292 -0.122825
v 0.728317 0.105570 -0.135469
v 0.723243 0.125043 -0.140098
v 0.728317 0.105570 -0.135469
v 0.696340 0.092498 -0.135469
v 0.686319 0.109949 -0.140098
v 0.686319 0.109949 -0.140098
v 0.696340 0.092498 -0.135469
v 0.680351 0.085962 -0.105552
v 0.667857 0.102402 -0.105552
v 0.696340 0.092498 -0.075634
v 0.686319 0.109949 -0.071005
v 0.686319 0.109949 -0.071005
v 0.696340 0.092498 -0.075634
v 0.728317 0.105570 -0.075634
v 0.723243 0.125043 -0.071005
v 0.723243 0.125043 -0.071005
v 0.741705 0.132591 -0.105552
v 0.723243 0.125043 -0.140098
v 0.713223 0.142495 -0.135469
v 0.681245 0.129422 -0.135469
v 0.681245 0.129422 -0.135469
v 0.665257 0.122886 -0.105552
v 0.681245 0.129422 -0.075634
v 0.681245 0.129422 -0.075634
v 0.713223 0.142495 -0.075634
v 0.713223 0.142495 -0.075634
v 0.729211 0.149031 -0.105552
v 0.713223 0.142495 -0.135469
v 0.700940 0.153247 -0.122825
v 0.713223 0.142495 -0.135469
v 0.681245 0.129422 -0.135469
v 0.682478 0.145700 -0.122825
v 0.682478 0.145700 -0.122825
v 0.673247 0.141926 -0.105552
v 0.682478 0.145700 -0.088278
v 0.682478 0.145700 -0.088278
v 0.681245 0.129422 -0.075634
v 0.713223 0.142495 -0.075634
v 0.700940 0.153247 -0.088278
v 0.729211 0.149031 -0.105552
v 0.710171 0.157021 -0.105552
v 0.719876 0.080572 -0.105552
v 0.719876 0.080572 -0.105552
v 0.689687 0.154421 -0.105552
v 0.689687 0.154421 -0.105552
v 0.728460 0.105570 0.075635
v 0.727228 0.089292 0.088280
v 0.708766 0.081745 0.088280
v 0.696483 0.092498 0.075635
v 0.699535 0.077971 0.105553
v 0.680494 0.085962 0.105553
v 0.708766 0.081745 0.122826
v 0.696483 0.092498 0.135471
v 0.727228 0.089292 0.122826
v 0.728460 0.105570 0.135471
v 0.728460 0.105570 0.135471
v 0.727228 0.089292 0.122826
v 0.736459 0.093066 0.105553
v 0.744449 0.112106 0.105553
v 0.727228 0.089292 0.088280
v 0.728460 0.105570 0.075635
v 0.723387 0.125043 0.071007
v 0.728460 0.105570 0.075635
v 0.696483 0.092498 0.075635
v 0.686462 0.109949 0.071007
v 0.686462 0.109949 0.071007
v 0.696483 0.092498 0.075635
v 0.680494 0.085962 0.105553
v 0.668000 0.102402 0.105553
v 0.696483 0.092498 0.135471
v 0.686462 0.109949 0.140099
v 0.686462 0.109949 0.140099
v 0.696483 0.092498 0.135471
v 0.728460 0.105570 0.135471
v 0.723387 0.125043 0.140099
v 0.723387 0.125043 0.140099
v 0.741849 0.132591 0.105553
v 0.723387 0.125043 0.071007
v 0.713366 0.142495 0.075635
v 0.681389 0.129422 0.075635
v 0.681389 0.129422 0.075635
v 0.665400 0.122886 0.105553
v 0.681389 0.129422 0.135471
v 0.681389 0.129422 0.135471
v 0.713366 0.142495 0.135471
v 0.713366 0.142495 0.135471
v 0.729355 0.149031 0.105553
v 0.713366 0.142495 0.075635
v 0.701083 0.153247 0.088280
v 0.713366 0.142495 0.075635
v 0.681389 0.129422 0.075635
v 0.682621 0.145700 0.088280
v 0.682621 0.145700 0.088280
v 0.673390 0.141926 0.105553
v 0.682621 0.145700 0.122826
v 0.682621 0.145700 0.122826
v 0.681389 0.129422 0.135471
v 0.713366 0.142495 0.135471
v 0.701083 0.153247 0.122826
v 0.729355 0.149031 0.105553
v 0.710315 0.157021 0.105553
v 0.720019 0.080572 0.105553
v 0.720019 0.080572 0.105553
v 0.689830 0.154421 0.105553
v 0.689830 0.154421 0.105553
vn -0.6898 0.6815 -0.2444
vn -0.6898 0.6814 -0.2444
vn -0.6898 0.6814 -0.2445
vn -0.5019 0.2812 0.8179
vn -0.5020 0.2812 0.8179
vn -0.5332 0.3973 0.7469
vn -0.5333 0.3973 0.7468
vn -0.5333 0.3973 0.7469
vn -0.6533 -0.0165 0.7569
vn -0.6533 -0.0166 0.7569
vn -0.6532 -0.0166 0.7570
vn -0.6533 -0.0167 0.7570
vn -0.3662 -0.7505 0.5501
vn -0.3663 -0.7505 0.5501
vn -0.5173 0.7370 0.4350
vn -0.5173 0.7370 0.4349
vn -0.0285 0.8279 0.5601
vn -0.0286 0.8279 0.5601
vn -0.2226 0.0712 0.9723
vn -0.2227 0.0712 0.9723
vn 0.1749 0.5405 0.8229
vn 0.1750 0.5405 0.8230
vn 0.1750 0.5405 0.8229
vn 0.1076 -0.6909 0.7149
vn -0.4668 0.8743 -0.1331
vn -0.4668 0.8743 -0.1332
vn -0.4669 0.8743 -0.1331
vn -0.3837 0.3078 0.8706
vn -0.3837 0.3077 0.8707
vn -0.3837 0.3078 0.8707
vn -0.3966 0.7086 0.5836
vn -0.3966 0.7087 0.5835
vn -0.2683 0.0798 0.9600
vn -0.2683 0.0797 0.9600
vn -0.1268 -0.7008 0.7020
vn -0.1267 -0.7008 0.7020
vn 0.5438 0.7386 -0.3984
vn 0.5438 0.7387 -0.3984
vn 0.7415 0.2978 0.6012
vn 0.6972 0.3350 0.6338
vn 0.4974 -0.0690 0.8648
vn 0.4975 -0.0690 0.8647
vn 0.4975 -0.0691 0.8647
vn 0.1027 -0.6389 0.7624
vn -0.8334 -0.5214 0.1833
vn -0.8473 -0.5130 0.1377
vn -0.8400 -0.5200 0.1551
vn -0.6091 0.3739 -0.6994
vn -0.6340 -0.7516 0.1822
vn 0.9540 -0.0000 -0.2998
vn 0.8866 -0.3722 0.2746
vn 0.9998 0.0177 -0.0130
vn 0.9791 -0.2034 0.0084
vn 0.7802 -0.6108 -0.1348
vn -0.1795 0.9660 -0.1859
vn 0.3292 0.8789 0.3451
vn 0.3125 -0.1019 0.9445
vn 0.3125 -0.1019 0.9444
vn -0.5458 0.4269 0.7210
vn -0.5459 0.4269 0.7210
vn -0.1446 -0.7305 0.6674
vn 0.7072 0.5730 0.4142
vn 0.7072 0.5729 0.4142
vn 0.5515 0.7841 0.2846
vn 0.5516 0.7841 0.2846
vn 0.4420 0.0858 0.8929
vn 0.0796 0.2890 0.9540
vn 0.0013 -0.6780 0.7351
vn 0.0014 -0.6780 0.7351
vn -0.1525 -0.7396 0.6555
vn -0.1524 -0.7397 0.6555
vn 0.1549 -0.1603 0.9748
vn 0.1550 -0.1602 0.9748
vn 0.1549 -0.1602 0.9749
vn 0.1549 -0.1602 0.9748
vn -0.7290 0.1052 0.6764
vn -0.7290 0.1051 0.6764
vn -0.7845 0.3154 0.5339
vn -0.7846 0.3154 0.5338
vn -0.7846 0.3154 0.5339
vn -0.0822 0.9139 -0.3975
vn -0.0821 0.9139 -0.3975
vn -0.8154 0.5705 -0.0982
vn -0.8154 0.5705 -0.0981
vn -0.6221 0.5078 -0.5959
vn -0.6222 0.5077 -0.5959
vn -0.6221 0.5077 -0.5960
vn -0.6221 0.5078 -0.5960
vn -0.4749 0.4196 -0.7736
vn -0.4749 0.4197 -0.7735
vn -0.4750 0.4197 -0.7735
vn -0.5638 -0.0931 -0.8207
vn -0.5638 -0.0932 -0.8207
vn -0.5637 -0.0932 -0.8207
vn -0.3168 -0.8309 -0.4575
vn -0.3169 -0.8308 -0.4575
vn -0.5633 0.6890 -0.4560
vn -0.5634 0.6890 -0.4560
vn -0.5634 0.6890 -0.4559
vn 0.2959 0.9550 -0.0225
vn 0.2960 0.9549 -0.0225
vn 0.0776 -0.2594 -0.9627
vn 0.0776 -0.2595 -0.9626
vn -0.5154 0.2219 -0.8277
vn -0.5155 0.2219 -0.8277
vn -0.0021 -0.7710 -0.6368
vn -0.0020 -0.7710 -0.6368
vn -0.0300 0.9410 0.3372
vn -0.0300 0.9409 0.3372
vn -0.1022 0.5023 -0.8586
vn -0.1022 0.5023 -0.8587
vn 0.5282 -0.2475 -0.8123
vn 0.4159 0.1014 -0.9037
vn 0.4159 0.1014 -0.9038
vn 0.4158 0.1014 -0.9038
vn -0.2350 -0.7985 -0.5542
vn -0.2349 -0.7985 -0.5542
vn -0.2349 -0.7986 -0.5542
vn 0.5549 0.8157 0.1635
vn 0.5549 0.8157 0.1634
vn 0.7367 0.4573 -0.4981
vn 0.5159 0.0324 -0.8560
vn 0.5159 0.0325 -0.8560
vn 0.4542 0.2884 -0.8429
vn -0.0172 -0.8784 -0.4776
vn -0.8465 -0.5320 -0.0192
vn -0.7747 -0.5696 -0.2747
vn -0.9007 -0.4120 0.1380
vn -0.7788 -0.6196 -0.0979
vn -0.6893 -0.7015 -0.1809
vn 0.9661 -0.0000 -0.2582
vn 0.9139 0.3407 0.2208
vn 0.9808 0.1635 0.1060
vn 0.9895 -0.1206 0.0793
vn 0.4594 -0.7859 0.4140
vn 0.2706 0.9547 -0.1240
vn 0.2707 0.9546 -0.1241
vn -0.5133 0.8305 -0.2163
vn -0.5133 0.8305 -0.2162
vn -0.2557 -0.2469 -0.9347
vn -0.2557 -0.2468 -0.9347
vn 0.4031 0.3497 -0.8457
vn 0.0590 -0.8445 -0.5323
vn 0.0589 -0.8445 -0.5323
vn 0.5983 0.7243 -0.3426
vn 0.5983 0.7243 -0.3427
vn 0.5982 0.7244 -0.3427
vn 0.0678 0.7891 -0.6105
vn 0.0678 0.7892 -0.6104
vn 0.0679 0.7891 -0.6105
vn -0.1057 0.5494 -0.8288
vn -0.1057 0.5494 -0.8289
vn -0.1057 0.5495 -0.8288
vn -0.3167 0.0506 -0.9472
vn -0.3166 0.0505 -0.9472
vn 0.0376 -0.7696 -0.6374
vn 0.0375 -0.7696 -0.6374
vn -0.2966 -0.8409 -0.4526
vn -0.2967 -0.8409 -0.4526
vn -0.3404 0.1500 -0.9282
vn -0.3404 0.1501 -0.9282
vn -0.3403 0.1500 -0.9283
vn -0.3605 0.4950 -0.7906
vn -0.3606 0.4950 -0.7905
vn -0.4179 0.4535 -0.7872
vn -0.4178 0.4535 -0.7872
vn -0.4179 0.4536 -0.7872
vn 0.0023 0.8934 0.4493
vn 0.0023 0.8934 0.4492
vn -0.5061 -0.7087 0.4915
vn -0.5062 -0.7087 0.4915
vn -0.5062 -0.7087 0.4914
vn -0.6412 -0.0045 0.7673
vn -0.6413 -0.0045 0.7673
vn -0.5323 -0.0012 0.8466
vn -0.5322 -0.0013 0.8466
vn -0.5329 -0.0023 0.8462
vn -0.8902 0.3852 0.2432
vn -0.8894 0.3872 0.2432
vn -0.8902 0.3851 0.2433
vn -0.8902 0.3852 0.2433
vn -0.9291 0.2814 0.2400
vn -0.7349 0.4138 -0.5373
vn -0.7350 0.4138 -0.5373
vn -0.6146 0.7330 0.2917
vn -0.6145 0.7329 0.2918
vn -0.6255 0.1058 -0.7730
vn -0.6286 -0.1897 -0.7542
vn -0.6287 -0.1897 -0.7542
vn -0.4091 -0.7667 -0.4948
vn -0.4091 -0.7667 -0.4949
vn -0.4092 -0.7666 -0.4948
vn -0.0133 -0.4075 0.9131
vn 0.3081 -0.1326 0.9421
vn 0.3081 -0.1327 0.9421
vn 0.3081 -0.1327 0.9420
vn -0.0670 0.0611 0.9959
vn 0.6380 -0.1579 0.7537
vn 0.1613 0.8911 0.4242
vn 0.8977 0.2293 0.3763
vn 0.1164 0.7212 -0.6829
vn 0.1165 0.7212 -0.6829
vn 0.1165 0.7211 -0.6829
vn 0.8320 0.1006 -0.5455
vn 0.0133 0.4075 -0.9131
vn 0.8953 0.2164 -0.3895
vn 0.8953 0.2163 -0.3895
vn 0.0017 -0.9132 -0.4075
vn -0.9572 -0.2588 -0.1294
vn 0.9922 -0.1182 -0.0387
vn 0.9922 -0.1183 -0.0387
vn 0.9847 -0.1642 -0.0589
vn -0.9999 0.0038 -0.0128
vn -0.8831 0.4542 0.1172
vn -0.8832 0.4542 0.1172
vn 0.9559 0.2624 0.1319
vn 0.9559 0.2623 0.1319
vn -0.4876 -0.5021 0.7142
vn -0.4875 -0.5021 0.7143
vn -0.1341 -0.9013 -0.4120
vn -0.1341 -0.9013 -0.4119
vn 0.0141 -0.0012 -0.9999
vn -0.0082 -0.4075 0.9132
vn -0.0132 -0.4075 0.9131
vn 0.3082 -0.1325 0.9421
vn -0.0671 0.0611 0.9959
vn -0.0669 0.0611 0.9959
vn 0.1613 0.8911 0.4243
vn 0.1612 0.8911 0.4243
vn 0.1614 0.8911 0.4243
vn 0.8977 0.2293 0.3762
vn 0.8320 0.1006 -0.5456
vn 0.0082 0.4075 -0.9132
vn 0.0132 0.4075 -0.9131
vn 0.8953 0.2163 -0.3894
vn 0.0106 -0.9132 -0.4075
vn 0.0018 -0.9132 -0.4075
vn -0.8831 0.4543 0.1172
vn -0.4876 -0.5022 0.7142
vn 0.0141 -0.0011 -0.9999
vn 0.0142 -0.0011 -0.9999
vn -0.6512 0.7007 0.2914
vn -0.4654 0.2303 0.8546
vn -0.4652 0.2301 0.8548
vn -0.4584 -0.4026 0.7924
vn -0.4583 -0.4026 0.7924
vn -0.4387 -0.8810 0.1770
vn -0.2776 0.8550 0.4381
vn -0.2775 0.8550 0.4381
vn -0.3306 0.2605 0.9071
vn -0.3306 0.2604 0.9071
vn -0.2621 -0.4604 0.8481
vn -0.2621 -0.4605 0.8481
vn 0.0575 -0.9929 0.1044
vn 0.0928 0.9148 0.3932
vn 0.0928 0.9147 0.3932
vn 0.0929 0.9147 0.3933
vn -0.1218 0.3446 0.9308
vn -0.1219 0.3446 0.9308
vn -0.0061 -0.5461 0.8377
vn -0.0061 -0.5462 0.8377
vn 0.0308 -0.9832 0.1800
vn 0.0307 -0.9832 0.1801
vn 0.0307 -0.9832 0.1802
vn 0.1762 0.9116 0.3714
vn 0.2524 0.3415 0.9054
vn 0.0438 -0.7241 0.6883
vn 0.0437 -0.7240 0.6884
vn 0.0437 -0.7241 0.6883
vn -0.0147 -0.9706 0.2404
vn -0.0147 -0.9706 0.2405
vn 0.7836 0.5598 0.2695
vn 0.6868 0.2579 0.6796
vn 0.5512 -0.6209 0.5573
vn 0.5512 -0.6210 0.5573
vn 0.5512 -0.6209 0.5574
vn 0.3489 -0.9039 0.2476
vn 0.3489 -0.9039 0.2477
vn 0.4865 0.7109 0.5079
vn 0.5586 0.4054 0.7236
vn 0.5586 0.4055 0.7236
vn 0.3604 -0.4772 0.8015
vn 0.3604 -0.4771 0.8015
vn 0.2470 -0.8884 0.3870
vn 0.2471 -0.8884 0.3868
vn 0.2471 -0.8884 0.3869
vn -0.8045 0.5879 0.0846
vn -0.8511 0.1366 0.5069
vn -0.8855 -0.2357 0.4003
vn -0.8655 -0.4860 0.1211
vn 0.5202 0.6477 0.5566
vn 0.5202 0.6478 0.5566
vn 0.5204 0.3315 0.7869
vn 0.5204 0.3316 0.7869
vn 0.5659 -0.5139 0.6447
vn 0.5659 -0.5140 0.6447
vn 0.4685 -0.8290 0.3055
vn 0.4685 -0.8290 0.3056
vn -0.6512 0.7007 -0.2914
vn -0.4651 0.2300 -0.8549
vn -0.4652 0.2301 -0.8548
vn -0.4583 -0.4026 -0.7924
vn -0.4584 -0.4026 -0.7924
vn -0.4387 -0.8810 -0.1770
vn -0.2775 0.8550 -0.4381
vn -0.2776 0.8550 -0.4381
vn -0.3306 0.2604 -0.9071
vn -0.2621 -0.4604 -0.8481
vn -0.2621 -0.4605 -0.8481
vn 0.0575 -0.9929 -0.1044
vn 0.0928 0.9147 -0.3932
vn -0.1219 0.3446 -0.9308
vn -0.0061 -0.5461 -0.8377
vn -0.0061 -0.5462 -0.8377
vn 0.0307 -0.9832 -0.1802
vn 0.0307 -0.9832 -0.1801
vn 0.0308 -0.9832 -0.1800
vn 0.0306 -0.9832 -0.1802
vn 0.1762 0.9116 -0.3714
vn 0.2524 0.3415 -0.9054
vn 0.0438 -0.7241 -0.6883
vn 0.0437 -0.7240 -0.6884
vn -0.0147 -0.9706 -0.2404
vn 0.7836 0.5598 -0.2695
vn 0.6868 0.2579 -0.6796
vn 0.5512 -0.6209 -0.5573
vn 0.5512 -0.6210 -0.5573
vn 0.5512 -0.6209 -0.5574
vn 0.5511 -0.6209 -0.5574
vn 0.3489 -0.9039 -0.2476
vn 0.3489 -0.9039 -0.2477
vn 0.4865 0.7109 -0.5079
vn 0.5586 0.4055 -0.7236
vn 0.5586 0.4054 -0.7236
vn 0.3604 -0.4771 -0.8015
vn 0.3604 -0.4772 -0.8015
vn 0.2471 -0.8884 -0.3868
vn 0.2471 -0.8884 -0.3869
vn -0.8045 0.5879 -0.0846
vn -0.8511 0.1366 -0.5069
vn -0.8855 -0.2357 -0.4003
vn -0.8655 -0.4860 -0.1211
vn 0.5202 0.6477 -0.5566
vn 0.5202 0.6478 -0.5566
vn 0.5204 0.3315 -0.7869
vn 0.5659 -0.5139 -0.6447
vn 0.5659 -0.5140 -0.6447
vn 0.4685 -0.8290 -0.3055
vn 0.4685 -0.8290 -0.3056
vn 0.9827 0.1561 0.0997
vn 0.9952 0.0192 0.0964
vn 0.9846 -0.0847 0.1527
vn 0.9846 -0.0848 0.1528
vn 0.9846 -0.0847 0.1528
vn 0.9286 -0.3424 0.1434
vn 0.9285 -0.3424 0.1435
vn 0.9827 0.1561 -0.0997
vn 0.9827 0.1560 -0.0996
vn 0.9952 0.0192 -0.0964
vn 0.9846 -0.0847 -0.1528
vn 0.9846 -0.0848 -0.1528
vn 0.9846 -0.0847 -0.1527
vn 0.9285 -0.3424 -0.1434
vn 0.9059 0.3750 0.1969
vn 0.8749 0.1087 0.4720
vn 0.8623 -0.1900 0.4693
vn 0.8530 -0.4687 0.2297
vn 0.9059 0.3750 -0.1969
vn 0.8749 0.1087 -0.4720
vn 0.8623 -0.1900 -0.4693
vn 0.8530 -0.4687 -0.2297
vn 0.6489 0.6902 0.3203
vn 0.5288 0.2045 0.8238
vn 0.5142 -0.3453 0.7851
vn 0.5943 -0.7243 0.3496
vn 0.6489 0.6902 -0.3203
vn 0.6488 0.6902 -0.3203
vn 0.5288 0.2045 -0.8238
vn 0.5288 0.2045 -0.8237
vn 0.5142 -0.3453 -0.7851
vn 0.5141 -0.3454 -0.7851
vn 0.5943 -0.7243 -0.3496
vn -0.3674 -0.4511 0.8133
vn -0.3673 -0.4511 0.8134
vn 0.0323 -0.6485 0.7606
vn 0.0324 -0.6484 0.7606
vn 0.0323 -0.6485 0.7605
vn 0.1691 0.2939 0.9408
vn 0.1692 0.2939 0.9408
vn 0.1692 0.2939 0.9407
vn 0.3604 0.3413 0.8681
vn 0.3604 0.3412 0.8682
vn 0.6280 0.7679 0.1264
vn 0.6280 0.7679 0.1263
vn 0.3944 0.9183 0.0352
vn 0.6330 0.7723 -0.0534
vn 0.6330 0.7723 -0.0535
vn 0.1010 0.3729 -0.9224
vn 0.3636 0.4052 -0.8388
vn 0.3636 0.4053 -0.8388
vn -0.4130 -0.3360 -0.8465
vn 0.0620 -0.4934 -0.8676
vn 0.0620 -0.4935 -0.8676
vn -0.5500 -0.8082 -0.2108
vn -0.5500 -0.8081 -0.2108
vn -0.5499 -0.8082 -0.2107
vn -0.1594 -0.9865 -0.0373
vn -0.1595 -0.9865 -0.0373
vn -0.1594 -0.9865 -0.0370
vn -0.5468 -0.8255 0.1398
vn -0.5468 -0.8255 0.1397
vn -0.1594 -0.9865 -0.0374
vn -0.1596 -0.9865 -0.0378
vn 0.5893 -0.8073 0.0304
vn 0.5893 -0.8074 0.0304
vn 0.5961 -0.7977 -0.0910
vn 0.9143 -0.3950 -0.0891
vn 0.9143 -0.3951 -0.0891
vn 0.9140 -0.4008 0.0627
vn 0.9140 -0.4007 0.0627
vn -0.9870 0.1506 0.0570
vn -0.9870 0.1505 0.0570
vn -0.9810 0.1921 -0.0268
vn -0.9280 0.3687 0.0531
vn -0.9338 0.3576 0.0117
vn -0.9338 0.3576 0.0118
vn -0.3293 -0.4815 0.8123
vn -0.3292 -0.4814 0.8123
vn 0.0863 -0.6432 0.7609
vn 0.0863 -0.6431 0.7609
vn 0.0863 -0.6432 0.7608
vn 0.1398 0.3075 0.9412
vn 0.1398 0.3076 0.9412
vn 0.3264 0.3714 0.8692
vn 0.5582 0.8198 0.1282
vn 0.5582 0.8197 0.1282
vn 0.3127 0.9492 0.0362
vn 0.5634 0.8246 -0.0516
vn 0.0711 0.3802 -0.9222
vn 0.3296 0.4354 -0.8377
vn -0.3793 -0.3708 -0.8477
vn -0.3793 -0.3707 -0.8477
vn 0.1077 -0.4861 -0.8672
vn -0.4767 -0.8531 -0.2123
vn -0.4767 -0.8530 -0.2123
vn -0.4766 -0.8531 -0.2123
vn -0.0726 -0.9967 -0.0375
vn -0.0727 -0.9966 -0.0375
vn -0.0726 -0.9967 -0.0372
vn -0.0727 -0.9967 -0.0375
vn -0.4731 -0.8701 0.1382
vn -0.4732 -0.8701 0.1382
vn -0.4732 -0.8701 0.1381
vn -0.0726 -0.9967 -0.0376
vn -0.0728 -0.9966 -0.0380
vn 0.6574 -0.7529 0.0326
vn 0.6574 -0.7528 0.0326
vn 0.6637 -0.7427 -0.0888
vn 0.9456 -0.3138 -0.0860
vn 0.9453 -0.3195 0.0658
vn 0.9453 -0.3194 0.0658
vn -0.9965 0.0638 0.0537
vn -0.9965 0.0639 0.0537
vn -0.9939 0.1058 -0.0301
vn -0.9939 0.1057 -0.0301
vn -0.9568 0.2864 0.0500
vn -0.9568 0.2864 0.0499
vn -0.9568 0.2863 0.0499
vn -0.9615 0.2748 0.0086
vn 0.6638 -0.7427 -0.0888
vn 0.2477 -0.6060 -0.7559
vn -0.3583 -0.8537 -0.3780
vn -0.3583 -0.8537 0.3780
vn 0.2477 -0.6060 0.7559
vn 0.8537 -0.3583 0.3780
vn 0.8537 -0.3583 -0.3780
vn 0.0855 -0.2092 -0.9741
vn -0.6953 -0.5285 -0.4871
vn -0.6954 -0.5285 -0.4871
vn -0.6953 -0.5285 0.4871
vn -0.6953 -0.5284 0.4871
vn 0.0855 -0.2092 0.9741
vn 0.8664 0.1100 0.4871
vn 0.8664 0.1100 -0.4871
vn -0.0855 0.2092 -0.9741
vn -0.8664 -0.1100 -0.4871
vn -0.8664 -0.1100 0.4871
vn -0.0855 0.2092 0.9741
vn 0.6953 0.5285 0.4871
vn 0.6953 0.5285 -0.4871
vn 0.6954 0.5285 -0.4871
vn -0.2477 0.6060 -0.7559
vn -0.8537 0.3583 -0.3780
vn -0.8537 0.3582 -0.3780
vn -0.8537 0.3583 -0.3779
vn -0.8537 0.3583 0.3780
vn -0.8537 0.3582 0.3780
vn -0.2477 0.6060 0.7559
vn 0.3583 0.8537 0.3780
vn 0.3583 0.8537 -0.3780
vn 0.3615 -0.8843 -0.2956
vn 0.1246 -0.9811 -0.1478
vn 0.1246 -0.9811 0.1478
vn 0.3615 -0.8843 0.2956
vn 0.5984 -0.7874 0.1478
vn 0.5984 -0.7874 -0.1478
vn -0.3615 0.8843 -0.2956
vn -0.5984 0.7874 -0.1478
vn -0.5984 0.7874 0.1478
vn -0.3615 0.8843 0.2956
vn -0.1246 0.9811 0.1478
vn -0.1246 0.9811 -0.1478
vn 0.8537 -0.3582 0.3780
vn 0.6954 0.5284 0.4871
vn 0.6954 0.5284 -0.4871
vn 0.3582 0.8537 -0.3780
vn 0.1245 -0.9811 -0.1478
vn 0.1245 -0.9811 0.1478
vn -0.1245 0.9811 0.1478
vn -0.1245 0.9811 -0.1478
vt 0.196270 0.651590
vt 0.160300 0.651590
vt 0.143210 0.609580
vt 0.264570 0.578250
vt 0.137080 0.566710
vt 0.165910 0.548070
vt 0.093050 0.578340
vt 0.097390 0.489250
vt 0.039690 0.570070
vt 0.039690 0.506600
vt 0.305270 0.375810
vt 0.305270 0.458290
vt 0.275800 0.417060
vt 0.274170 0.377520
vt 0.421200 0.533480
vt 0.374400 0.533480
vt 0.374400 0.493870
vt 0.421200 0.457820
vt 0.389390 0.407380
vt 0.446620 0.397130
vt 0.438330 0.220310
vt 0.434020 0.275630
vt 0.375260 0.290120
vt 0.397120 0.244880
vt 0.338250 0.298720
vt 0.316500 0.244880
vt 0.272250 0.261360
vt 0.283930 0.211560
vt 0.511720 0.533480
vt 0.467490 0.533480
vt 0.467490 0.457820
vt 0.548830 0.437930
vt 0.521760 0.121510
vt 0.445430 0.200140
vt 0.416920 0.186440
vt 0.431880 0.121380
vt 0.375260 0.200140
vt 0.394700 0.134530
vt 0.321540 0.200140
vt 0.305270 0.157380
vt 0.279840 0.183860
vt 0.275930 0.157380
vt 0.639040 0.293100
vt 0.663130 0.293100
vt 0.730250 0.389020
vt 0.610460 0.339300
vt 0.636920 0.410080
vt 0.608330 0.383290
vt 0.598310 0.462430
vt 0.551540 0.395090
vt 0.349670 0.068760
vt 0.301280 0.079030
vt 0.282520 0.094680
vt 0.071080 0.628450
vt 0.075430 0.652420
vt 0.005230 0.651590
vt 0.080840 0.604710
vt 0.070630 0.591100
vt 0.041160 0.606570
vt 0.000000 0.602270
vt 0.541780 0.293100
vt 0.501300 0.421540
vt 0.481820 0.415780
vt 0.330670 0.533480
vt 0.309850 0.457820
vt 0.310260 0.376240
vt 0.477760 0.352120
vt 0.375260 0.332390
vt 0.305270 0.332390
vt 0.261340 0.332390
vt 0.481660 0.429200
vt 0.356900 0.375810
vt 0.117920 0.501450
vt 0.232460 0.481720
vt 0.237170 0.569850
vt 0.254810 0.533480
vt 0.261410 0.465590
vt 0.148830 0.692510
vt 0.262540 0.697230
vt 0.137080 0.736470
vt 0.165910 0.755110
vt 0.753390 0.648560
vt 0.700640 0.672230
vt 0.675510 0.582190
vt 0.735230 0.592820
vt 0.039690 0.757290
vt 0.076550 0.756840
vt 0.097390 0.813930
vt 0.039690 0.796580
vt 0.886510 0.346140
vt 0.857120 0.364050
vt 0.822830 0.300410
vt 0.868130 0.300410
vt 0.374400 0.620170
vt 0.421200 0.609150
vt 0.371780 0.712460
vt 0.446620 0.669830
vt 0.717340 0.509350
vt 0.614800 0.511820
vt 0.655910 0.441350
vt 0.696050 0.465290
vt 0.785520 0.509350
vt 0.774580 0.465290
vt 0.841420 0.201130
vt 0.809760 0.216830
vt 0.789060 0.172720
vt 0.834710 0.140210
vt 0.467490 0.609150
vt 0.527550 0.634870
vt 0.505170 0.697230
vt 0.548960 0.669830
vt 0.578120 0.110160
vt 0.598860 0.128740
vt 0.601430 0.156240
vt 0.558320 0.145360
vt 0.767050 0.421700
vt 0.717340 0.421700
vt 0.735920 0.380050
vt 0.785520 0.380050
vt 0.835750 0.113190
vt 0.787920 0.129070
vt 0.789060 0.087360
vt 0.838110 0.087360
vt 0.710440 0.191340
vt 0.624450 0.232540
vt 0.601000 0.201740
vt 0.551540 0.192170
vt 0.742270 0.286100
vt 0.812250 0.292790
vt 0.831540 0.000000
vt 0.853230 0.035210
vt 0.077360 0.674800
vt 0.090220 0.698080
vt 0.061520 0.719830
vt 0.041160 0.709970
vt 0.004960 0.701970
vt 0.476950 0.167650
vt 0.949370 0.002020
vt 0.330670 0.609150
vt 0.332200 0.660330
vt 0.717340 0.550530
vt 0.668140 0.549090
vt 0.785520 0.550530
vt 0.861030 0.258780
vt 0.784020 0.258060
vt 0.421200 0.685230
vt 0.467490 0.715740
vt 0.785520 0.592820
vt 0.591280 0.615740
vt 0.613390 0.550530
vt 0.261410 0.575730
vt 0.006760 0.582220
vt 0.905400 0.365660
vt 0.898420 0.395970
vt 0.261340 0.049740
vt 0.261350 0.042790
vt 0.268200 0.042770
vt 0.268180 0.049710
vt 0.270790 0.033220
vt 0.272220 0.045410
vt 0.272840 0.077900
vt 0.276160 0.076990
vt 0.418950 0.045940
vt 0.418140 0.017310
vt 0.422390 0.012800
vt 0.422160 0.041760
vt 0.108180 0.014580
vt 0.103860 0.000740
vt 0.107600 0.000000
vt 0.111920 0.013840
vt 0.431840 0.051350
vt 0.431590 0.045720
vt 0.091470 0.037730
vt 0.099180 0.037630
vt 0.454020 0.033320
vt 0.448620 0.024700
vt 0.042480 0.007130
vt 0.042470 0.000000
vt 0.049490 0.000030
vt 0.049500 0.007150
vt 0.457270 0.026030
vt 0.457350 0.016010
vt 0.855890 0.069370
vt 0.856400 0.034290
vt 0.863420 0.034380
vt 0.862910 0.069460
vt 0.973270 0.000000
vt 0.988560 0.034260
vt 0.978980 0.034340
vt 0.963690 0.000080
vt 0.421480 0.000000
vt 0.777630 0.028330
vt 0.777490 0.007760
vt 0.802320 0.018840
vt 0.786830 0.032440
vt 0.558540 0.022820
vt 0.555350 0.015680
vt 0.590490 0.000000
vt 0.593680 0.007140
vt 0.579680 0.041400
vt 0.592310 0.036100
vt 0.777620 0.000000
vt 0.802450 0.011270
vt 0.780760 0.031570
vt 0.783490 0.031410
vt 0.794600 0.052180
vt 0.784870 0.051520
vt 0.791010 0.063680
vt 0.784700 0.063370
vt 0.411720 0.000000
vt 0.416560 0.000900
vt 0.410440 0.027980
vt 0.408340 0.020320
vt 0.620680 0.047590
vt 0.620700 0.040650
vt 0.627530 0.040630
vt 0.627520 0.047560
vt 0.631990 0.040310
vt 0.631550 0.050710
vt 0.632170 0.075720
vt 0.635480 0.074800
vt 0.483380 0.043890
vt 0.447550 0.044900
vt 0.451680 0.039590
vt 0.478140 0.039880
vt 0.248650 0.014580
vt 0.244330 0.000740
vt 0.248070 0.000000
vt 0.252390 0.013840
vt 0.490150 0.027750
vt 0.483100 0.028070
vt 0.231940 0.037730
vt 0.239650 0.037630
vt 0.467580 0.000000
vt 0.466340 0.006750
vt 0.240910 0.075730
vt 0.231940 0.075750
vt 0.231970 0.066910
vt 0.240940 0.066890
vt 0.233200 0.061860
vt 0.241350 0.061120
vt 0.555350 0.076060
vt 0.555960 0.034350
vt 0.564310 0.034460
vt 0.563700 0.076170
vt 0.569760 0.034370
vt 0.569150 0.076080
vt 0.086310 0.035750
vt 0.075130 0.036690
vt 0.091510 0.000000
vt 0.098280 0.008930
vt 0.608480 0.051000
vt 0.588020 0.051140
vt 0.599040 0.026440
vt 0.612570 0.041850
vt 0.597740 0.022820
vt 0.594550 0.015680
vt 0.629690 0.000000
vt 0.632880 0.007140
vt 0.618880 0.041400
vt 0.631510 0.036100
vt 0.169870 0.000000
vt 0.173960 0.000240
vt 0.174660 0.048100
vt 0.170570 0.047860
vt 0.003270 0.056370
vt 0.006000 0.056210
vt 0.017110 0.076980
vt 0.007380 0.076330
vt 0.013520 0.088480
vt 0.007210 0.088180
vt 0.324160 0.000000
vt 0.329910 0.001080
vt 0.322630 0.024580
vt 0.320140 0.024160
vt 0.925880 0.200880
vt 0.925880 0.116300
vt 0.969630 0.110000
vt 0.999140 0.158520
vt 0.907390 0.664970
vt 0.863130 0.736310
vt 0.810670 0.736310
vt 0.809980 0.664970
vt 0.786660 0.736310
vt 0.754620 0.664970
vt 0.205210 0.394730
vt 0.177730 0.467540
vt 0.137000 0.467540
vt 0.137000 0.394730
vt 0.803240 0.928290
vt 0.803240 1.000000
vt 0.736820 1.000000
vt 0.717550 0.928290
vt 0.925280 0.592820
vt 0.812290 0.592820
vt 0.756370 0.592820
vt 0.224990 0.321100
vt 0.137000 0.321100
vt 0.803240 0.834240
vt 0.708890 0.834240
vt 0.914640 0.498200
vt 0.828990 0.498200
vt 0.274010 0.224530
vt 0.259910 0.321100
vt 0.233880 0.224530
vt 0.137000 0.224530
vt 0.803240 0.736310
vt 0.724210 0.736310
vt 0.901300 0.399680
vt 0.794900 0.399680
vt 0.251950 0.123980
vt 0.187410 0.123980
vt 0.137000 0.123980
vt 0.352620 0.815680
vt 0.439820 0.815680
vt 0.401140 0.908950
vt 0.323960 0.862270
vt 0.276330 0.947800
vt 0.295180 0.881710
vt 0.228670 0.873620
vt 0.258810 0.862270
vt 0.177540 0.065910
vt 0.137000 0.065910
vt 0.229830 0.044450
vt 0.182940 0.044450
vt 0.182940 0.000000
vt 0.229140 0.020540
vt 0.301580 0.840740
vt 0.276890 0.851260
vt 0.764320 0.000000
vt 0.780740 0.043470
vt 0.748090 0.043470
vt 0.751800 0.000000
vt 0.158810 0.023780
vt 0.137000 0.023780
vt 0.925880 0.072400
vt 0.985120 0.052490
vt 0.969630 0.026170
vt 0.925880 0.015270
vt 0.301160 0.815680
vt 0.323610 0.815680
vt 0.293050 0.826380
vt 0.281160 0.831260
vt 0.262940 0.840740
vt 0.269550 0.821410
vt 0.141990 0.000000
vt 0.137000 0.000000
vt 0.882140 0.110000
vt 0.852620 0.158520
vt 0.650350 0.952370
vt 0.597900 0.952370
vt 0.553640 0.881020
vt 0.651050 0.881020
vt 0.674360 0.952370
vt 0.706400 0.881020
vt 0.096280 0.467540
vt 0.068810 0.394730
vt 0.869660 1.000000
vt 0.888930 0.928290
vt 0.535750 0.808880
vt 0.648740 0.808880
vt 0.704660 0.808880
vt 0.049020 0.321100
vt 0.897590 0.834240
vt 0.546390 0.714260
vt 0.632040 0.714260
vt 0.014100 0.321100
vt 0.000000 0.224530
vt 0.040130 0.224530
vt 0.882270 0.736310
vt 0.559730 0.615740
vt 0.666120 0.615740
vt 0.022060 0.123980
vt 0.086600 0.123980
vt 0.401140 0.722410
vt 0.323960 0.769090
vt 0.276330 0.683560
vt 0.295180 0.749660
vt 0.228670 0.757740
vt 0.258810 0.769090
vt 0.096470 0.065910
vt 0.182940 0.088900
vt 0.229140 0.068360
vt 0.301580 0.790620
vt 0.276890 0.780100
vt 0.748070 0.043470
vt 0.715420 0.043470
vt 0.731840 0.000000
vt 0.744360 0.000000
vt 0.115200 0.023780
vt 0.866650 0.052490
vt 0.882140 0.026170
vt 0.293050 0.804990
vt 0.281160 0.800100
vt 0.262940 0.790620
vt 0.269550 0.809950
vt 0.132020 0.000000
vt 0.289230 0.815680
vt 0.287100 0.820380
vt 0.281220 0.821770
vt 0.277220 0.819860
vt 0.269160 0.815680
vt 0.275360 0.815680
vt 0.287100 0.810980
vt 0.281220 0.809590
vt 0.277220 0.811500
vt 0.286200 0.815680
vt 0.284860 0.818740
vt 0.281460 0.815680
vt 0.281520 0.819850
vt 0.278960 0.818680
vt 0.277770 0.815680
vt 0.284860 0.812620
vt 0.281520 0.811510
vt 0.278960 0.812690
vt 0.022750 0.064220
vt 0.015560 0.060750
vt 0.023100 0.033800
vt 0.030410 0.033480
vt 0.034410 0.006970
vt 0.037700 0.007000
vt 0.033300 0.067680
vt 0.036780 0.039030
vt 0.044510 0.007250
vt 0.044150 0.070500
vt 0.048270 0.040090
vt 0.049500 0.007640
vt 0.052940 0.070190
vt 0.059940 0.040970
vt 0.054460 0.008030
vt 0.063760 0.070170
vt 0.067740 0.036610
vt 0.060980 0.008570
vt 0.071920 0.068740
vt 0.075360 0.038460
vt 0.063450 0.009260
vt 0.007170 0.055640
vt 0.000000 0.056480
vt 0.001050 0.024200
vt 0.012480 0.029130
vt 0.021900 0.000000
vt 0.028330 0.004080
vt 0.386530 0.006600
vt 0.381340 0.008680
vt 0.378940 0.001730
vt 0.380720 0.000000
vt 0.386900 0.015380
vt 0.384030 0.014420
vt 0.388810 0.005690
vt 0.386970 0.001220
vt 0.390570 0.010180
vt 0.715420 0.048540
vt 0.721890 0.044290
vt 0.728890 0.043470
vt 0.727390 0.049140
vt 0.737090 0.048460
vt 0.740810 0.054450
vt 0.716490 0.058950
vt 0.723950 0.062950
vt 0.734810 0.062980
vt 0.298620 0.060390
vt 0.293470 0.061430
vt 0.274740 0.036480
vt 0.280170 0.030690
vt 0.320020 0.027070
vt 0.316920 0.032710
vt 0.310430 0.002020
vt 0.312530 0.000000
vt 0.308150 0.055960
vt 0.289310 0.031190
vt 0.271140 0.002900
vt 0.276220 0.000000
vt 0.646060 0.056830
vt 0.634890 0.057100
vt 0.633750 0.031830
vt 0.646840 0.031800
vt 0.642020 0.000020
vt 0.647290 0.000010
vt 0.654990 0.057010
vt 0.659920 0.031780
vt 0.652560 0.000000
vt 0.241130 0.061070
vt 0.231940 0.056120
vt 0.251240 0.031280
vt 0.260160 0.030770
vt 0.264950 0.000000
vt 0.269780 0.002900
vt 0.247730 0.061660
vt 0.265810 0.036600
vt 0.271140 0.004980
vt 0.456770 0.060670
vt 0.449580 0.065620
vt 0.441010 0.045450
vt 0.456230 0.044880
vt 0.303980 0.032690
vt 0.290740 0.032660
vt 0.296200 0.001990
vt 0.303850 0.002500
vt 0.467390 0.065300
vt 0.471110 0.044320
vt 0.233000 0.009780
vt 0.229040 0.009620
vt 0.229270 0.001050
vt 0.230750 0.000000
vt 0.230020 0.019360
vt 0.228670 0.017000
vt 0.235790 0.009890
vt 0.236000 0.004250
vt 0.235580 0.015530
vt 0.443400 0.072990
vt 0.457070 0.068590
vt 0.473840 0.071060
vt 0.447900 0.083240
vt 0.457700 0.085310
vt 0.469970 0.081730
vt 0.391500 0.062140
vt 0.386280 0.062710
vt 0.369800 0.036240
vt 0.375710 0.030950
vt 0.523070 0.028240
vt 0.519900 0.033470
vt 0.513410 0.001930
vt 0.515550 0.000000
vt 0.401380 0.058550
vt 0.384770 0.032230
vt 0.369140 0.002460
vt 0.374460 0.000000
vt 0.675250 0.058270
vt 0.664340 0.058290
vt 0.663150 0.032100
vt 0.675920 0.032070
vt 0.671110 0.000020
vt 0.676250 0.000010
vt 0.683960 0.058250
vt 0.688680 0.032050
vt 0.681390 0.000000
vt 0.342800 0.062890
vt 0.333210 0.058780
vt 0.350270 0.032340
vt 0.359110 0.031040
vt 0.361200 0.000000
vt 0.366260 0.002450
vt 0.349430 0.062920
vt 0.365250 0.036360
vt 0.367800 0.004410
vt 0.507130 0.059680
vt 0.500770 0.059640
vt 0.493280 0.033420
vt 0.506740 0.033450
vt 0.498940 0.001900
vt 0.506710 0.002420
vt 0.516530 0.059710
vt 0.798390 0.038820
vt 0.794130 0.038660
vt 0.794400 0.030380
vt 0.796020 0.029370
vt 0.795310 0.048070
vt 0.793820 0.045780
vt 0.801130 0.038930
vt 0.801330 0.033480
vt 0.800920 0.044380
vt 0.484150 0.069760
vt 0.477890 0.064520
vt 0.473680 0.058440
vt 0.480460 0.058180
vt 0.477610 0.049440
vt 0.482560 0.043980
vt 0.493200 0.065930
vt 0.494970 0.057630
vt 0.491930 0.047240
vt 0.414370 0.062140
vt 0.409150 0.062710
vt 0.392670 0.036240
vt 0.398580 0.030950
vt 0.555740 0.028240
vt 0.552570 0.033470
vt 0.546080 0.001930
vt 0.548220 0.000000
vt 0.424240 0.058550
vt 0.407640 0.032230
vt 0.392010 0.002460
vt 0.397330 0.000000
vt 0.701380 0.058270
vt 0.690480 0.058290
vt 0.689290 0.032100
vt 0.702050 0.032070
vt 0.697250 0.000020
vt 0.702390 0.000010
vt 0.710090 0.058250
vt 0.714820 0.032050
vt 0.707530 0.000000
vt 0.319930 0.062890
vt 0.310340 0.058780
vt 0.327400 0.032340
vt 0.336240 0.031040
vt 0.338330 0.000000
vt 0.343390 0.002450
vt 0.326560 0.062920
vt 0.342380 0.036360
vt 0.344930 0.004410
vt 0.539800 0.059680
vt 0.533440 0.059640
vt 0.525950 0.033420
vt 0.539410 0.033450
vt 0.531610 0.001900
vt 0.539380 0.002420
vt 0.549200 0.059710
vt 0.259370 0.063800
vt 0.255120 0.063630
vt 0.255380 0.055350
vt 0.257000 0.054340
vt 0.256300 0.073040
vt 0.254810 0.070760
vt 0.262110 0.063900
vt 0.262320 0.058450
vt 0.261910 0.069350
vt 0.366550 0.070500
vt 0.360280 0.065270
vt 0.356080 0.059180
vt 0.362860 0.058930
vt 0.360010 0.050190
vt 0.364960 0.044720
vt 0.375600 0.066680
vt 0.377360 0.058380
vt 0.374320 0.047990
vt 0.813430 0.018490
vt 0.813090 0.021940
vt 0.808060 0.021940
vt 0.804710 0.018490
vt 0.805550 0.026640
vt 0.800360 0.026640
vt 0.808060 0.031350
vt 0.804710 0.034800
vt 0.813090 0.031350
vt 0.813430 0.034800
vt 0.950900 0.018780
vt 0.946470 0.015330
vt 0.947500 0.010630
vt 0.952680 0.010630
vt 0.946470 0.005930
vt 0.950900 0.002480
vt 0.310800 0.036960
vt 0.312040 0.041710
vt 0.304230 0.044900
vt 0.301780 0.040640
vt 0.767690 0.062280
vt 0.762930 0.061020
vt 0.761150 0.052870
vt 0.765630 0.052870
vt 0.762930 0.044730
vt 0.767690 0.043470
vt 0.654590 0.060520
vt 0.657040 0.056260
vt 0.664840 0.059450
vt 0.663610 0.064200
vt 0.956200 0.020040
vt 0.958260 0.010630
vt 0.956200 0.001220
vt 0.308350 0.032700
vt 0.300540 0.035890
vt 0.772990 0.061020
vt 0.771210 0.052870
vt 0.772990 0.044730
vt 0.653350 0.065270
vt 0.661160 0.068460
vt 0.960950 0.018780
vt 0.962730 0.010630
vt 0.960950 0.002480
vt 0.808990 0.012860
vt 0.812340 0.016310
vt 0.803620 0.016310
vt 0.803960 0.012860
vt 0.777420 0.057580
vt 0.776390 0.052870
vt 0.777420 0.048170
vt 0.803960 0.003450
vt 0.803620 0.000000
vt 0.812340 0.000000
vt 0.808990 0.003450
vt 0.816700 0.008160
vt 0.811510 0.008160
vt 0.811130 0.026640
vt 0.944090 0.010630
vt 0.805920 0.008160
vt 0.779800 0.052870
vt 0.081680 0.000000
vt 0.081340 0.003450
vt 0.076310 0.003450
vt 0.072960 0.000000
vt 0.073790 0.008160
vt 0.068600 0.008160
vt 0.076310 0.012860
vt 0.072960 0.016310
vt 0.081340 0.012860
vt 0.081680 0.016310
vt 0.578490 0.067570
vt 0.574060 0.064130
vt 0.575080 0.059420
vt 0.580270 0.059420
vt 0.574060 0.054720
vt 0.578490 0.051280
vt 0.010260 0.004260
vt 0.011490 0.009020
vt 0.003690 0.012210
vt 0.001240 0.007950
vt 0.748080 0.062280
vt 0.743330 0.061020
vt 0.741550 0.052870
vt 0.746030 0.052870
vt 0.743330 0.044730
vt 0.748080 0.043470
vt 0.210310 0.004260
vt 0.212760 0.000000
vt 0.220570 0.003190
vt 0.219330 0.007950
vt 0.583790 0.068830
vt 0.585850 0.059420
vt 0.583790 0.050020
vt 0.007810 0.000000
vt -0.000000 0.003190
vt 0.753390 0.061020
vt 0.751610 0.052870
vt 0.753390 0.044730
vt 0.209070 0.009020
vt 0.216880 0.012210
vt 0.588540 0.067570
vt 0.590320 0.059420
vt 0.588540 0.051280
vt 0.087040 0.049000
vt 0.090380 0.052450
vt 0.081670 0.052450
vt 0.082000 0.049000
vt 0.757820 0.057580
vt 0.756790 0.052870
vt 0.757820 0.048170
vt 0.082000 0.039590
vt 0.081670 0.036140
vt 0.090380 0.036140
vt 0.087040 0.039590
vt 0.094740 0.044290
vt 0.089550 0.044290
vt 0.079380 0.008160
vt 0.571680 0.059420
vt 0.083970 0.044290
vt 0.760190 0.052870
s 1
usemtl Material.001
f 1/1/1 2/2/2 3/3/1
f 3/3/3 4/4/3 1/1/3
f 4/4/4 3/3/5 5/5/5
f 5/5/5 6/6/4 4/4/4
f 6/6/6 5/5/7 7/7/6
f 7/7/6 8/8/8 6/6/6
f 8/8/9 7/7/10 9/9/9
f 9/9/11 10/10/12 8/8/11
f 11/11/13 12/12/13 13/13/14
f 13/13/14 14/14/13 11/11/13
f 15/15/15 16/16/15 17/17/16
f 17/17/16 18/18/15 15/15/15
f 18/18/17 17/17/17 19/19/17
f 19/19/17 20/20/18 18/18/17
f 21/21/19 22/22/20 23/23/19
f 23/23/19 24/24/20 21/21/19
f 24/24/21 23/23/22 25/25/22
f 25/25/22 26/26/23 24/24/21
f 26/26/24 25/25/24 27/27/24
f 27/27/24 28/28/24 26/26/24
f 29/29/25 30/30/26 31/31/25
f 31/31/26 32/32/27 29/29/26
f 33/33/28 34/34/28 35/35/28
f 35/35/29 36/36/29 33/33/30
f 36/36/31 35/35/31 37/37/31
f 37/37/32 38/38/32 36/36/32
f 38/38/33 37/37/33 39/39/34
f 39/39/34 40/40/33 38/38/33
f 40/40/35 39/39/36 41/41/35
f 41/41/35 42/42/36 40/40/35
f 43/43/37 44/44/37 45/45/37
f 45/45/38 46/46/37 43/43/37
f 46/46/39 45/45/39 47/47/39
f 47/47/39 48/48/39 46/46/39
f 48/48/40 47/47/40 49/49/40
f 49/49/40 50/50/40 48/48/40
f 51/51/41 38/38/42 40/40/43
f 40/40/43 52/52/41 51/51/41
f 52/52/44 40/40/44 42/42/44
f 42/42/44 53/53/44 52/52/44
f 54/54/45 55/55/45 56/56/45
f 57/57/46 54/54/46 56/56/46
f 58/58/47 57/57/47 56/56/47
f 59/59/48 58/58/48 56/56/48
f 60/60/49 59/59/49 56/56/49
f 43/43/50 46/46/50 61/61/50
f 46/46/51 48/48/51 61/61/51
f 48/48/52 50/50/52 61/61/52
f 50/50/53 62/62/53 61/61/53
f 62/62/54 63/63/54 61/61/54
f 16/16/55 64/64/55 65/65/55
f 65/65/55 17/17/55 16/16/55
f 17/17/56 65/65/56 66/66/56
f 66/66/56 19/19/56 17/17/56
f 22/22/57 67/67/57 68/68/57
f 68/68/58 23/23/58 22/22/58
f 23/23/59 68/68/59 69/69/60
f 69/69/60 25/25/60 23/23/59
f 25/25/61 69/69/61 70/70/61
f 70/70/61 27/27/61 25/25/61
f 30/30/62 15/15/63 18/18/62
f 18/18/62 31/31/62 30/30/62
f 31/31/64 18/18/64 20/20/64
f 20/20/65 71/71/65 31/31/65
f 35/35/66 21/21/66 24/24/66
f 24/24/66 37/37/66 35/35/66
f 37/37/67 24/24/67 26/26/67
f 26/26/67 39/39/67 37/37/67
f 39/39/68 26/26/69 28/28/69
f 28/28/69 41/41/68 39/39/68
f 69/69/70 11/11/71 14/14/70
f 14/14/70 70/70/70 69/69/70
f 68/68/72 72/72/73 11/11/72
f 11/11/74 69/69/75 68/68/75
f 6/6/76 8/8/77 73/73/76
f 6/6/76 73/73/76 74/74/76
f 75/75/78 4/4/79 6/6/79
f 6/6/79 74/74/80 75/75/78
f 64/64/81 76/76/81 77/77/82
f 77/77/82 65/65/81 64/64/81
f 78/78/83 2/2/84 1/1/84
f 1/1/84 79/79/84 78/78/83
f 80/80/85 78/78/85 79/79/86
f 79/79/87 81/81/88 80/80/87
f 82/82/89 83/83/89 84/84/89
f 84/84/90 85/85/90 82/82/91
f 86/86/92 87/87/92 88/88/92
f 88/88/93 89/89/94 86/86/94
f 90/90/95 91/91/95 92/92/95
f 92/92/96 93/93/96 90/90/96
f 94/94/97 16/16/98 15/15/98
f 15/15/98 95/95/99 94/94/97
f 96/96/100 94/94/100 95/95/100
f 95/95/101 97/97/101 96/96/101
f 98/98/102 99/99/103 100/100/102
f 100/100/102 101/101/102 98/98/102
f 102/102/104 98/98/105 101/101/105
f 101/101/104 103/103/104 102/102/104
f 104/104/106 105/105/106 106/106/106
f 106/106/107 107/107/107 104/104/107
f 108/108/108 30/30/108 29/29/108
f 29/29/108 109/109/109 108/108/108
f 110/110/110 108/108/110 109/109/111
f 109/109/110 111/111/111 110/110/111
f 112/112/112 113/113/112 114/114/112
f 114/114/112 115/115/112 112/112/112
f 116/116/113 117/117/113 118/118/114
f 118/118/115 119/119/115 116/116/115
f 120/120/116 121/121/116 122/122/116
f 122/122/117 123/123/118 120/120/118
f 124/124/119 44/44/119 43/43/120
f 43/43/120 125/125/119 124/124/119
f 114/114/121 124/124/121 125/125/121
f 125/125/121 126/126/121 114/114/121
f 115/115/122 114/114/122 126/126/122
f 126/126/122 127/127/122 115/115/123
f 119/119/124 118/118/124 128/128/124
f 128/128/124 129/129/124 119/119/124
f 123/123/125 122/122/125 130/130/125
f 130/130/125 131/131/125 123/123/125
f 132/132/126 56/56/126 55/55/126
f 133/133/127 56/56/127 132/132/127
f 134/134/128 56/56/128 133/133/128
f 135/135/129 56/56/129 134/134/129
f 136/136/130 56/56/130 135/135/130
f 43/43/131 61/61/131 125/125/131
f 125/125/132 61/61/132 126/126/132
f 126/126/133 61/61/133 127/127/133
f 127/127/134 61/61/134 137/137/134
f 130/130/135 138/138/135 131/131/135
f 139/139/136 64/64/136 16/16/136
f 16/16/136 94/94/137 139/139/136
f 140/140/138 139/139/139 94/94/138
f 94/94/138 96/96/138 140/140/138
f 141/141/140 142/142/140 99/99/140
f 99/99/141 98/98/140 141/141/140
f 143/143/142 141/141/142 98/98/142
f 98/98/142 102/102/142 143/143/142
f 144/144/143 145/145/143 105/105/143
f 105/105/144 104/104/143 144/144/143
f 95/95/145 15/15/146 30/30/146
f 30/30/146 108/108/147 95/95/145
f 97/97/148 95/95/149 108/108/148
f 108/108/148 110/110/150 97/97/148
f 146/146/151 97/97/152 110/110/151
f 110/110/151 147/147/153 146/146/151
f 103/103/154 101/101/154 117/117/154
f 117/117/155 116/116/155 103/103/155
f 107/107/156 106/106/156 121/121/156
f 121/121/157 120/120/157 107/107/157
f 93/93/158 92/92/158 145/145/159
f 145/145/158 144/144/158 93/93/158
f 148/148/160 85/85/161 141/141/162
f 141/141/162 143/143/160 148/148/160
f 85/85/163 84/84/164 142/142/164
f 142/142/164 141/141/164 85/85/163
f 84/84/165 149/149/166 150/150/165
f 150/150/165 142/142/167 84/84/165
f 151/151/168 76/76/169 64/64/168
f 64/64/168 139/139/168 151/151/168
f 60/60/170 152/152/170 9/9/170
f 9/9/171 59/59/171 60/60/172
f 59/59/173 9/9/174 7/7/173
f 7/7/173 58/58/174 59/59/173
f 58/58/175 7/7/176 5/5/176
f 5/5/176 57/57/177 58/58/175
f 57/57/178 5/5/179 3/3/180
f 3/3/180 54/54/181 57/57/178
f 54/54/182 3/3/182 2/2/182
f 2/2/182 55/55/182 54/54/182
f 2/2/183 78/78/183 132/132/184
f 132/132/184 55/55/183 2/2/183
f 78/78/185 80/80/185 133/133/186
f 133/133/186 132/132/186 78/78/185
f 80/80/187 87/87/187 134/134/187
f 134/134/187 133/133/187 80/80/187
f 87/87/188 86/86/188 135/135/188
f 135/135/188 134/134/189 87/87/188
f 91/91/190 90/90/191 153/153/191
f 153/153/192 154/154/192 91/91/192
f 155/155/193 156/156/193 157/157/193
f 157/157/193 158/158/193 155/155/193
f 158/158/194 157/157/194 159/159/195
f 159/159/196 160/160/196 158/158/196
f 161/161/197 155/155/197 158/158/197
f 158/158/197 162/162/197 161/161/197
f 163/163/198 164/164/198 165/165/198
f 165/165/198 166/166/198 163/163/198
f 167/167/199 168/168/199 169/169/199
f 169/169/199 170/170/199 167/167/199
f 171/171/200 163/163/200 166/166/200
f 166/166/200 172/172/200 171/171/200
f 173/173/201 167/167/202 170/170/203
f 170/170/203 174/174/201 173/173/201
f 175/175/204 171/171/204 172/172/204
f 172/172/204 176/176/204 175/175/204
f 177/177/205 178/178/205 179/179/205
f 179/179/205 180/180/205 177/177/205
f 181/181/206 175/175/206 176/176/207
f 176/176/207 182/182/206 181/181/206
f 183/183/208 184/184/208 185/185/208
f 185/185/208 186/186/208 183/183/208
f 187/187/209 188/188/209 189/189/209
f 189/189/209 190/190/209 187/187/209
f 165/165/210 191/191/210 182/182/210
f 182/182/211 176/176/211 165/165/211
f 192/192/212 193/193/212 194/194/212
f 194/194/212 195/195/212 192/192/212
f 196/196/213 197/197/213 198/198/213
f 198/198/213 199/199/213 196/196/213
f 200/200/214 196/196/214 199/199/214
f 199/199/214 201/201/215 200/200/214
f 193/193/216 202/202/216 203/203/217
f 203/203/217 194/194/217 193/193/216
f 204/204/218 205/205/218 206/206/218
f 206/206/219 207/207/219 204/204/219
f 207/207/220 206/206/220 208/208/221
f 208/208/220 209/209/220 207/207/220
f 210/210/222 211/211/222 212/212/222
f 212/212/222 213/213/222 210/210/222
f 214/214/223 215/215/193 216/216/224
f 216/216/224 217/217/193 214/214/224
f 217/217/195 216/216/194 218/218/225
f 218/218/195 219/219/195 217/217/195
f 220/220/197 214/214/197 217/217/226
f 217/217/226 221/221/227 220/220/197
f 222/222/198 223/223/198 224/224/198
f 224/224/198 225/225/198 222/222/198
f 226/226/228 227/227/199 228/228/229
f 228/228/229 229/229/230 226/226/228
f 230/230/231 222/222/231 225/225/231
f 225/225/231 231/231/231 230/230/231
f 232/232/202 226/226/202 229/229/202
f 229/229/202 233/233/201 232/232/202
f 234/234/232 230/230/204 231/231/204
f 231/231/204 235/235/232 234/234/232
f 236/236/233 237/237/205 238/238/205
f 238/238/205 239/239/234 236/236/205
f 239/239/207 238/238/235 240/240/235
f 240/240/207 241/241/207 239/239/207
f 242/242/236 243/243/208 244/244/237
f 244/244/237 245/245/237 242/242/208
f 245/245/209 244/244/209 246/246/209
f 246/246/209 247/247/209 245/245/209
f 248/248/211 249/249/211 250/250/211
f 250/250/211 251/251/211 248/248/211
f 252/252/212 253/253/212 254/254/212
f 254/254/212 255/255/212 252/252/212
f 256/256/213 257/257/213 258/258/213
f 258/258/213 259/259/213 256/256/213
f 260/260/214 256/256/238 259/259/238
f 259/259/238 261/261/214 260/260/214
f 262/262/216 263/263/216 264/264/216
f 264/264/216 265/265/217 262/262/216
f 266/266/219 267/267/239 268/268/218
f 268/268/218 269/269/218 266/266/239
f 269/269/220 268/268/220 270/270/220
f 270/270/220 271/271/220 269/269/220
f 272/272/240 273/273/241 274/274/222
f 274/274/222 275/275/222 272/272/240
f 276/276/242 277/277/242 278/278/242
f 278/278/242 279/279/242 276/276/242
f 280/280/243 281/281/243 282/282/243
f 282/282/244 283/283/244 280/280/244
f 283/283/245 282/282/246 284/284/246
f 284/284/246 285/285/245 283/283/245
f 286/286/247 287/287/247 288/288/247
f 288/288/247 289/289/247 286/286/247
f 290/290/248 291/291/249 292/292/249
f 292/292/249 293/293/248 290/290/248
f 294/294/250 280/280/251 283/283/251
f 283/283/251 295/295/251 294/294/250
f 295/295/252 283/283/252 285/285/252
f 285/285/252 296/296/253 295/295/252
f 297/297/254 286/286/254 289/289/254
f 289/289/254 298/298/254 297/297/254
f 299/299/255 290/290/256 293/293/257
f 293/293/257 300/300/256 299/299/255
f 301/301/258 294/294/259 295/295/259
f 295/295/259 302/302/259 301/301/258
f 303/303/260 304/304/260 297/297/260
f 297/297/261 305/305/261 303/303/261
f 305/305/262 297/297/263 298/298/264
f 298/298/264 306/306/264 305/305/262
f 307/307/265 299/299/265 300/300/265
f 300/300/265 308/308/265 307/307/265
f 309/309/266 301/301/266 302/302/266
f 302/302/266 310/310/266 309/309/266
f 311/311/267 303/303/268 305/305/269
f 305/305/269 312/312/267 311/311/267
f 312/312/270 305/305/271 306/306/270
f 306/306/270 313/313/270 312/312/270
f 314/314/272 315/315/272 316/316/272
f 316/316/272 317/317/272 314/314/272
f 317/317/273 316/316/273 318/318/273
f 318/318/273 319/319/273 317/317/273
f 319/319/274 318/318/274 320/320/275
f 320/320/276 321/321/276 319/319/276
f 322/322/277 312/312/277 313/313/277
f 313/313/277 323/323/278 322/322/277
f 324/324/279 325/325/279 326/326/279
f 326/326/279 327/327/279 324/324/279
f 328/328/280 317/317/281 319/319/281
f 319/319/281 329/329/280 328/328/280
f 330/330/282 331/331/283 332/332/283
f 332/332/283 333/333/282 330/330/282
f 334/334/284 322/322/285 323/323/285
f 323/323/285 335/335/286 334/334/284
f 278/278/287 277/277/287 336/336/287
f 337/337/288 278/278/288 336/336/288
f 338/338/289 337/337/289 336/336/289
f 339/339/290 338/338/290 336/336/290
f 340/340/291 341/341/291 328/328/291
f 328/328/292 342/342/292 340/340/292
f 342/342/293 328/328/293 329/329/294
f 329/329/294 343/343/293 342/342/293
f 343/343/295 329/329/296 344/344/295
f 344/344/295 345/345/296 343/343/295
f 346/346/297 334/334/298 335/335/297
f 335/335/297 347/347/297 346/346/297
f 348/348/299 277/277/299 276/276/299
f 276/276/299 349/349/299 348/348/299
f 350/350/300 351/351/300 352/352/300
f 352/352/301 353/353/301 350/350/301
f 354/354/302 350/350/302 353/353/303
f 353/353/303 355/355/303 354/354/302
f 288/288/304 356/356/304 357/357/304
f 357/357/304 289/289/304 288/288/304
f 358/358/305 291/291/305 290/290/306
f 290/290/306 359/359/306 358/358/305
f 353/353/307 352/352/307 360/360/307
f 360/360/307 361/361/307 353/353/307
f 355/355/308 353/353/308 361/361/308
f 361/361/309 362/362/308 355/355/308
f 289/289/310 357/357/310 363/363/310
f 363/363/310 298/298/310 289/289/310
f 359/359/311 290/290/311 299/299/311
f 299/299/311 364/364/311 359/359/311
f 361/361/312 360/360/312 365/365/312
f 365/365/312 366/366/312 361/361/312
f 363/363/313 367/367/313 368/368/313
f 368/368/314 369/369/314 363/363/314
f 298/298/315 363/363/316 369/369/317
f 369/369/317 306/306/318 298/298/315
f 364/364/319 299/299/319 307/307/319
f 307/307/319 370/370/319 364/364/319
f 366/366/320 365/365/320 371/371/320
f 371/371/320 372/372/320 366/366/320
f 369/369/321 368/368/322 373/373/321
f 373/373/321 374/374/321 369/369/321
f 306/306/323 369/369/323 374/374/323
f 374/374/323 313/313/323 306/306/323
f 375/375/324 315/315/324 314/314/324
f 314/314/324 376/376/324 375/375/324
f 377/377/325 375/375/325 376/376/325
f 376/376/325 378/378/325 377/377/325
f 379/379/326 377/377/327 378/378/328
f 378/378/328 380/380/329 379/379/326
f 313/313/330 374/374/330 381/381/330
f 381/381/331 323/323/331 313/313/331
f 382/382/332 325/325/332 324/324/332
f 324/324/332 383/383/332 382/382/332
f 378/378/333 376/376/333 384/384/333
f 384/384/334 385/385/334 378/378/334
f 386/386/335 387/387/335 388/388/336
f 388/388/336 389/389/336 386/386/335
f 323/323/337 381/381/337 390/390/337
f 390/390/338 335/335/338 323/323/338
f 348/348/339 336/336/339 277/277/339
f 391/391/340 336/336/340 348/348/340
f 392/392/341 336/336/341 391/391/341
f 339/339/342 336/336/342 392/392/342
f 384/384/343 341/341/343 340/340/344
f 340/340/344 393/393/344 384/384/343
f 385/385/345 384/384/345 393/393/345
f 393/393/345 394/394/345 385/385/345
f 395/395/346 385/385/347 394/394/346
f 394/394/346 396/396/347 395/395/346
f 335/335/348 390/390/349 397/397/348
f 397/397/348 347/347/348 335/335/348
f 398/398/350 340/340/350 342/342/350
f 342/342/350 399/399/350 398/398/350
f 399/399/351 342/342/351 343/343/351
f 343/343/351 400/400/351 399/399/351
f 343/343/352 345/345/353 401/401/354
f 343/343/352 401/401/354 400/400/352
f 401/401/355 345/345/355 402/402/355
f 402/402/356 403/403/356 401/401/356
f 404/404/357 393/393/357 340/340/357
f 340/340/358 398/398/358 404/404/358
f 405/405/359 394/394/359 393/393/359
f 393/393/359 404/404/359 405/405/359
f 406/406/360 396/396/360 394/394/361
f 394/394/362 405/405/362 406/406/362
f 403/403/363 402/402/363 396/396/363
f 396/396/363 406/406/363 403/403/363
f 407/407/364 408/408/364 409/409/364
f 408/408/365 410/410/365 409/409/365
f 410/410/366 411/411/366 409/409/366
f 411/411/367 412/412/367 409/409/367
f 407/407/368 409/409/368 413/413/368
f 413/413/369 409/409/369 414/414/369
f 414/414/370 409/409/370 415/415/370
f 415/415/371 409/409/371 412/412/371
f 407/407/372 416/398/372 417/399/372
f 417/399/372 408/408/372 407/407/372
f 408/408/373 417/399/373 418/400/373
f 418/400/373 410/410/373 408/408/373
f 410/410/374 418/400/374 419/401/374
f 419/401/374 411/411/374 410/410/374
f 411/411/375 419/401/375 420/403/375
f 420/403/375 412/412/375 411/411/375
f 413/413/376 421/404/376 416/398/376
f 416/398/377 407/407/377 413/413/377
f 414/414/378 422/405/378 421/404/378
f 421/404/379 413/413/379 414/414/379
f 415/415/380 423/406/380 422/405/380
f 422/405/381 414/414/381 415/415/381
f 412/412/382 420/403/382 423/406/382
f 423/406/382 415/415/382 412/412/382
f 424/416/383 425/417/383 426/418/384
f 426/418/384 427/419/384 424/416/383
f 427/419/385 426/418/386 428/420/387
f 428/420/387 429/421/387 427/419/385
f 430/422/388 424/416/389 427/419/390
f 427/419/390 431/423/389 430/422/388
f 431/423/391 427/419/392 429/421/392
f 429/421/392 432/424/391 431/423/391
f 433/425/393 430/422/393 431/423/394
f 431/423/394 434/426/394 433/425/393
f 434/426/395 431/423/395 432/424/395
f 432/424/395 435/427/395 434/426/395
f 436/428/396 433/425/397 434/426/396
f 434/426/396 437/429/396 436/428/396
f 437/429/395 434/426/395 435/427/395
f 435/427/395 438/430/395 437/429/395
f 439/431/398 436/428/398 437/429/398
f 437/429/398 440/432/398 439/431/398
f 440/432/399 437/429/400 438/430/399
f 438/430/399 441/433/400 440/432/399
f 442/434/401 439/431/401 440/432/401
f 440/432/401 443/435/401 442/434/401
f 443/435/402 440/432/402 441/433/402
f 441/433/403 444/436/403 443/435/403
f 445/437/404 446/438/404 447/439/405
f 447/439/406 448/440/406 445/437/406
f 448/440/407 447/439/408 449/441/409
f 449/441/409 450/442/408 448/440/407
f 425/417/410 445/437/410 448/440/411
f 448/440/411 426/418/411 425/417/410
f 426/418/412 448/440/407 450/442/408
f 450/442/408 428/420/413 426/418/412
f 451/443/414 452/444/414 453/445/415
f 453/445/415 454/446/415 451/443/414
f 455/447/416 456/448/416 452/444/416
f 452/444/416 451/443/416 455/447/416
f 457/449/417 451/443/417 454/446/417
f 454/446/418 458/450/418 457/449/418
f 459/451/419 455/447/419 451/443/420
f 451/443/420 457/449/420 459/451/419
f 460/452/421 461/453/421 462/454/422
f 462/454/421 463/455/421 460/452/421
f 463/455/423 462/454/423 464/456/423
f 464/456/423 465/457/423 463/455/423
f 466/458/424 460/452/424 463/455/424
f 463/455/424 467/459/424 466/458/424
f 467/459/425 463/455/425 465/457/425
f 465/457/426 468/460/426 467/459/426
f 469/461/383 470/462/383 471/463/384
f 471/463/384 472/464/384 469/461/383
f 473/465/385 474/466/386 475/467/387
f 475/467/387 476/468/387 473/465/385
f 477/469/388 469/461/389 472/464/390
f 472/464/390 478/470/389 477/469/388
f 478/470/392 472/464/392 479/471/392
f 479/471/391 480/472/391 478/470/391
f 481/473/393 482/474/393 483/475/393
f 483/475/394 484/476/394 481/473/394
f 484/476/395 483/475/395 485/477/395
f 485/477/395 486/478/395 484/476/395
f 487/479/396 481/473/397 484/476/396
f 484/476/396 488/480/396 487/479/396
f 488/480/395 484/476/395 486/478/395
f 486/478/395 489/481/395 488/480/395
f 490/482/398 491/483/398 492/484/398
f 492/484/398 493/485/398 490/482/398
f 493/485/399 492/484/400 494/486/399
f 494/486/399 495/487/400 493/485/399
f 496/488/401 490/482/401 493/485/401
f 493/485/401 497/489/401 496/488/401
f 497/489/402 493/485/402 495/487/402
f 495/487/403 498/490/403 497/489/403
f 499/491/404 500/492/404 501/493/406
f 501/493/406 502/494/406 499/491/404
f 503/495/407 504/496/409 505/497/409
f 505/497/409 506/498/408 503/495/407
f 507/499/410 499/491/410 502/494/410
f 502/494/411 508/500/411 507/499/411
f 474/466/412 503/495/407 506/498/408
f 506/498/408 475/467/413 474/466/412
f 509/501/414 510/502/414 511/503/415
f 511/503/415 512/504/415 509/501/414
f 513/505/416 514/506/416 510/502/416
f 510/502/416 509/501/416 513/505/416
f 515/507/417 509/501/417 512/504/418
f 512/504/418 516/508/418 515/507/418
f 517/509/419 513/505/419 509/501/420
f 509/501/420 515/507/420 517/509/419
f 518/510/421 500/492/421 499/491/421
f 499/491/421 519/511/421 518/510/421
f 519/511/423 499/491/423 507/499/423
f 507/499/423 520/512/423 519/511/423
f 521/513/424 518/510/424 519/511/424
f 519/511/424 522/514/424 521/513/424
f 522/514/425 519/511/425 520/512/425
f 520/512/426 523/515/426 522/514/426
f 524/516/427 525/517/427 526/518/428
f 526/518/428 527/519/428 524/516/427
f 528/520/429 529/521/430 530/522/431
f 530/522/431 531/523/431 528/520/429
f 532/524/432 524/516/432 527/519/433
f 527/519/433 533/525/432 532/524/432
f 533/525/434 527/519/434 534/526/434
f 534/526/434 535/527/434 533/525/434
f 536/528/435 537/529/435 538/530/435
f 538/530/436 539/531/435 536/528/435
f 539/531/437 538/530/437 540/532/437
f 540/532/437 541/533/437 539/531/437
f 542/534/438 536/528/438 539/531/438
f 539/531/438 543/535/438 542/534/438
f 543/535/437 539/531/437 541/533/437
f 541/533/437 544/536/437 543/535/437
f 545/537/439 546/538/439 547/539/439
f 547/539/439 548/540/439 545/537/439
f 548/540/440 547/539/440 549/541/440
f 549/541/440 550/542/440 548/540/440
f 551/543/441 545/537/441 548/540/441
f 548/540/441 552/544/442 551/543/441
f 552/544/443 548/540/443 550/542/443
f 550/542/443 553/545/443 552/544/443
f 554/546/444 555/547/444 556/548/445
f 556/548/446 557/549/444 554/546/446
f 557/549/447 556/548/448 558/550/449
f 558/550/449 559/551/450 557/549/447
f 560/552/451 554/546/451 557/549/452
f 557/549/452 529/521/453 560/552/451
f 529/521/454 557/549/447 559/551/450
f 559/551/450 530/522/455 529/521/454
f 561/553/456 562/554/457 563/555/456
f 563/555/456 564/556/456 561/553/456
f 565/557/458 566/558/458 562/554/458
f 562/554/458 561/553/458 565/557/458
f 567/559/459 561/553/459 564/556/459
f 564/556/459 568/560/459 567/559/459
f 569/561/460 565/557/460 561/553/460
f 561/553/460 567/559/461 569/561/460
f 570/562/462 571/563/463 572/564/463
f 572/564/463 573/565/463 570/562/463
f 573/565/464 572/564/465 574/566/464
f 574/566/464 575/567/464 573/565/464
f 576/568/466 570/562/466 573/565/467
f 573/565/467 577/569/468 576/568/466
f 577/569/469 573/565/469 575/567/469
f 575/567/469 578/570/469 577/569/469
f 579/571/427 580/572/427 581/573/428
f 581/573/428 582/574/428 579/571/427
f 583/575/429 584/576/430 585/577/431
f 585/577/431 586/578/431 583/575/429
f 587/579/432 579/571/432 582/574/433
f 582/574/433 588/580/432 587/579/432
f 588/580/434 582/574/434 589/581/434
f 589/581/434 590/582/434 588/580/434
f 591/583/435 592/584/435 593/585/435
f 593/585/436 594/586/435 591/583/435
f 594/586/437 593/585/437 595/587/437
f 595/587/437 596/588/437 594/586/437
f 597/589/438 591/583/438 594/586/438
f 594/586/438 598/590/438 597/589/438
f 598/590/437 594/586/437 596/588/437
f 596/588/437 599/591/437 598/590/437
f 600/592/439 601/593/439 602/594/439
f 602/594/439 603/595/439 600/592/439
f 603/595/440 602/594/440 604/596/440
f 604/596/440 605/597/440 603/595/440
f 606/598/441 600/592/441 603/595/441
f 603/595/441 607/599/442 606/598/441
f 607/599/443 603/595/443 605/597/443
f 605/597/443 608/600/443 607/599/443
f 609/601/444 610/602/444 611/603/445
f 611/603/446 612/604/444 609/601/446
f 612/604/447 611/603/448 613/605/449
f 613/605/449 614/606/450 612/604/447
f 615/607/451 609/601/451 612/604/452
f 612/604/452 584/576/453 615/607/451
f 584/576/454 612/604/447 614/606/450
f 614/606/450 585/577/455 584/576/454
f 616/608/456 617/609/457 618/610/456
f 618/610/456 619/611/456 616/608/456
f 620/612/458 621/613/458 617/609/458
f 617/609/470 616/608/470 620/612/470
f 622/614/459 616/608/459 619/611/459
f 619/611/459 623/615/459 622/614/459
f 624/616/460 620/612/460 616/608/460
f 616/608/460 622/614/461 624/616/460
f 625/617/463 626/618/463 627/619/463
f 627/619/463 628/620/463 625/617/463
f 628/620/464 627/619/465 629/621/464
f 629/621/464 630/622/464 628/620/464
f 631/623/466 625/617/466 628/620/467
f 628/620/467 632/624/468 631/623/466
f 632/624/469 628/620/469 630/622/469
f 630/622/469 633/625/469 632/624/469
f 634/626/471 635/627/471 636/628/471
f 636/628/471 637/629/471 634/626/471
f 637/629/472 636/628/472 638/630/472
f 638/630/472 639/631/472 637/629/472
f 639/631/473 638/630/473 640/632/473
f 640/632/473 641/633/473 639/631/473
f 641/633/474 640/632/474 642/634/474
f 642/634/474 643/635/474 641/633/474
f 644/636/475 645/637/475 646/638/475
f 646/638/475 647/639/475 644/636/475
f 647/639/476 646/638/476 648/640/476
f 648/640/476 649/641/476 647/639/476
f 650/642/477 651/643/477 652/644/477
f 652/644/477 653/645/477 650/642/477
f 654/646/478 655/647/478 656/648/478
f 656/648/479 657/649/479 654/646/479
f 657/649/480 656/648/481 658/650/480
f 658/650/480 659/651/480 657/649/480
f 660/652/482 661/653/482 662/654/482
f 662/654/482 663/655/482 660/652/482
f 664/656/483 644/636/483 647/639/483
f 647/639/483 665/657/483 664/656/483
f 665/657/484 647/639/484 649/641/484
f 649/641/484 666/658/484 665/657/484
f 667/659/485 650/642/485 653/645/485
f 653/645/485 668/660/485 667/659/485
f 669/661/486 654/646/486 657/649/486
f 657/649/486 670/662/486 669/661/486
f 670/662/487 657/649/487 659/651/487
f 659/651/487 671/663/487 670/662/487
f 672/664/488 660/652/488 663/655/488
f 663/655/488 673/665/488 672/664/488
f 674/666/489 664/656/489 665/657/489
f 665/657/489 675/667/489 674/666/489
f 675/667/490 665/657/490 666/658/490
f 666/658/491 676/668/491 675/667/491
f 677/669/492 678/670/492 679/671/492
f 679/671/492 680/672/492 677/669/492
f 681/673/493 669/661/494 670/662/493
f 670/662/493 682/674/495 681/673/493
f 682/674/496 670/662/496 671/663/496
f 671/663/496 683/675/497 682/674/496
f 684/676/498 685/677/498 686/678/498
f 686/678/498 687/679/498 684/676/498
f 687/679/499 686/678/499 688/680/499
f 688/680/499 689/681/499 687/679/499
f 689/681/500 688/680/500 678/670/500
f 678/670/500 677/669/500 689/681/500
f 636/628/501 635/627/501 690/682/501
f 638/630/502 636/628/502 690/682/502
f 640/632/503 638/630/503 690/682/503
f 642/634/504 640/632/504 690/682/504
f 646/638/505 645/637/505 691/683/505
f 648/640/506 646/638/506 691/683/506
f 677/669/507 680/672/507 692/684/507
f 681/673/508 682/674/508 693/685/508
f 682/674/509 683/675/509 693/685/509
f 684/676/510 687/679/510 692/684/510
f 687/679/511 689/681/511 692/684/511
f 689/681/512 677/669/512 692/684/512
f 694/686/471 695/687/471 696/688/471
f 696/688/471 697/689/471 694/686/471
f 697/689/472 696/688/472 698/690/472
f 698/690/472 699/691/472 697/689/472
f 699/691/473 698/690/473 700/692/473
f 700/692/473 701/693/473 699/691/473
f 701/693/474 700/692/474 702/694/474
f 702/694/474 703/695/474 701/693/474
f 704/696/475 705/697/513 706/698/475
f 706/698/475 707/699/475 704/696/475
f 707/699/476 706/698/476 708/700/476
f 708/700/476 709/701/476 707/699/476
f 710/702/477 711/703/477 712/704/477
f 712/704/477 713/705/477 710/702/477
f 714/706/479 715/707/479 716/708/479
f 716/708/478 717/709/478 714/706/478
f 717/709/480 716/708/480 718/710/480
f 718/710/480 719/711/480 717/709/480
f 720/712/482 721/713/482 722/714/482
f 722/714/482 723/715/482 720/712/482
f 724/716/483 704/696/483 707/699/483
f 707/699/483 725/717/483 724/716/483
f 725/717/484 707/699/484 709/701/484
f 709/701/484 726/718/484 725/717/484
f 727/719/485 710/702/485 713/705/485
f 713/705/485 728/720/485 727/719/485
f 729/721/486 714/706/486 717/709/486
f 717/709/486 730/722/486 729/721/486
f 730/722/487 717/709/487 719/711/487
f 719/711/487 731/723/487 730/722/487
f 732/724/488 720/712/488 723/715/488
f 723/715/488 733/725/488 732/724/488
f 734/726/489 724/716/514 725/717/489
f 725/717/489 735/727/489 734/726/489
f 735/727/490 725/717/490 726/718/490
f 726/718/515 736/728/515 735/727/515
f 737/729/492 738/730/492 739/731/492
f 739/731/492 740/732/492 737/729/492
f 741/733/493 729/721/493 730/722/493
f 730/722/493 742/734/493 741/733/493
f 742/734/496 730/722/496 731/723/496
f 731/723/496 743/735/497 742/734/496
f 744/736/498 745/737/498 746/738/498
f 746/738/498 747/739/498 744/736/498
f 747/739/499 746/738/499 748/740/499
f 748/740/499 749/741/499 747/739/499
f 749/741/500 748/740/500 738/730/500
f 738/730/516 737/729/516 749/741/516
f 696/688/501 695/687/501 750/742/501
f 698/690/517 696/688/517 750/742/517
f 700/692/518 698/690/518 750/742/518
f 702/694/504 700/692/504 750/742/504
f 706/698/505 705/697/505 751/743/505
f 708/700/506 706/698/506 751/743/506
f 737/729/507 740/732/507 752/744/507
f 741/733/508 742/734/508 753/745/508
f 742/734/509 743/735/509 753/745/509
f 744/736/510 747/739/510 752/744/510
f 747/739/519 749/741/519 752/744/519
f 749/741/520 737/729/520 752/744/520
