# Blender 5.2.0 LTS
# www.blender.org
mtllib spider.mtl
o a222d3e1af2c4caf8811b2bd875a976c.obj
v 0.068977 0.065438 -0.008041
v 0.067605 0.143866 -0.012862
v 0.081068 0.056670 -0.126138
v 0.071696 0.144842 -0.133387
v 0.078378 0.054730 -0.164015
v 0.069506 0.142916 -0.174021
v 0.066395 0.074045 -0.223204
v 0.063023 0.126056 -0.227826
v 0.075669 0.053076 -0.058525
v 0.076297 0.149690 -0.071284
v 0.125679 0.049747 -0.044666
v 0.123679 0.056747 0.001000
v 0.113679 0.095747 -0.047000
v 0.081477 0.112538 -0.016041
v 0.110679 0.049747 -0.133000
v 0.094679 0.113747 -0.135000
v 0.109679 0.048747 -0.160000
v 0.096679 0.111747 -0.163000
v 0.091679 0.050747 -0.183000
v 0.069679 0.096747 -0.174000
v 0.098679 0.059747 -0.215000
v 0.071895 0.105538 -0.218126
v 0.105679 0.044747 -0.086000
v 0.101679 0.112747 -0.084000
v 0.109679 0.046747 -0.105000
v 0.107679 0.115747 -0.107000
v 0.522452 0.002982 0.815700
v 1.027679 0.000255 -0.086000
v 0.846053 0.000747 -0.716902
v 0.919275 0.005747 0.532021
v 0.447404 0.332982 0.604265
v 0.412404 0.339982 0.605265
v 0.452404 0.364982 0.621265
v 0.418404 0.371982 0.621265
v 0.775679 0.199255 -0.100000
v 0.782679 0.235255 -0.102000
v 0.782679 0.196255 -0.139000
v 0.789679 0.231255 -0.142000
v 0.691320 0.382747 -0.521656
v 0.695320 0.400747 -0.522657
v 0.639320 0.383747 -0.534657
v 0.642320 0.406747 -0.539657
v 0.694551 0.180747 0.332766
v 0.700551 0.219747 0.333766
v 0.723551 0.176747 0.305766
v 0.730551 0.215747 0.306766
v 0.272911 0.503982 0.235911
v 0.281911 0.464982 0.234911
v 0.237181 0.462539 0.284218
v 0.228911 0.508982 0.256911
v 0.436955 0.296747 0.093638
v 0.459955 0.293747 0.053638
v 0.455955 0.253747 0.062638
v 0.436955 0.262747 0.105638
v 0.440679 0.343255 -0.133000
v 0.452679 0.341255 -0.182000
v 0.460679 0.277255 -0.185000
v 0.450679 0.282255 -0.136000
v 0.427679 0.488747 -0.333000
v 0.389679 0.489747 -0.369000
v 0.390679 0.434747 -0.370000
v 0.427679 0.433747 -0.335000
v 0.275911 0.504982 0.213911
v 0.207911 0.514982 0.248911
v 0.229911 0.453982 0.266911
v 0.300911 0.441982 0.229911
v 0.431679 0.357255 -0.126000
v 0.447679 0.269255 -0.129000
v 0.461679 0.263255 -0.196000
v 0.446679 0.354255 -0.193000
v 0.376679 0.497747 -0.370000
v 0.420679 0.491747 -0.315000
v 0.431679 0.415747 -0.329000
v 0.388679 0.421747 -0.384000
v 0.475955 0.313747 0.041638
v 0.431955 0.313747 0.104638
v 0.422955 0.250747 0.114638
v 0.459955 0.241747 0.045638
v -0.000766 0.041106 0.030908
v 0.017165 0.041106 -0.000679
v -0.000766 0.073217 0.122294
v 0.017165 0.073217 0.090707
v -0.000766 0.105328 0.122300
v 0.054371 0.105328 0.090713
v -0.000766 0.137440 0.122300
v 0.054371 0.137440 0.090713
v -0.000766 0.151302 0.066312
v 0.020903 0.151302 0.034725
v -0.000766 0.169551 -0.217830
v 0.035644 0.169551 -0.226253
v -0.000766 0.359906 -0.395425
v 0.151530 0.286926 -0.428247
v -0.000766 0.210911 -0.674178
v 0.039313 0.194503 -0.668299
v -0.000766 0.137440 -0.705166
v 0.089117 0.137440 -0.672762
v -0.000766 0.105328 -0.711601
v 0.089117 0.105328 -0.691452
v -0.000766 0.073217 -0.710494
v 0.059047 0.073217 -0.686940
v -0.000766 0.041106 -0.683506
v 0.013102 0.041106 -0.672762
v -0.000766 0.018796 -0.395425
v 0.103196 0.037609 -0.428246
v -0.000766 0.041106 -0.217830
v 0.031905 0.041106 -0.226253
v 0.150557 0.072109 -0.428246
v 0.182541 0.103620 -0.428246
v 0.190266 0.186484 -0.428246
v -0.000766 0.026091 -0.550099
v 0.049843 0.029817 -0.558732
v 0.121136 0.068748 -0.560934
v 0.157861 0.097341 -0.561635
v 0.166996 0.179179 -0.558732
v 0.120742 0.273758 -0.555029
v -0.000766 0.330548 -0.551865
v -0.000766 0.020391 -0.319179
v 0.068351 0.052154 -0.346808
v 0.129634 0.064270 -0.360899
v 0.152570 0.105653 -0.352642
v 0.158109 0.197224 -0.330624
v 0.130332 0.303057 -0.305176
v -0.000766 0.342202 -0.276657
v -0.000766 0.018930 -0.008827
v 0.031068 0.018930 -0.012082
v 0.034807 0.191727 -0.012082
v -0.000766 0.191727 -0.008827
v -0.000766 0.013482 -0.056809
v 0.036453 0.013482 -0.062051
v 0.040191 0.197175 -0.062051
v -0.000766 0.197175 -0.056809
v -0.000766 0.020098 -0.164084
v 0.039871 0.020098 -0.173030
v 0.043609 0.190559 -0.173030
v -0.000766 0.190559 -0.164084
v -0.000766 0.027857 -0.120724
v 0.033251 0.027857 -0.127276
v 0.036989 0.182800 -0.127276
v -0.000766 0.182800 -0.120724
v -0.125211 0.056747 0.001000
v -0.070508 0.065438 -0.008041
v -0.077201 0.053076 -0.058525
v -0.127211 0.049747 -0.044666
v -0.077829 0.149690 -0.071284
v -0.115211 0.095747 -0.047000
v -0.069137 0.143866 -0.012862
v -0.083008 0.112538 -0.016041
v -0.096211 0.113747 -0.135000
v -0.073228 0.144842 -0.133387
v -0.082600 0.056670 -0.126138
v -0.112211 0.049747 -0.133000
v -0.079909 0.054730 -0.164015
v -0.111211 0.048747 -0.160000
v -0.071038 0.142916 -0.174021
v -0.098211 0.111747 -0.163000
v -0.071211 0.096747 -0.174000
v -0.093211 0.050747 -0.183000
v -0.067927 0.074045 -0.223204
v -0.100211 0.059747 -0.215000
v -0.064555 0.126056 -0.227826
v -0.073427 0.105538 -0.218126
v -0.103211 0.112747 -0.084000
v -0.107211 0.044747 -0.086000
v -0.111211 0.046747 -0.105000
v -0.109211 0.115747 -0.107000
v -0.231443 0.453982 0.266911
v -0.302443 0.441982 0.229911
v -0.283443 0.464982 0.234911
v -0.238713 0.462539 0.284218
v -0.277443 0.504982 0.213911
v -0.274443 0.503982 0.235911
v -0.209443 0.514982 0.248911
v -0.230443 0.508982 0.256911
v -0.442211 0.343255 -0.133000
v -0.433211 0.357255 -0.126000
v -0.449211 0.269255 -0.129000
v -0.452211 0.282255 -0.136000
v -0.463211 0.263255 -0.196000
v -0.462211 0.277255 -0.185000
v -0.448211 0.354255 -0.193000
v -0.454211 0.341255 -0.182000
v -0.422211 0.491747 -0.315000
v -0.433211 0.415747 -0.329000
v -0.429211 0.433747 -0.335000
v -0.429211 0.488747 -0.333000
v -0.390211 0.421747 -0.384000
v -0.392211 0.434747 -0.370000
v -0.378211 0.497747 -0.370000
v -0.391211 0.489747 -0.369000
v -0.438487 0.296747 0.093638
v -0.433487 0.313747 0.104638
v -0.424487 0.250747 0.114638
v -0.438487 0.262747 0.105638
v -0.461487 0.241747 0.045638
v -0.457487 0.253747 0.062638
v -0.477487 0.313747 0.041638
v -0.461487 0.293747 0.053638
v -0.413936 0.339982 0.605265
v -0.448936 0.332982 0.604265
v -0.523984 0.002982 0.815700
v -0.453936 0.364982 0.621265
v -0.419936 0.371982 0.621265
v -0.784211 0.235255 -0.102000
v -0.777211 0.199255 -0.100000
v -1.029211 0.000255 -0.086000
v -0.784211 0.196255 -0.139000
v -0.791211 0.231255 -0.142000
v -0.696852 0.400747 -0.522657
v -0.692852 0.382747 -0.521656
v -0.847584 0.000747 -0.716902
v -0.640852 0.383747 -0.534657
v -0.643852 0.406747 -0.539657
v -0.702083 0.219747 0.333766
v -0.696083 0.180747 0.332766
v -0.920806 0.005747 0.532021
v -0.725083 0.176747 0.305766
v -0.732083 0.215747 0.306766
v -0.018697 0.041106 -0.000679
v -0.018697 0.073217 0.090707
v -0.055903 0.105328 0.090713
v -0.055903 0.137440 0.090713
v -0.022435 0.151302 0.034725
v -0.036338 0.191727 -0.012082
v -0.037175 0.169551 -0.226253
v -0.131864 0.303057 -0.305176
v -0.153062 0.286926 -0.428247
v -0.122273 0.273758 -0.555029
v -0.040845 0.194503 -0.668299
v -0.090648 0.137440 -0.672762
v -0.090648 0.105328 -0.691452
v -0.060579 0.073217 -0.686940
v -0.014633 0.041106 -0.672762
v -0.051375 0.029817 -0.558732
v -0.104727 0.037609 -0.428246
v -0.069882 0.052154 -0.346808
v -0.033437 0.041106 -0.226253
v -0.032600 0.018930 -0.012082
v -0.122668 0.068748 -0.560934
v -0.152089 0.072109 -0.428246
v -0.131166 0.064270 -0.360899
v -0.159393 0.097341 -0.561635
v -0.184072 0.103620 -0.428246
v -0.154101 0.105653 -0.352642
v -0.168527 0.179179 -0.558732
v -0.191797 0.186484 -0.428246
v -0.159641 0.197224 -0.330624
v -0.037985 0.013482 -0.062051
v -0.041723 0.197175 -0.062051
v -0.034783 0.027857 -0.127276
v -0.038521 0.182800 -0.127276
v -0.041403 0.020098 -0.173030
v -0.045141 0.190559 -0.173030
vn -0.2340 -0.9056 0.3539
vn -0.2340 -0.9055 0.3539
vn -0.1900 -0.9276 0.3217
vn 0.3985 -0.1449 -0.9057
vn 0.5919 -0.3137 -0.7425
vn 0.7063 0.6555 0.2674
vn 0.7063 0.6555 0.2675
vn -0.6343 0.2996 -0.7127
vn 0.6673 -0.0953 0.7387
vn 0.6673 -0.0954 0.7387
vn -0.0196 0.3080 0.9512
vn 0.6168 0.0891 0.7820
vn 0.3689 0.1210 0.9216
vn 0.1337 -0.9896 -0.0535
vn 0.0721 -0.9968 0.0343
vn -0.1287 -0.0879 -0.9878
vn -0.1587 -0.0796 -0.9841
vn 0.7142 0.6297 -0.3056
vn 0.5668 0.8236 -0.0183
vn 0.5668 0.8236 -0.0184
vn 0.9748 0.1245 -0.1852
vn 0.9748 0.1245 -0.1853
vn 0.8510 0.3265 0.4113
vn 0.2034 -0.9777 -0.0525
vn 0.3515 -0.9184 -0.1814
vn 0.5072 0.0077 -0.8618
vn 0.0140 0.1152 -0.9932
vn 0.9872 0.1020 -0.1227
vn 0.3609 0.8917 0.2730
vn 0.3609 0.8917 0.2731
vn 0.7417 0.0248 0.6703
vn 0.7426 0.0240 0.6693
vn -0.0914 -0.9956 -0.0183
vn 0.0940 -0.9920 -0.0846
vn 0.5678 0.0820 -0.8191
vn 0.7433 0.0022 -0.6690
vn 0.7433 0.0021 -0.6690
vn 0.7672 0.6389 -0.0564
vn 0.7672 0.6390 -0.0563
vn 0.4709 0.8506 0.2338
vn 0.4795 0.2110 0.8518
vn 0.3501 0.5503 0.7580
vn 0.3501 0.5503 0.7581
vn 0.6706 0.4212 0.6107
vn 0.6706 0.4212 0.6106
vn 0.9654 0.2192 0.1416
vn 0.2186 0.9643 0.1493
vn 0.2187 0.9643 0.1493
vn 0.1430 0.9876 0.0644
vn -0.3097 0.1646 0.9365
vn 0.9482 0.0734 0.3091
vn 0.9482 0.0734 0.3092
vn 0.7069 0.1047 0.6995
vn 0.8252 0.1080 0.5543
vn 0.8253 0.1080 0.5543
vn 0.9725 -0.0970 0.2119
vn 0.9714 -0.1113 0.2096
vn 0.9787 0.1653 -0.1215
vn 0.9275 0.1323 -0.3495
vn 0.8656 0.4701 0.1727
vn 0.8655 0.4701 0.1727
vn 0.8260 0.5339 0.1805
vn 0.9749 0.1680 -0.1459
vn 0.9312 -0.0132 0.3643
vn 0.7274 0.4479 -0.5199
vn 0.6831 -0.0897 -0.7247
vn 0.6831 -0.0898 -0.7248
vn 0.9240 0.2053 -0.3227
vn 0.0887 0.0197 -0.9959
vn 0.5137 0.7943 -0.3243
vn 0.1326 0.9848 -0.1126
vn 0.8779 -0.0498 0.4762
vn 0.3056 0.3169 0.8979
vn 0.7811 -0.4085 0.4722
vn 0.7307 -0.5275 0.4333
vn 0.6816 -0.1113 0.7232
vn 0.6816 -0.1112 0.7232
vn 0.9661 -0.0392 0.2551
vn 0.7826 -0.2981 0.5465
vn 0.7826 -0.2981 0.5466
vn 0.8624 -0.0707 0.5012
vn -0.1404 -0.5885 -0.7962
vn 0.9802 -0.1873 0.0643
vn 0.1097 0.5328 0.8391
vn -0.9856 0.1637 0.0422
vn -0.0101 0.0574 0.9983
vn -0.6172 -0.7852 -0.0504
vn 0.1198 -0.1089 -0.9868
vn 0.1198 -0.1088 -0.9868
vn 0.1256 -0.1096 -0.9860
vn 0.6898 0.7224 0.0485
vn 0.9672 -0.2218 -0.1240
vn -0.2233 -0.4632 0.8577
vn -0.9888 0.1402 0.0517
vn 0.3204 0.4070 -0.8554
vn -0.7221 0.0935 0.6855
vn -0.3729 -0.8880 -0.2690
vn 0.7835 -0.1250 -0.6087
vn 0.4166 0.8439 0.3379
vn 0.9742 0.2252 -0.0165
vn 0.9902 -0.1074 -0.0891
vn -0.1995 -0.9430 -0.2663
vn -0.1963 -0.9435 -0.2670
vn -0.9911 -0.1077 0.0786
vn -0.9844 0.1206 0.1281
vn -0.9844 0.1206 0.1280
vn 0.2310 0.9373 0.2609
vn 0.1942 0.9431 0.2698
vn 0.2379 0.9692 0.0641
vn 0.2128 0.9727 0.0923
vn 0.7141 -0.2209 -0.6643
vn 0.7141 -0.2208 -0.6643
vn 0.7350 -0.1148 -0.6683
vn -0.3502 -0.9358 0.0411
vn -0.2301 -0.9676 -0.1038
vn -0.7023 0.2369 0.6713
vn -0.7320 0.0953 0.6746
vn -0.7320 0.0954 0.6746
vn 0.2977 0.9541 0.0339
vn 0.2981 0.9539 0.0341
vn 0.3143 0.9485 -0.0398
vn 0.1381 0.0636 -0.9884
vn -0.2521 -0.9666 0.0472
vn -0.2479 -0.9683 0.0300
vn -0.1110 -0.0669 0.9916
vn -0.1110 -0.0670 0.9916
vn -0.0914 0.0729 0.9931
vn 0.1715 0.9731 -0.1540
vn 0.1611 0.9742 -0.1583
vn -0.9719 -0.0134 -0.2349
vn -0.9719 -0.0133 -0.2349
vn -0.9680 0.0741 -0.2399
vn -0.1115 -0.9897 0.0897
vn -0.1115 -0.9897 0.0896
vn -0.0477 -0.9923 0.1142
vn 0.9652 -0.0095 0.2613
vn 0.9431 -0.1946 0.2696
vn -0.4167 0.5138 -0.7499
vn -0.3385 0.4964 -0.7994
vn -0.3385 0.4963 -0.7994
vn -0.7210 -0.1035 0.6852
vn -0.7209 -0.1035 0.6852
vn -0.7485 -0.0756 0.6588
vn 0.8219 -0.5010 0.2711
vn 0.3377 -0.4865 0.8058
vn 0.8201 -0.1363 -0.5557
vn 0.8201 -0.1364 -0.5557
vn 0.6525 0.0672 -0.7548
vn -0.0327 0.0230 0.9992
vn 0.0056 -0.0330 0.9994
vn 0.6710 -0.7415 0.0026
vn 0.6472 -0.7353 0.2011
vn -0.0523 -0.0583 -0.9969
vn -0.1005 0.0162 -0.9948
vn -0.6936 0.7133 -0.1005
vn -0.6804 0.7093 -0.1841
vn -0.6805 0.7093 -0.1841
vn -0.7338 0.6760 0.0671
vn -0.5613 0.6444 0.5193
vn 0.3892 0.0059 0.9211
vn 0.4618 -0.0956 0.8818
vn 0.7242 -0.6887 -0.0353
vn 0.5465 -0.6715 -0.5005
vn -0.3966 -0.1079 -0.9116
vn -0.3966 -0.1078 -0.9116
vn -0.5366 0.0702 -0.8409
vn -0.5366 0.0701 -0.8409
vn -0.4723 0.8814 -0.0083
vn -0.4704 0.8824 -0.0077
vn -0.3631 0.8966 -0.2536
vn -0.6014 -0.0588 0.7967
vn -0.6014 -0.0588 0.7968
vn -0.6589 0.2088 0.7226
vn -0.6589 0.2088 0.7227
vn 0.4844 -0.8748 0.0099
vn 0.4844 -0.8748 0.0100
vn 0.3419 -0.8907 0.2995
vn 0.5081 -0.0103 -0.8612
vn 0.5422 -0.1662 -0.8236
vn 0.5422 -0.1663 -0.8236
vn 0.5043 -0.8147 0.2863
vn 0.5740 -0.6684 0.4730
vn 0.6042 -0.5249 0.5995
vn 0.5417 -0.1106 0.8332
vn 0.5599 -0.1622 0.8125
vn 0.3816 0.6982 0.6057
vn 0.4238 0.5880 0.6889
vn 0.1583 0.9684 0.1925
vn 0.3330 0.7680 0.5471
vn 0.1637 0.9327 0.3212
vn 0.1997 0.9073 0.3702
vn 0.2586 0.4903 0.8323
vn 0.2669 0.4197 0.8676
vn 0.3945 0.8364 0.3805
vn 0.3887 0.7717 0.5034
vn 0.3904 0.9183 -0.0660
vn 0.3941 0.9140 -0.0967
vn 0.3862 0.8509 -0.3562
vn 0.3867 0.8524 -0.3519
vn 0.3051 0.3563 -0.8832
vn 0.2834 0.3539 -0.8913
vn 0.2863 0.3543 -0.8902
vn 0.2752 0.1932 -0.9418
vn 0.2789 0.1032 -0.9548
vn 0.2895 -0.3124 -0.9048
vn 0.2990 -0.3871 -0.8722
vn 0.3163 -0.6619 -0.6796
vn 0.1215 -0.9916 -0.0436
vn 0.1903 -0.9814 0.0270
vn 0.2290 -0.9712 0.0653
vn 0.3286 -0.9358 0.1275
vn 0.3295 -0.9323 0.1491
vn 0.2486 -0.9686 -0.0002
vn 0.1948 -0.9788 -0.0627
vn 0.1879 -0.9245 0.3317
vn 0.1190 -0.9620 0.2455
vn 0.4556 -0.6075 0.6507
vn 0.4924 -0.8698 -0.0312
vn 0.4956 -0.8454 -0.1995
vn 0.5631 -0.7995 -0.2091
vn 0.6018 -0.7986 -0.0040
vn 0.5415 -0.8404 -0.0220
vn 0.4289 -0.8871 0.1707
vn 0.6318 -0.7193 0.2888
vn 0.6733 -0.7131 0.1957
vn 0.4294 -0.7733 0.4665
vn 0.5982 -0.7292 0.3323
vn 0.7098 -0.6179 0.3382
vn 0.7471 -0.5602 0.3577
vn 0.8899 -0.3386 -0.3057
vn 0.9517 -0.3052 0.0351
vn 0.6733 -0.7130 0.1957
vn 0.8712 -0.2259 0.4358
vn 0.8227 -0.1989 0.5326
vn 0.9399 -0.1939 0.2812
vn 0.9256 -0.2444 0.2890
vn 0.8807 0.2442 -0.4060
vn 0.9878 0.1560 -0.0000
vn 0.8612 0.1126 0.4956
vn 0.7731 0.0817 0.6290
vn 0.7972 0.5504 0.2481
vn 0.8761 0.4084 0.2562
vn 0.7977 0.4227 -0.4301
vn 0.9381 0.3458 -0.0181
vn 0.8363 0.1989 0.5109
vn 0.7423 0.1843 0.6442
vn 0.6764 0.6936 0.2480
vn 0.4745 0.8124 0.3387
vn 0.0610 -0.9915 -0.1145
vn 0.4757 -0.8430 -0.2512
vn 0.5302 -0.7972 -0.2889
vn 0.7880 -0.4054 -0.4634
vn 0.7450 0.2579 -0.6151
vn 0.6178 0.4269 -0.6603
vn 0.3144 0.6690 -0.6735
vn -0.0132 -0.9977 -0.0666
vn -0.0181 -0.9950 -0.0986
vn 0.6729 -0.7388 0.0377
vn 0.6747 -0.7368 0.0430
vn 0.7841 0.6205 -0.0129
vn 0.7916 0.6105 0.0257
vn -0.0162 0.9951 -0.0971
vn -0.0121 0.9976 -0.0676
vn -0.0104 -0.9969 -0.0786
vn -0.0011 -0.9996 -0.0285
vn 0.6072 -0.7944 -0.0159
vn 0.6070 -0.7946 -0.0149
vn 0.7840 0.6190 -0.0477
vn 0.7778 0.6250 -0.0667
vn -0.0014 0.9995 -0.0311
vn -0.0090 0.9970 -0.0769
vn -0.0422 -0.9846 -0.1699
vn -0.0251 -0.9952 -0.0947
vn 0.6451 -0.7529 -0.1304
vn 0.6518 -0.7386 -0.1718
vn 0.8353 0.5381 -0.1131
vn 0.8352 0.5315 -0.1412
vn -0.0234 0.9949 -0.0979
vn -0.0377 0.9852 -0.1671
vn 0.2340 -0.9056 0.3539
vn 0.1900 -0.9276 0.3217
vn 0.2340 -0.9055 0.3539
vn -0.3985 -0.1449 -0.9057
vn -0.5919 -0.3136 -0.7425
vn -0.5919 -0.3137 -0.7425
vn -0.7063 0.6555 0.2675
vn 0.6343 0.2996 -0.7127
vn 0.6343 0.2997 -0.7126
vn -0.6673 -0.0953 0.7387
vn 0.0196 0.3080 0.9512
vn -0.6168 0.0891 0.7820
vn -0.3689 0.1210 0.9216
vn -0.1337 -0.9896 -0.0535
vn -0.0721 -0.9968 0.0343
vn -0.0721 -0.9968 0.0342
vn 0.1287 -0.0879 -0.9878
vn 0.1587 -0.0796 -0.9841
vn -0.7142 0.6297 -0.3056
vn -0.5668 0.8236 -0.0184
vn -0.5668 0.8236 -0.0183
vn -0.9748 0.1245 -0.1853
vn -0.8510 0.3265 0.4113
vn -0.2034 -0.9777 -0.0525
vn -0.3515 -0.9184 -0.1814
vn -0.3515 -0.9184 -0.1813
vn -0.5072 0.0077 -0.8618
vn -0.0140 0.1152 -0.9932
vn -0.9872 0.1020 -0.1227
vn -0.3609 0.8917 0.2730
vn -0.7417 0.0248 0.6703
vn -0.7426 0.0240 0.6693
vn 0.0914 -0.9956 -0.0183
vn -0.0940 -0.9920 -0.0847
vn -0.0940 -0.9920 -0.0846
vn -0.5678 0.0820 -0.8191
vn -0.7433 0.0022 -0.6690
vn -0.7672 0.6389 -0.0564
vn -0.4709 0.8507 0.2337
vn -0.4709 0.8507 0.2338
vn -0.7672 0.6390 -0.0563
vn -0.4795 0.2110 0.8518
vn -0.3500 0.5503 0.7581
vn -0.3501 0.5503 0.7580
vn -0.4796 0.2110 0.8518
vn -0.6706 0.4212 0.6107
vn -0.9654 0.2192 0.1416
vn -0.9654 0.2191 0.1416
vn -0.2186 0.9643 0.1493
vn -0.1430 0.9876 0.0644
vn -0.2187 0.9643 0.1493
vn 0.3097 0.1646 0.9365
vn -0.9482 0.0735 0.3092
vn -0.9482 0.0735 0.3091
vn -0.7069 0.1047 0.6995
vn -0.8253 0.1080 0.5543
vn -0.8252 0.1080 0.5543
vn -0.9725 -0.0970 0.2119
vn -0.9714 -0.1113 0.2096
vn -0.9787 0.1653 -0.1214
vn -0.9275 0.1323 -0.3495
vn -0.9787 0.1653 -0.1215
vn -0.8656 0.4701 0.1727
vn -0.8260 0.5340 0.1805
vn -0.8260 0.5339 0.1805
vn -0.8655 0.4701 0.1727
vn -0.9749 0.1680 -0.1459
vn -0.9312 -0.0132 0.3643
vn -0.7274 0.4479 -0.5198
vn -0.6832 -0.0897 -0.7247
vn -0.6831 -0.0897 -0.7248
vn -0.7274 0.4479 -0.5199
vn -0.9240 0.2053 -0.3227
vn -0.0887 0.0197 -0.9959
vn -0.5137 0.7943 -0.3243
vn -0.1326 0.9848 -0.1126
vn -0.8779 -0.0498 0.4762
vn -0.3056 0.3169 0.8979
vn -0.8780 -0.0498 0.4761
vn -0.7811 -0.4085 0.4722
vn -0.7307 -0.5275 0.4333
vn -0.7811 -0.4085 0.4721
vn -0.6816 -0.1113 0.7232
vn -0.9661 -0.0392 0.2551
vn -0.9661 -0.0393 0.2551
vn -0.7826 -0.2981 0.5466
vn -0.8624 -0.0707 0.5012
vn -0.7826 -0.2981 0.5465
vn 0.1404 -0.5885 -0.7962
vn -0.9802 -0.1873 0.0643
vn -0.1097 0.5328 0.8391
vn 0.9856 0.1637 0.0422
vn 0.0101 0.0574 0.9983
vn 0.6172 -0.7852 -0.0504
vn -0.1198 -0.1089 -0.9868
vn -0.1256 -0.1096 -0.9860
vn -0.1198 -0.1088 -0.9868
vn -0.6898 0.7224 0.0485
vn -0.9672 -0.2218 -0.1240
vn 0.2233 -0.4632 0.8577
vn 0.9888 0.1401 0.0517
vn 0.9888 0.1402 0.0517
vn -0.3205 0.4070 -0.8554
vn -0.3204 0.4070 -0.8554
vn 0.7221 0.0935 0.6855
vn 0.3729 -0.8880 -0.2690
vn -0.7835 -0.1250 -0.6087
vn -0.4166 0.8439 0.3379
vn -0.9742 0.2252 -0.0165
vn -0.9902 -0.1074 -0.0891
vn -0.9902 -0.1073 -0.0891
vn 0.1995 -0.9430 -0.2663
vn 0.1963 -0.9435 -0.2670
vn 0.1995 -0.9430 -0.2662
vn 0.9911 -0.1077 0.0786
vn 0.9844 0.1206 0.1280
vn 0.9844 0.1205 0.1281
vn -0.2310 0.9373 0.2609
vn -0.1942 0.9431 0.2698
vn -0.2379 0.9692 0.0641
vn -0.2128 0.9727 0.0923
vn -0.7141 -0.2209 -0.6643
vn -0.7350 -0.1148 -0.6683
vn 0.3502 -0.9358 0.0411
vn 0.2301 -0.9676 -0.1038
vn 0.7023 0.2369 0.6713
vn 0.7320 0.0953 0.6746
vn 0.7320 0.0954 0.6746
vn -0.2982 0.9539 0.0340
vn -0.3143 0.9485 -0.0398
vn -0.3143 0.9485 -0.0399
vn -0.2981 0.9539 0.0341
vn -0.1381 0.0636 -0.9884
vn 0.2521 -0.9666 0.0472
vn 0.2479 -0.9683 0.0300
vn 0.1110 -0.0669 0.9916
vn 0.0914 0.0729 0.9931
vn 0.1110 -0.0670 0.9916
vn -0.1715 0.9731 -0.1540
vn -0.1611 0.9742 -0.1583
vn 0.9719 -0.0134 -0.2349
vn 0.9680 0.0741 -0.2399
vn 0.1115 -0.9897 0.0897
vn 0.0477 -0.9923 0.1142
vn 0.1115 -0.9897 0.0896
vn -0.9652 -0.0095 0.2613
vn -0.9431 -0.1946 0.2696
vn -0.9431 -0.1946 0.2697
vn -0.9652 -0.0096 0.2613
vn 0.4167 0.5138 -0.7499
vn 0.3385 0.4963 -0.7994
vn 0.3385 0.4964 -0.7994
vn 0.7210 -0.1035 0.6852
vn 0.7485 -0.0756 0.6588
vn -0.8219 -0.5010 0.2711
vn -0.3377 -0.4865 0.8058
vn -0.8201 -0.1363 -0.5557
vn -0.6525 0.0672 -0.7548
vn -0.8201 -0.1364 -0.5557
vn 0.0327 0.0230 0.9992
vn -0.0056 -0.0330 0.9994
vn 0.0327 0.0231 0.9992
vn -0.6710 -0.7415 0.0026
vn -0.6472 -0.7353 0.2011
vn 0.0523 -0.0583 -0.9969
vn 0.1005 0.0162 -0.9948
vn 0.6936 0.7133 -0.1005
vn 0.6805 0.7093 -0.1841
vn 0.6804 0.7093 -0.1841
vn 0.7338 0.6760 0.0672
vn 0.5613 0.6444 0.5193
vn 0.7338 0.6760 0.0671
vn -0.3892 0.0059 0.9211
vn -0.4618 -0.0956 0.8818
vn -0.7242 -0.6887 -0.0353
vn -0.5465 -0.6715 -0.5005
vn 0.3966 -0.1079 -0.9116
vn 0.5366 0.0701 -0.8409
vn 0.5366 0.0702 -0.8409
vn 0.3966 -0.1078 -0.9116
vn 0.4723 0.8814 -0.0083
vn 0.3631 0.8966 -0.2536
vn 0.6015 -0.0588 0.7967
vn 0.6589 0.2088 0.7227
vn 0.6589 0.2088 0.7226
vn 0.6014 -0.0588 0.7968
vn -0.4844 -0.8748 0.0099
vn -0.3419 -0.8907 0.2995
vn -0.4844 -0.8748 0.0100
vn -0.5081 -0.0103 -0.8612
vn -0.5422 -0.1662 -0.8236
vn -0.5043 -0.8147 0.2863
vn -0.6042 -0.5249 0.5995
vn -0.5740 -0.6684 0.4730
vn -0.5599 -0.1622 0.8125
vn -0.5417 -0.1106 0.8332
vn -0.4238 0.5880 0.6889
vn -0.3816 0.6982 0.6057
vn -0.1583 0.9684 0.1925
vn -0.3330 0.7680 0.5471
vn -0.1997 0.9073 0.3702
vn -0.1637 0.9327 0.3212
vn -0.2586 0.4903 0.8323
vn -0.3887 0.7717 0.5034
vn -0.3945 0.8364 0.3805
vn -0.2668 0.4197 0.8676
vn -0.3904 0.9183 -0.0660
vn -0.3867 0.8524 -0.3519
vn -0.3862 0.8509 -0.3562
vn -0.3941 0.9140 -0.0967
vn -0.3051 0.3563 -0.8832
vn -0.2863 0.3543 -0.8902
vn -0.2834 0.3539 -0.8913
vn -0.2789 0.1032 -0.9548
vn -0.2752 0.1932 -0.9418
vn -0.2990 -0.3871 -0.8722
vn -0.2895 -0.3124 -0.9048
vn -0.3163 -0.6619 -0.6796
vn -0.1215 -0.9916 -0.0436
vn -0.2290 -0.9712 0.0653
vn -0.1903 -0.9814 0.0270
vn -0.3286 -0.9358 0.1274
vn -0.1948 -0.9788 -0.0627
vn -0.2486 -0.9686 -0.0002
vn -0.3295 -0.9323 0.1491
vn -0.1879 -0.9245 0.3317
vn -0.4556 -0.6075 0.6507
vn -0.1190 -0.9620 0.2456
vn -0.4924 -0.8698 -0.0312
vn -0.6018 -0.7986 -0.0040
vn -0.5631 -0.7995 -0.2091
vn -0.4956 -0.8454 -0.1995
vn -0.5415 -0.8404 -0.0220
vn -0.6733 -0.7130 0.1957
vn -0.6318 -0.7193 0.2888
vn -0.4289 -0.8871 0.1706
vn -0.4294 -0.7733 0.4665
vn -0.7471 -0.5602 0.3577
vn -0.7098 -0.6179 0.3382
vn -0.5982 -0.7292 0.3323
vn -0.9517 -0.3052 0.0351
vn -0.8899 -0.3386 -0.3057
vn -0.8227 -0.1989 0.5326
vn -0.8712 -0.2259 0.4358
vn -0.7472 -0.5601 0.3577
vn -0.9256 -0.2444 0.2890
vn -0.9397 -0.1938 0.2818
vn -0.7099 -0.6178 0.3382
vn -0.9878 0.1560 -0.0000
vn -0.8807 0.2442 -0.4060
vn -0.7731 0.0817 0.6290
vn -0.8612 0.1126 0.4956
vn -0.8761 0.4084 0.2562
vn -0.7972 0.5504 0.2480
vn -0.9381 0.3458 -0.0181
vn -0.7977 0.4227 -0.4301
vn -0.7423 0.1843 0.6442
vn -0.8363 0.1989 0.5109
vn -0.4745 0.8124 0.3387
vn -0.6764 0.6936 0.2480
vn -0.0610 -0.9915 -0.1145
vn -0.5302 -0.7972 -0.2889
vn -0.4757 -0.8430 -0.2512
vn -0.7880 -0.4054 -0.4634
vn -0.7450 0.2579 -0.6151
vn -0.6178 0.4269 -0.6603
vn -0.3144 0.6690 -0.6735
vn 0.0132 -0.9977 -0.0666
vn 0.0181 -0.9950 -0.0986
vn -0.6747 -0.7368 0.0430
vn -0.6729 -0.7388 0.0377
vn -0.7916 0.6105 0.0257
vn -0.7841 0.6205 -0.0129
vn 0.0121 0.9976 -0.0676
vn 0.0162 0.9951 -0.0971
vn 0.0104 -0.9969 -0.0786
vn 0.0011 -0.9996 -0.0285
vn -0.6070 -0.7946 -0.0149
vn -0.6072 -0.7944 -0.0159
vn -0.7778 0.6250 -0.0667
vn -0.7840 0.6190 -0.0477
vn 0.0090 0.9970 -0.0769
vn 0.0014 0.9995 -0.0312
vn 0.0251 -0.9952 -0.0947
vn 0.0422 -0.9846 -0.1699
vn -0.6451 -0.7529 -0.1304
vn -0.6518 -0.7386 -0.1718
vn -0.8353 0.5381 -0.1131
vn -0.8353 0.5314 -0.1412
vn 0.0234 0.9949 -0.0979
vn 0.0377 0.9852 -0.1671
vt 0.108134 0.062618
vt 0.092483 0.063887
vt 0.129818 0.052934
vt 0.121705 0.061360
vt 0.034795 0.792682
vt 0.042703 0.853649
vt 0.012224 0.821716
vt 0.002000 0.793484
vt 0.116539 0.135167
vt 0.121127 0.151669
vt 0.085189 0.128858
vt 0.097918 0.132126
vt 0.502583 0.821008
vt 0.503450 0.825449
vt 0.471412 0.826540
vt 0.458717 0.810333
vt 0.171188 0.086540
vt 0.171054 0.087361
vt 0.169370 0.072506
vt 0.175621 0.077312
vt 0.179761 0.066342
vt 0.176403 0.078196
vt 0.170818 0.122960
vt 0.178285 0.146945
vt 0.169805 0.127454
vt 0.169825 0.117088
vt 0.156687 0.150315
vt 0.164097 0.131259
vt 0.169350 0.103214
vt 0.171846 0.119063
vt 0.184003 0.076033
vt 0.210052 0.088179
vt 0.194893 0.086085
vt 0.082617 0.799911
vt 0.086228 0.832721
vt 0.077924 0.819785
vt 0.061832 0.790377
vt 0.208450 0.132006
vt 0.204893 0.113128
vt 0.059263 0.829367
vt 0.060227 0.786388
vt 0.149959 0.064482
vt 0.158335 0.069021
vt 0.169426 0.086402
vt 0.169392 0.082517
vt 0.141832 0.141181
vt 0.149015 0.139996
vt 0.755282 0.517679
vt 0.707591 0.536114
vt 0.699816 0.519846
vt 0.759578 0.504245
vt 0.668834 0.536302
vt 0.671146 0.523511
vt 0.626784 0.514968
vt 0.637824 0.509909
vt 0.612537 0.517584
vt 0.606176 0.507604
vt 0.394430 0.558808
vt 0.395402 0.561789
vt 0.377831 0.508874
vt 0.384720 0.515153
vt 0.424974 0.530847
vt 0.419954 0.535816
vt 0.423911 0.596869
vt 0.420633 0.583461
vt 0.970161 0.371130
vt 0.976292 0.375866
vt 0.976354 0.381454
vt 0.971348 0.375649
vt 0.989137 0.427488
vt 0.981691 0.403039
vt 0.974109 0.387515
vt 0.975869 0.389503
vt 0.973126 0.383025
vt 0.279627 0.741471
vt 0.271616 0.743731
vt 0.266073 0.709986
vt 0.276841 0.719363
vt 0.422818 0.952815
vt 0.472377 0.948866
vt 0.461524 0.956669
vt 0.431824 0.962111
vt 0.480434 0.994760
vt 0.468182 0.981789
vt 0.292695 0.768921
vt 0.284748 0.789388
vt 0.750832 0.249935
vt 0.737965 0.228632
vt 0.931525 0.077025
vt 0.713931 0.226290
vt 0.846956 0.002000
vt 0.696225 0.242213
vt 0.552337 0.005874
vt 0.672215 0.243417
vt 0.391735 0.546684
vt 0.395639 0.522089
vt 0.393600 0.548895
vt 0.399330 0.537690
vt 0.395148 0.550939
vt 0.974634 0.380812
vt 0.974698 0.380953
vt 0.974672 0.381014
vt 0.974733 0.381229
vt 0.972939 0.381832
vt 0.793061 0.894949
vt 0.789853 0.870678
vt 0.987753 0.780367
vt 0.203566 0.820533
vt 0.192263 0.843245
vt 0.002000 0.737660
vt 0.187792 0.867902
vt 0.806512 0.916597
vt 0.742999 0.503225
vt 0.620467 0.478775
vt 0.580167 0.997447
vt 0.576387 0.968561
vt 0.417508 0.912760
vt 0.417020 0.938922
vt 0.418473 0.882491
vt 0.578790 0.945821
vt 0.974665 0.385868
vt 0.521877 0.847694
vt 0.583917 0.530085
vt 0.821964 0.835906
vt 0.804197 0.859438
vt 0.774999 0.847118
vt 0.162498 0.638116
vt 0.133630 0.607738
vt 0.433300 0.270210
vt 0.450888 0.269015
vt 0.412071 0.652626
vt 0.165148 0.695199
vt 0.168610 0.655491
vt 0.863037 0.152707
vt 0.896081 0.137470
vt 0.937186 0.130320
vt 0.964226 0.132769
vt 0.829675 0.178477
vt 0.011046 0.736951
vt 0.015638 0.721935
vt 0.002000 0.682172
vt 0.433098 0.682885
vt 0.445088 0.680082
vt 0.746049 0.952116
vt 0.986613 0.829157
vt 0.988263 0.872690
vt 0.737933 0.998000
vt 0.054863 0.037342
vt 0.076811 0.037085
vt 0.028027 0.069400
vt 0.006409 0.069984
vt 0.038328 0.094686
vt 0.005706 0.087729
vt 0.034400 0.110753
vt 0.002000 0.106574
vt 0.047129 0.141226
vt 0.022512 0.137989
vt 0.076889 0.162269
vt 0.062647 0.175784
vt 0.192956 0.190007
vt 0.204236 0.171273
vt 0.293269 0.216005
vt 0.264942 0.279204
vt 0.345286 0.293036
vt 0.351775 0.200888
vt 0.418379 0.192808
vt 0.441733 0.263481
vt 0.514160 0.185233
vt 0.501106 0.163548
vt 0.492838 0.116406
vt 0.543278 0.151545
vt 0.540821 0.077244
vt 0.490454 0.094670
vt 0.529203 0.061304
vt 0.490083 0.068427
vt 0.517331 0.045922
vt 0.488462 0.034751
vt 0.497412 0.029902
vt 0.415275 0.002000
vt 0.416771 0.031028
vt 0.336305 0.056382
vt 0.312170 0.003233
vt 0.263037 0.015768
vt 0.283830 0.052846
vt 0.214025 0.054397
vt 0.210457 0.034709
vt 0.082097 0.019750
vt 0.093166 0.032974
vt 0.413895 0.074347
vt 0.338159 0.085654
vt 0.299448 0.081687
vt 0.413628 0.098058
vt 0.341025 0.106994
vt 0.296282 0.107741
vt 0.092679 0.087244
vt 0.414885 0.138540
vt 0.344598 0.146635
vt 0.292296 0.157742
vt 0.089798 0.110605
vt 0.115543 0.008622
vt 0.123600 0.027387
vt 0.103850 0.173835
vt 0.091948 0.192786
vt 0.159696 0.015156
vt 0.163365 0.035890
vt 0.145072 0.178718
vt 0.136286 0.199382
vt 0.187494 0.042924
vt 0.184377 0.020023
vt 0.171465 0.175919
vt 0.163643 0.199863
s 1
usemtl initialShadingGroup1
f 12/1/1 1/2/2 9/3/3 11/4/3
f 9/5/4 10/6/4 13/7/5 11/8/5
f 13/9/6 10/10/7 2/11/8 14/12/8
f 14/13/9 2/14/10 1/15/11 12/16/11
f 16/17/12 4/18/12 3/19/13 15/20/13
f 15/20/14 3/19/14 5/21/15 17/22/15
f 5/23/16 6/24/16 18/25/17 17/26/17
f 6/24/18 4/27/18 16/28/19 18/25/20
f 20/29/21 6/24/22 5/23/23 19/30/23
f 19/31/24 5/21/24 7/32/25 21/33/25
f 7/34/26 8/35/26 22/36/27 21/37/27
f 8/38/28 6/24/28 20/29/29 22/39/30
f 24/40/31 10/6/31 9/5/32 23/41/32
f 23/42/33 9/3/33 3/19/34 25/43/34
f 3/19/35 4/18/35 26/44/36 25/45/37
f 4/27/38 10/10/39 24/46/40 26/47/40
f 65/48/41 66/49/41 48/50/42 49/51/43
f 48/50/44 66/49/45 63/52/46 47/53/46
f 63/52/47 64/54/48 50/55/49 47/53/49
f 50/55/50 64/54/50 65/56/51 49/57/52
f 55/58/53 67/59/53 68/60/54 58/61/55
f 68/60/56 69/62/56 57/63/57 58/61/57
f 57/63/58 69/62/58 70/64/59 56/65/59
f 70/64/60 67/59/61 55/58/62 56/65/62
f 72/66/63 73/67/63 62/68/64 59/69/64
f 73/67/65 74/70/65 61/71/66 62/68/67
f 61/71/68 74/70/68 71/72/69 60/73/69
f 60/74/70 71/72/70 72/66/71 59/69/71
f 51/75/72 76/76/72 77/77/73 54/78/73
f 77/79/74 78/80/74 53/81/75 54/82/75
f 78/80/76 75/83/77 52/84/78 53/81/78
f 52/85/79 75/86/80 76/76/81 51/75/81
f 32/87/82 31/88/82 27/89/82
f 31/88/83 33/90/83 27/91/83
f 33/90/84 34/92/84 27/93/84
f 34/92/85 32/94/85 27/93/85
f 36/95/86 35/96/86 28/97/86
f 35/96/87 37/98/87 28/97/87
f 37/98/88 38/99/89 28/97/90
f 38/99/91 36/95/91 28/97/91
f 40/100/92 39/101/92 29/102/92
f 39/101/93 41/103/93 29/102/93
f 41/103/94 42/104/94 29/102/94
f 42/104/95 40/100/95 29/102/95
f 44/105/96 43/106/96 30/107/96
f 43/108/97 45/109/97 30/110/97
f 45/109/98 46/111/98 30/110/98
f 46/112/99 44/105/99 30/107/99
f 48/50/100 47/53/100 33/90/101 31/88/101
f 49/113/102 48/50/102 31/88/103 32/87/103
f 34/92/104 50/55/104 49/114/105 32/94/106
f 33/90/107 47/53/107 50/55/108 34/92/108
f 46/112/109 52/115/109 51/116/110 44/105/110
f 53/117/111 52/118/112 46/111/113 45/109/113
f 54/119/114 53/117/114 45/109/115 43/108/115
f 44/105/116 51/116/116 54/120/117 43/106/118
f 56/65/119 55/58/120 36/95/121 38/99/121
f 57/63/122 56/65/122 38/99/89 37/98/88
f 35/96/123 58/61/123 57/63/124 37/98/124
f 36/95/125 55/58/126 58/61/127 35/96/127
f 60/74/128 59/69/128 40/100/129 42/104/129
f 61/121/130 60/74/131 42/104/132 41/103/132
f 39/101/133 62/68/134 61/121/135 41/103/135
f 40/100/136 59/69/136 62/68/137 39/101/137
f 63/52/138 13/122/138 14/13/139 64/54/140
f 14/13/141 12/16/142 65/123/143 64/54/143
f 12/124/144 11/125/144 66/49/145 65/48/145
f 66/49/146 11/125/147 13/126/148 63/52/148
f 16/127/149 15/128/149 68/60/150 67/59/150
f 68/60/151 15/129/151 17/130/152 69/62/152
f 69/131/153 17/132/153 18/133/154 70/64/154
f 18/133/155 16/127/155 67/59/156 70/64/157
f 22/134/158 20/135/158 72/66/159 71/72/159
f 20/135/160 19/136/160 73/67/161 72/66/161
f 73/67/162 19/136/162 21/137/163 74/70/163
f 74/70/164 21/138/165 22/134/166 71/72/167
f 75/86/168 26/139/169 24/140/170 76/76/170
f 24/140/171 23/141/172 77/77/173 76/76/174
f 23/142/175 25/143/176 78/80/177 77/79/177
f 78/144/178 25/145/178 26/146/179 75/147/180
f 79/148/181 80/149/181 82/150/182 81/151/183
f 81/151/183 82/150/182 84/152/184 83/153/185
f 83/153/185 84/152/184 86/154/186 85/155/187
f 85/155/187 86/154/186 88/156/188 87/157/188
f 87/157/189 88/156/189 126/158/190 127/159/191
f 89/160/192 90/161/193 122/162/194 123/163/195
f 91/164/196 92/165/197 115/166/198 116/167/199
f 93/168/200 94/169/200 96/170/201 95/171/202
f 95/172/202 96/170/201 98/173/203 97/174/204
f 97/174/204 98/173/203 100/175/205 99/176/206
f 99/176/206 100/175/205 102/177/207 101/178/207
f 110/179/208 111/180/208 104/181/209 103/182/210
f 117/183/211 118/184/212 106/185/213 105/186/214
f 124/187/215 125/188/216 80/149/217 79/148/217
f 104/181/218 111/180/219 112/189/220 107/190/221
f 106/185/222 118/184/223 119/191/224 7/32/225
f 80/149/226 125/188/227 1/2/228 82/150/229
f 107/190/221 112/189/220 113/192/230 108/193/231
f 7/32/232 119/191/224 120/194/233 22/39/234
f 82/150/229 1/2/228 14/195/235 84/152/236
f 108/193/231 113/192/230 114/196/237 109/197/238
f 22/39/234 120/194/233 121/198/239 8/38/240
f 84/152/236 14/199/235 2/11/241 86/154/242
f 109/197/238 114/196/237 115/166/243 92/165/244
f 8/38/240 121/198/239 122/162/245 90/161/246
f 86/154/242 2/11/241 126/158/247 88/156/248
f 101/178/249 102/177/249 111/180/208 110/179/208
f 112/189/220 111/180/219 102/177/250 100/175/251
f 113/192/230 112/189/220 100/175/251 98/173/252
f 114/196/237 113/192/230 98/173/252 96/170/253
f 115/166/243 114/196/237 96/170/253 94/169/254
f 116/167/199 115/166/198 94/169/255 93/168/255
f 103/182/210 104/181/209 118/184/212 117/183/211
f 119/191/224 118/184/223 104/181/218 107/190/221
f 120/194/233 119/191/224 107/190/221 108/193/231
f 121/198/239 120/194/233 108/193/231 109/197/238
f 122/162/245 121/198/239 109/197/238 92/165/244
f 123/163/195 122/162/194 92/165/197 91/164/196
f 128/200/256 129/201/257 125/188/216 124/187/215
f 1/2/228 125/188/227 129/201/258 9/3/259
f 126/158/247 2/11/241 10/10/260 130/202/261
f 127/159/191 126/158/190 130/202/262 131/203/263
f 136/204/264 137/205/265 129/201/257 128/200/256
f 9/3/259 129/201/258 137/205/266 3/19/267
f 130/202/261 10/10/260 4/27/268 138/206/269
f 131/203/263 130/202/262 138/206/270 139/207/271
f 105/186/214 106/185/213 133/208/272 132/209/273
f 5/21/274 133/208/275 106/185/222 7/32/225
f 134/210/276 6/24/277 8/38/240 90/161/246
f 135/211/278 134/210/279 90/161/193 89/160/192
f 132/209/273 133/208/272 137/205/265 136/204/264
f 3/19/267 137/205/266 133/208/275 5/21/274
f 138/206/269 4/27/268 6/24/277 134/210/276
f 139/207/271 138/206/270 134/210/279 135/211/278
f 140/1/280 143/4/281 142/3/281 141/2/282
f 142/5/283 143/8/284 145/7/285 144/6/283
f 145/9/286 147/12/287 146/11/288 144/10/286
f 147/13/289 140/16/290 141/15/290 146/14/289
f 148/17/291 151/20/292 150/19/292 149/18/291
f 151/20/293 153/22/294 152/21/295 150/19/293
f 152/23/296 153/26/297 155/25/297 154/24/296
f 154/24/298 155/25/299 148/28/300 149/27/298
f 156/29/301 157/30/302 152/23/302 154/24/301
f 157/31/303 159/33/304 158/32/305 152/21/303
f 158/34/306 159/37/307 161/36/307 160/35/306
f 160/38/308 161/39/309 156/29/309 154/24/308
f 162/40/310 163/41/311 142/5/311 144/6/310
f 163/42/312 164/43/313 150/19/314 142/3/312
f 150/19/315 164/45/316 165/44/316 149/18/315
f 149/27/317 165/47/318 162/46/319 144/10/320
f 166/48/321 169/51/322 168/50/323 167/49/324
f 168/50/325 171/53/326 170/52/327 167/49/325
f 170/52/328 171/53/329 173/55/329 172/54/330
f 173/55/331 169/57/332 166/56/333 172/54/331
f 174/58/334 177/61/335 176/60/336 175/59/334
f 176/60/337 177/61/338 179/63/338 178/62/337
f 179/63/339 181/65/340 180/64/340 178/62/341
f 180/64/342 181/65/343 174/58/344 175/59/345
f 182/66/346 185/69/347 184/68/347 183/67/346
f 183/67/348 184/68/349 187/71/350 186/70/351
f 187/71/352 189/73/353 188/72/353 186/70/352
f 189/74/354 185/69/355 182/66/355 188/72/354
f 190/75/356 193/78/357 192/77/357 191/76/358
f 192/79/359 193/82/360 195/81/360 194/80/361
f 194/80/362 195/81/363 197/84/364 196/83/362
f 197/85/365 190/75/366 191/76/366 196/86/367
f 198/87/368 200/89/368 199/88/368
f 199/88/369 200/91/369 201/90/369
f 201/90/370 200/93/370 202/92/370
f 202/92/371 200/93/371 198/94/371
f 203/95/372 205/97/372 204/96/372
f 204/96/373 205/97/373 206/98/373
f 206/98/374 205/97/375 207/99/376
f 207/99/377 205/97/377 203/95/377
f 208/100/378 210/102/378 209/101/378
f 209/101/379 210/102/379 211/103/379
f 211/103/380 210/102/381 212/104/381
f 212/104/382 210/102/382 208/100/383
f 213/105/384 215/107/384 214/106/384
f 214/108/385 215/110/385 216/109/385
f 216/109/386 215/110/386 217/111/386
f 217/112/387 215/107/387 213/105/387
f 168/50/388 199/88/389 201/90/390 171/53/388
f 169/113/391 198/87/392 199/88/392 168/50/393
f 202/92/394 198/94/395 169/114/396 173/55/394
f 201/90/397 202/92/398 173/55/398 171/53/397
f 217/112/399 213/105/400 190/116/400 197/115/399
f 195/117/401 216/109/402 217/111/402 197/118/401
f 193/119/403 214/108/404 216/109/404 195/117/403
f 213/105/405 214/106/406 193/120/407 190/116/405
f 181/65/408 207/99/409 203/95/410 174/58/411
f 179/63/412 206/98/374 207/99/376 181/65/412
f 204/96/413 206/98/414 179/63/414 177/61/413
f 203/95/415 204/96/416 177/61/416 174/58/417
f 189/74/418 212/104/419 208/100/419 185/69/418
f 187/121/420 211/103/421 212/104/421 189/74/420
f 209/101/422 211/103/423 187/121/423 184/68/424
f 208/100/425 209/101/426 184/68/427 185/69/428
f 170/52/429 172/54/430 147/13/431 145/122/429
f 147/13/432 172/54/433 166/123/433 140/16/432
f 140/124/434 166/48/435 167/49/435 143/125/434
f 167/49/436 170/52/437 145/126/437 143/125/438
f 148/127/439 175/59/440 176/60/440 151/128/441
f 176/60/442 178/62/443 153/130/443 151/129/442
f 178/131/444 180/64/445 155/133/445 153/132/444
f 155/133/446 180/64/447 175/59/448 148/127/446
f 161/134/449 188/72/450 182/66/450 156/135/451
f 156/135/452 182/66/453 183/67/453 157/136/452
f 183/67/454 186/70/455 159/137/455 157/136/454
f 186/70/456 188/72/457 161/134/458 159/138/459
f 196/86/460 191/76/461 162/140/461 165/139/460
f 162/140/462 191/76/463 192/77/464 163/141/465
f 163/142/466 192/79/467 194/80/467 164/143/468
f 194/144/469 196/147/470 165/146/470 164/145/469
f 79/148/471 81/151/472 219/150/473 218/149/471
f 81/151/472 83/153/474 220/152/475 219/150/473
f 83/153/474 85/155/476 221/154/477 220/152/475
f 85/155/476 87/157/478 222/156/478 221/154/477
f 87/157/479 127/159/480 223/158/481 222/156/479
f 89/160/482 123/163/483 225/162/484 224/161/485
f 91/164/486 116/167/487 227/166/488 226/165/489
f 93/168/490 95/171/491 229/170/492 228/169/490
f 95/172/491 97/174/493 230/173/494 229/170/492
f 97/174/493 99/176/495 231/175/496 230/173/494
f 99/176/495 101/178/497 232/177/497 231/175/496
f 110/179/498 103/182/499 234/181/500 233/180/498
f 117/183/501 105/186/502 236/185/503 235/184/504
f 124/187/505 79/148/506 218/149/506 237/188/507
f 234/181/508 239/190/509 238/189/510 233/180/511
f 236/185/512 158/32/513 240/191/514 235/184/515
f 218/149/516 219/150/517 141/2/518 237/188/519
f 239/190/509 242/193/520 241/192/521 238/189/510
f 158/32/513 161/39/522 243/194/523 240/191/514
f 219/150/524 220/152/525 147/195/526 141/2/527
f 242/193/520 245/197/528 244/196/529 241/192/521
f 161/39/522 160/38/530 246/198/531 243/194/523
f 220/152/525 221/154/532 146/11/533 147/199/526
f 245/197/528 226/165/534 227/166/535 244/196/529
f 160/38/530 224/161/536 225/162/537 246/198/531
f 221/154/532 222/156/538 223/158/539 146/11/533
f 101/178/540 110/179/498 233/180/498 232/177/540
f 238/189/510 231/175/541 232/177/542 233/180/511
f 241/192/521 230/173/543 231/175/541 238/189/510
f 244/196/529 229/170/544 230/173/543 241/192/521
f 227/166/535 228/169/545 229/170/544 244/196/529
f 116/167/487 93/168/546 228/169/546 227/166/488
f 103/182/499 117/183/501 235/184/504 234/181/500
f 240/191/514 239/190/509 234/181/508 235/184/515
f 243/194/523 242/193/520 239/190/509 240/191/514
f 246/198/531 245/197/528 242/193/520 243/194/523
f 225/162/537 226/165/534 245/197/528 246/198/531
f 123/163/483 91/164/486 226/165/489 225/162/484
f 128/200/547 124/187/505 237/188/507 247/201/548
f 141/2/518 142/3/549 247/201/550 237/188/519
f 223/158/539 248/202/551 144/10/552 146/11/533
f 127/159/480 131/203/553 248/202/554 223/158/481
f 136/204/555 128/200/547 247/201/548 249/205/556
f 142/3/549 150/19/557 249/205/558 247/201/550
f 248/202/551 250/206/559 149/27/560 144/10/552
f 131/203/553 139/207/561 250/206/562 248/202/554
f 105/186/502 132/209/563 251/208/564 236/185/503
f 152/21/565 158/32/513 236/185/512 251/208/566
f 252/210/567 224/161/536 160/38/530 154/24/568
f 135/211/569 89/160/482 224/161/485 252/210/570
f 132/209/563 136/204/555 249/205/556 251/208/564
f 150/19/557 152/21/565 251/208/566 249/205/558
f 250/206/559 252/210/567 154/24/568 149/27/560
f 139/207/561 135/211/569 252/210/570 250/206/562
