# Blender 5.2.0 LTS
# www.blender.org
mtllib flag.mtl
o Flag_Triangle
v 0.008461 1.712891 0.014094
v 0.007523 2.707250 -0.036651
v 0.000000 1.728204 -0.025000
v 0.012910 1.710026 -0.038649
v 0.052848 1.700140 0.002006
v 0.059763 1.699821 -0.047783
v 0.146352 1.697287 -0.040190
v 0.174631 1.697512 0.015980
v 0.314263 1.707998 0.011320
v 0.373560 1.716523 0.079054
v 0.450778 1.731067 0.043542
v 0.478627 1.737261 0.094722
v 0.585395 1.763480 0.088941
v 0.554084 1.755448 0.042700
v 0.643552 1.779117 0.025986
v 0.678971 1.788646 0.066155
v 0.725296 1.800675 0.001481
v 0.798129 1.818446 0.027551
v 0.829300 1.825480 -0.032098
v 0.838352 2.268558 -0.034895
v 0.879836 1.836170 0.003728
v 0.899418 1.839999 -0.050794
v 0.929560 2.226172 -0.057474
v 0.973749 1.853999 -0.013821
v 0.972630 1.853787 -0.063429
v 1.018640 2.183068 -0.067537
v 1.071275 1.871864 -0.068870
v 1.094985 1.876319 -0.018765
v 1.116864 2.136118 -0.067278
v 1.186688 1.895814 -0.061399
v 1.214800 1.902762 -0.008538
v 1.259029 2.074825 -0.003918
v 1.256825 2.075565 -0.054168
v 1.320906 1.931876 0.001905
v 1.344957 1.939028 -0.045985
v 1.387819 2.027358 -0.043696
v 1.499772 1.988066 0.009392
v 1.499829 1.988073 -0.041055
v 0.002808 2.716965 0.018739
v 0.056372 2.661722 0.000698
v 0.069408 2.652637 -0.048366
v 0.150810 2.597109 -0.038665
v 0.185335 2.574507 0.019343
v 0.281622 2.516989 0.000481
v 0.357191 2.476040 0.074200
v 0.397921 2.455733 0.033693
v 0.450435 2.430844 0.092326
v 0.489312 2.413378 0.045905
v 0.533704 2.394452 0.094590
v 0.591247 2.370970 0.037683
v 0.611134 2.363015 0.083372
v 0.680991 2.335175 0.065548
v 0.691084 2.331419 0.012557
v 0.825060 2.274722 0.018941
v 0.932002 2.224949 -0.007737
v 1.038487 2.173404 -0.018728
v 1.139512 2.125849 -0.015555
v 1.383184 2.028988 0.006061
v -0.000053 -1.021796 0.057684
v 0.000188 -1.021796 -0.058410
v 0.000053 2.728204 0.057684
v 0.000065 2.728204 -0.056330
v 0.034747 2.728204 -0.043315
v 0.049772 -1.021796 -0.027005
v 0.053723 2.728204 -0.015843
v 0.053723 -1.021796 0.015843
v 0.049772 2.728204 0.027005
v 0.034747 -1.021796 0.043315
v -0.034747 2.728204 0.043315
v -0.049772 -1.021796 0.027005
v -0.053723 2.728204 0.015843
v -0.053723 -1.021796 -0.015843
v -0.049772 2.728204 -0.027005
v -0.034747 -1.021796 -0.043315
v -0.000188 2.728204 -0.058411
v -0.000065 -1.021796 -0.056330
vn -0.8284 -0.5587 -0.0395
vn 0.7060 0.7053 -0.0636
vn -0.2685 -0.9628 0.0296
vn 0.6653 0.7456 0.0387
vn -0.2172 -0.9758 -0.0239
vn -0.0295 -0.9996 0.0023
vn -0.0234 -0.9996 0.0158
vn 0.5632 0.8263 -0.0050
vn 0.5638 0.8259 -0.0031
vn 0.5617 0.8273 -0.0104
vn 0.5613 0.8275 -0.0117
vn 0.5164 0.8559 0.0261
vn 0.0737 -0.9967 -0.0331
vn 0.5065 0.8613 -0.0408
vn 0.0767 -0.9954 0.0581
vn 0.4616 0.8869 0.0195
vn 0.1728 -0.9846 -0.0274
vn 0.4378 0.8990 -0.0105
vn 0.4194 0.9078 0.0097
vn 0.1915 -0.9814 0.0146
vn 0.4007 0.9162 -0.0092
vn 0.2388 -0.9710 0.0069
vn 0.2296 -0.9733 -0.0072
vn 0.3847 0.9230 0.0081
vn 0.3698 0.9291 0.0029
vn 0.3759 0.9267 -0.0023
vn 0.3754 0.9269 -0.0022
vn 0.2589 -0.9659 -0.0007
vn 0.2549 -0.9669 -0.0047
vn 0.2547 -0.9670 -0.0026
vn 0.3701 0.9290 0.0013
vn 0.2595 -0.9657 0.0004
vn 0.3693 0.9293 0.0045
vn 0.2560 -0.9667 0.0036
vn 0.3893 0.9210 0.0089
vn 0.2400 -0.9707 -0.0087
vn 0.2344 -0.9721 0.0079
vn 0.3901 0.9207 -0.0091
vn 0.2105 -0.9776 -0.0053
vn 0.2046 -0.9788 0.0033
vn 0.2098 -0.9777 -0.0045
vn 0.2039 -0.9790 0.0045
vn 0.4222 0.9065 0.0014
vn 0.4216 0.9068 0.0004
vn 0.4215 0.9068 0.0002
vn 0.4223 0.9065 0.0015
vn 0.1852 -0.9827 -0.0003
vn 0.1831 -0.9831 -0.0001
vn 0.1861 -0.9825 -0.0022
vn 0.1849 -0.9828 -0.0003
vn 0.4358 0.9001 0.0007
vn 0.4327 0.9015 -0.0052
vn 0.4357 0.9001 0.0008
vn 0.4318 0.9020 0.0032
vn 0.1805 -0.9836 0.0005
vn 0.1811 -0.9835 0.0017
vn 0.4302 0.9027 0.0014
vn 0.4261 0.9047 -0.0069
vn 0.2038 -0.9790 -0.0094
vn 0.2143 -0.9767 0.0144
vn 0.3957 0.9184 0.0062
vn 0.3937 0.9192 -0.0009
vn 0.3929 0.9196 -0.0037
vn 0.3964 0.9180 0.0087
vn 0.2648 -0.9642 -0.0135
vn 0.2656 -0.9640 -0.0106
vn 0.2654 -0.9641 -0.0114
vn 0.2646 -0.9642 -0.0140
vn 0.3464 0.9381 -0.0014
vn 0.3462 0.9382 -0.0008
vn 0.3455 0.9384 0.0008
vn 0.3453 0.9385 0.0014
vn 0.2994 -0.9541 0.0079
vn 0.3013 -0.9535 0.0021
vn 0.3000 -0.9539 0.0062
vn 0.3019 -0.9533 0.0002
vn 0.3310 0.9436 0.0005
vn 0.3312 0.9436 -0.0000
vn 0.3312 0.9436 0.0001
vn -0.7282 -0.0026 -0.6854
vn 0.3168 -0.0026 0.9485
vn 0.2629 0.0003 0.9648
vn -0.1912 0.0009 -0.9816
vn -0.1895 0.0010 -0.9819
vn -0.1866 0.0012 -0.9824
vn -0.1849 0.0013 -0.9828
vn 0.0873 -0.0015 -0.9962
vn -0.1140 0.0018 0.9935
vn 0.1191 0.0011 -0.9929
vn -0.1444 -0.0020 0.9895
vn 0.2916 -0.0007 -0.9565
vn 0.2885 -0.0001 -0.9575
vn 0.2868 0.0002 -0.9580
vn 0.2933 -0.0010 -0.9560
vn -0.3022 -0.0000 0.9532
vn -0.3039 -0.0004 0.9527
vn -0.3027 -0.0001 0.9531
vn -0.3043 -0.0005 0.9526
vn 0.2737 -0.0018 -0.9618
vn 0.2292 0.0035 -0.9734
vn -0.1898 0.0022 0.9818
vn 0.1307 -0.0039 -0.9914
vn -0.1470 -0.0026 0.9891
vn -0.0261 0.0024 0.9997
vn -0.0091 0.0040 -1.0000
vn 0.0552 -0.0044 0.9985
vn -0.0817 -0.0032 -0.9967
vn 0.1446 0.0030 0.9895
vn -0.1844 0.0031 -0.9828
vn 0.2440 -0.0011 0.9698
vn 0.2392 -0.0003 0.9710
vn 0.2466 -0.0016 0.9691
vn 0.2365 0.0002 0.9716
vn -0.2450 -0.0025 -0.9695
vn -0.2875 0.0015 -0.9578
vn 0.3081 -0.0002 0.9513
vn 0.3078 -0.0001 0.9514
vn 0.3078 -0.0001 0.9515
vn 0.3083 -0.0002 0.9513
vn -0.3073 0.0001 -0.9516
vn -0.3072 0.0002 -0.9517
vn -0.3069 0.0003 -0.9518
vn -0.3066 0.0003 -0.9518
vn 0.2796 0.0016 0.9601
vn -0.2575 -0.0008 -0.9663
vn -0.2395 0.0019 -0.9709
vn 0.2405 -0.0036 0.9707
vn 0.1829 0.0045 0.9831
vn -0.1694 -0.0038 -0.9855
vn 0.1003 -0.0050 0.9949
vn -0.1108 0.0031 -0.9938
vn -0.0542 -0.0049 -0.9985
vn 0.0394 0.0074 0.9992
vn 0.0051 0.0051 -1.0000
vn -0.0345 -0.0067 0.9994
vn 0.0657 -0.0053 -0.9978
vn -0.0870 0.0022 0.9962
vn -0.0856 0.0025 0.9963
vn -0.0978 -0.0017 0.9952
vn -0.0976 -0.0016 0.9952
vn 0.0948 0.0030 -0.9955
vn 0.0946 0.0031 -0.9955
vn 0.0960 0.0026 -0.9954
vn -0.0975 -0.0017 0.9952
vn 0.0963 0.0025 -0.9954
vn -0.0775 0.0070 0.9970
vn 0.0757 -0.0109 -0.9971
vn -0.0356 -0.0200 0.9992
vn 0.0279 0.0124 -0.9995
vn -0.9779 -0.0065 0.2091
vn -0.9963 0.0066 -0.0860
vn -0.0000 1.0000 -0.0000
vn 0.3513 0.0005 -0.9362
vn -0.0000 -1.0000 -0.0000
vn 0.5351 -0.0015 -0.8448
vn 0.8228 0.0008 -0.5683
vn 0.9958 -0.0008 -0.0918
vn 0.9958 0.0008 0.0918
vn 0.8228 -0.0008 0.5683
vn 0.5251 0.0016 0.8510
vn 0.3817 -0.0000 0.9243
vn -0.3817 -0.0000 0.9243
vn -0.5251 -0.0016 0.8510
vn -0.8228 0.0008 0.5683
vn -0.9958 -0.0008 0.0918
vn -0.9958 0.0008 -0.0918
vn -0.8228 -0.0008 -0.5683
vn -0.5351 0.0015 -0.8448
vn -0.3513 -0.0005 -0.9362
vt 0.779184 0.268567
vt 0.765076 0.267731
vt 0.775267 0.263699
vt 0.087668 0.499387
vt 0.102397 0.497078
vt 0.097924 0.515501
vt 0.141808 0.901206
vt 0.127769 0.899844
vt 0.138814 0.889871
vt 0.084919 0.519819
vt 0.125578 0.887783
vt 0.128068 0.865041
vt 0.143195 0.857870
vt 0.087969 0.545139
vt 0.103629 0.555534
vt 0.099135 0.584914
vt 0.142717 0.820582
vt 0.119202 0.607175
vt 0.161102 0.804984
vt 0.108622 0.619407
vt 0.152065 0.783870
vt 0.124535 0.634528
vt 0.112365 0.646073
vt 0.165865 0.776571
vt 0.125578 0.658673
vt 0.152421 0.755702
vt 0.164924 0.747396
vt 0.110709 0.675496
vt 0.122993 0.680979
vt 0.148470 0.731128
vt 0.118606 0.701095
vt 0.159379 0.721651
vt 0.104531 0.704222
vt 0.142399 0.708628
vt 0.106938 0.742895
vt 0.149758 0.688894
vt 0.134031 0.680082
vt 0.092656 0.747043
vt 0.143865 0.666545
vt 0.129439 0.660936
vt 0.087123 0.773834
vt 0.100396 0.774315
vt 0.139710 0.641002
vt 0.126479 0.641033
vt 0.098038 0.805699
vt 0.084919 0.800091
vt 0.125578 0.614297
vt 0.139068 0.608149
vt 0.085514 0.828938
vt 0.099423 0.835290
vt 0.128215 0.582992
vt 0.142465 0.575606
vt 0.089748 0.869424
vt 0.103156 0.869799
vt 0.133219 0.539719
vt 0.145849 0.546591
vt 0.106458 0.905028
vt 0.093217 0.906579
vt 0.148862 0.497370
vt 0.135414 0.497078
vt 0.107945 0.937953
vt 0.094497 0.938212
vt 0.779884 0.002666
vt 0.006982 0.019316
vt 0.000000 0.000000
vt 0.240047 0.118566
vt 0.237917 0.130713
vt 0.240047 0.118814
vt 0.477930 -0.000000
vt 0.242782 0.130510
vt 0.471714 0.020320
vt 0.252350 0.151432
vt 0.224339 0.160194
vt 0.468065 0.046388
vt 0.012846 0.060385
vt 0.464969 0.088390
vt 0.275559 0.192013
vt 0.196591 0.205570
vt 0.016419 0.112996
vt 0.464561 0.124475
vt 0.297621 0.222824
vt 0.016378 0.140598
vt 0.465277 0.151450
vt 0.179363 0.228313
vt 0.015384 0.164805
vt 0.315343 0.244054
vt 0.160612 0.250857
vt 0.466685 0.179867
vt 0.013877 0.187053
vt 0.330902 0.261333
vt 0.012388 0.207076
vt 0.143645 0.270386
vt 0.468112 0.206606
vt 0.344870 0.276664
vt 0.010041 0.248739
vt 0.122573 0.295530
vt 0.361956 0.296359
vt 0.468877 0.246058
vt 0.108775 0.313084
vt 0.373046 0.310095
vt 0.468696 0.271243
vt 0.009477 0.280225
vt 0.093530 0.333542
vt 0.384470 0.324946
vt 0.009399 0.311786
vt 0.468409 0.296645
vt 0.400031 0.345598
vt 0.074025 0.360008
vt 0.468516 0.325157
vt 0.009009 0.341551
vt 0.419253 0.370127
vt 0.053705 0.385629
vt 0.007296 0.376141
vt 0.470502 0.365679
vt 0.034345 0.407652
vt 0.448221 0.402801
vt 0.003797 0.411240
vt 0.474342 0.402514
vt 0.000000 0.443961
vt 0.477930 0.433465
vt 0.765076 -0.000000
vt 0.295437 0.463866
vt 0.286706 0.436933
vt 0.295437 0.433465
vt 0.739227 0.999903
vt 0.739478 0.000000
vt 0.749250 0.000001
vt 0.254233 0.433465
vt 0.254233 0.464421
vt 0.241115 0.456075
vt 0.753917 0.999903
vt 0.281928 0.444257
vt 0.639531 0.999912
vt 0.639531 0.000000
vt 0.646856 0.000032
vt 0.240047 0.444652
vt 0.650956 0.999962
vt 0.282921 0.455683
vt 0.658281 0.000082
vt 0.245046 0.437316
vt 0.658281 0.999994
vt 0.597980 0.999907
vt 0.597930 0.000000
vt 0.611234 0.000047
vt 0.607281 0.999941
vt 0.620491 0.000087
vt 0.620491 1.000000
vt 0.268412 0.464421
vt 0.281928 0.453239
vt 0.277165 0.460573
vt 0.620491 0.999910
vt 0.620491 -0.000000
vt 0.627316 0.000026
vt 0.267369 0.441646
vt 0.268412 0.453071
vt 0.631769 0.999954
vt 0.280911 0.441816
vt 0.638789 0.000072
vt 0.263397 0.460396
vt 0.639531 0.999986
vt 0.268412 0.433465
vt 0.756767 0.999905
vt 0.753917 0.000000
vt 0.765076 0.000006
vt 0.254233 0.463866
vt 0.765076 0.999909
s 1
usemtl Material.002
f 4/1/1 1/2/1 3/3/1
f 2/4/2 39/5/2 40/6/2
f 1/7/3 4/8/3 5/9/3
f 41/10/4 2/4/4 40/6/4
f 6/11/5 5/9/5 4/8/5
f 7/12/6 5/9/6 6/11/6
f 5/9/7 7/12/7 8/13/7
f 42/14/8 41/10/9 40/6/10
f 40/6/10 43/15/11 42/14/8
f 44/16/12 42/14/12 43/15/12
f 9/17/13 8/13/13 7/12/13
f 43/15/14 45/18/14 44/16/14
f 8/13/15 9/17/15 10/19/15
f 45/18/16 46/20/16 44/16/16
f 11/21/17 10/19/17 9/17/17
f 45/18/18 47/22/18 46/20/18
f 47/22/19 48/23/19 46/20/19
f 11/21/20 12/24/20 10/19/20
f 47/22/21 49/25/21 48/23/21
f 14/26/22 13/27/22 12/24/22
f 12/24/23 11/21/23 14/26/23
f 50/28/24 48/23/24 49/25/24
f 50/28/25 49/25/26 51/29/27
f 13/27/28 14/26/29 15/30/30
f 51/29/27 52/31/31 50/28/25
f 13/27/28 15/30/30 16/32/32
f 53/33/33 50/28/25 52/31/31
f 16/32/32 15/30/30 17/34/34
f 52/31/35 54/35/35 53/33/35
f 16/32/36 17/34/36 18/36/36
f 18/36/37 17/34/37 19/37/37
f 54/35/38 20/38/38 53/33/38
f 18/36/39 19/37/40 21/39/41
f 22/40/42 21/39/41 19/37/40
f 54/35/43 23/41/44 20/38/45
f 54/35/43 55/42/46 23/41/44
f 22/40/47 24/43/48 21/39/49
f 25/44/50 24/43/48 22/40/47
f 55/42/51 56/45/52 23/41/53
f 26/46/54 23/41/53 56/45/52
f 27/47/55 24/43/48 25/44/50
f 24/43/48 27/47/55 28/48/56
f 29/49/57 26/46/54 56/45/52
f 56/45/52 57/50/58 29/49/57
f 28/48/59 27/47/59 30/51/59
f 28/48/60 30/51/60 31/52/60
f 33/53/61 57/50/62 32/54/63
f 57/50/62 33/53/61 29/49/64
f 35/55/65 34/56/66 31/52/67
f 31/52/67 30/51/68 35/55/65
f 32/54/69 58/57/70 33/53/71
f 36/58/72 33/53/71 58/57/70
f 34/56/73 35/55/74 37/59/75
f 37/59/75 35/55/74 38/60/76
f 36/58/77 58/57/78 37/61/79
f 38/62/77 36/58/77 37/61/79
f 2/63/80 4/1/80 3/3/80
f 40/64/81 39/65/81 1/66/81
f 1/66/82 5/67/82 40/64/82
f 4/68/83 2/69/84 6/70/85
f 41/71/86 6/70/85 2/69/84
f 6/70/87 41/71/87 7/72/87
f 5/67/88 8/73/88 40/64/88
f 7/72/89 41/71/89 42/74/89
f 43/75/90 40/64/90 8/73/90
f 44/76/91 7/72/92 42/74/93
f 7/72/92 44/76/91 9/77/94
f 8/73/95 10/78/96 43/75/97
f 45/79/98 43/75/97 10/78/96
f 9/77/99 44/76/99 46/80/99
f 9/77/100 46/80/100 11/81/100
f 47/82/101 45/79/101 10/78/101
f 48/83/102 11/81/102 46/80/102
f 10/78/103 12/84/103 47/82/103
f 49/85/104 47/82/104 12/84/104
f 48/83/105 14/86/105 11/81/105
f 12/84/106 13/87/106 49/85/106
f 50/88/107 14/86/107 48/83/107
f 51/89/108 49/85/108 13/87/108
f 50/88/109 15/90/109 14/86/109
f 13/87/110 52/91/111 51/89/112
f 13/87/110 16/92/113 52/91/111
f 15/90/114 50/88/114 53/93/114
f 53/93/115 17/94/115 15/90/115
f 16/92/116 54/95/117 52/91/118
f 16/92/116 18/96/119 54/95/117
f 17/94/120 53/93/121 19/97/122
f 19/97/122 53/93/121 20/98/123
f 54/95/124 18/96/124 21/99/124
f 19/97/125 20/98/125 22/100/125
f 22/100/126 20/98/126 23/101/126
f 21/99/127 55/102/127 54/95/127
f 21/99/128 24/103/128 55/102/128
f 22/100/129 23/101/129 25/104/129
f 56/105/130 55/102/130 24/103/130
f 26/106/131 25/104/131 23/101/131
f 25/104/132 26/106/132 27/107/132
f 24/103/133 28/108/133 56/105/133
f 27/107/134 26/106/134 29/109/134
f 28/108/135 57/110/135 56/105/135
f 27/107/136 29/109/136 30/111/136
f 57/110/137 28/108/138 31/112/139
f 32/113/140 57/110/137 31/112/139
f 30/111/141 29/109/142 33/114/143
f 31/112/139 34/115/144 32/113/140
f 33/114/143 35/116/145 30/111/141
f 34/115/146 58/117/146 32/113/146
f 36/118/147 35/116/147 33/114/147
f 58/117/148 34/115/148 37/119/148
f 36/118/149 38/120/149 35/116/149
f 3/3/150 1/2/150 39/121/150
f 39/121/151 2/63/151 3/3/151
f 61/122/152 63/123/152 62/124/152
f 60/125/153 62/126/153 63/127/153
f 59/128/154 60/129/154 64/130/154
f 63/127/155 64/131/155 60/125/155
f 61/122/152 65/132/152 63/123/152
f 64/133/156 63/134/156 65/135/156
f 59/128/154 64/130/154 66/136/154
f 65/135/157 66/137/157 64/133/157
f 61/122/152 67/138/152 65/132/152
f 66/137/158 65/135/158 67/139/158
f 59/128/154 66/136/154 68/140/154
f 67/139/159 68/141/159 66/137/159
f 68/142/160 67/143/160 61/144/160
f 61/144/161 59/145/161 68/142/161
f 59/145/162 61/144/162 69/146/162
f 69/146/163 70/147/163 59/145/163
f 61/148/152 71/149/152 69/150/152
f 70/151/164 69/152/164 71/153/164
f 59/128/154 70/154/154 72/155/154
f 71/153/165 72/156/165 70/151/165
f 61/148/152 73/157/152 71/149/152
f 72/156/166 71/153/166 73/158/166
f 59/128/154 72/155/154 74/159/154
f 73/158/167 74/160/167 72/156/167
f 61/148/152 75/161/152 73/157/152
f 74/162/168 73/163/168 75/164/168
f 59/128/154 74/159/154 76/165/154
f 75/164/169 76/166/169 74/162/169
