# Blender 5.2.0 LTS
# www.blender.org
mtllib ramp.mtl
o Cube
v 1.000000 -1.000000 -1.000000
v 1.000000 1.000000 1.000000
v 1.000000 -1.000000 1.000000
v -1.000000 -1.000000 -1.000000
v -1.000000 1.000000 1.000000
v -1.000000 -1.000000 1.000000
vn 1.0000 -0.0000 -0.0000
vn -0.0000 -0.0000 1.0000
vn -0.0000 0.7071 -0.7071
vn -0.0000 -1.0000 -0.0000
vn -1.0000 -0.0000 -0.0000
vt 0.002604 1.002604
vt 0.002604 0.002604
vt 1.002604 0.002604
vt 1.000000 0.002604
vt 1.000000 1.002604
vt 0.000000 1.002604
vt 0.000000 0.002604
vt -0.001302 0.006510
vt -0.001302 1.006510
vt 0.998698 0.006510
s 0
usemtl Material
f 2/1/1 3/2/1 1/3/1
f 3/4/2 2/5/2 5/6/2 6/7/2
f 4/6/3 5/7/3 2/4/3 1/5/3
f 4/6/4 1/5/4 3/4/4 6/7/4
f 6/8/5 5/9/5 4/10/5
